<svg width="20" height="20" viewBox="0 0 20 20" fill="none" xmlns="http://www.w3.org/2000/svg">
<path d="M10.0003 1.6665C14.6027 1.6665 18.3337 5.39746 18.3337 9.99984C18.3337 14.6022 14.6027 18.3332 10.0003 18.3332C5.39795 18.3332 1.66699 14.6022 1.66699 9.99984C1.66699 5.39746 5.39795 1.6665 10.0003 1.6665ZM10.0003 2.9165C6.08831 2.9165 2.91699 6.08782 2.91699 9.99984C2.91699 13.9118 6.08831 17.0832 10.0003 17.0832C13.9123 17.0832 17.0837 13.9118 17.0837 9.99984C17.0837 6.08782 13.9123 2.9165 10.0003 2.9165ZM8.95866 11.1993L12.6834 7.47456C12.9275 7.23049 13.3232 7.23049 13.5672 7.47456C13.7892 7.69645 13.8093 8.04367 13.6277 8.28835L13.5672 8.35842L9.40058 12.5251C9.17874 12.747 8.83149 12.7672 8.58682 12.5856L8.51674 12.5251L6.43338 10.4418C6.18931 10.1977 6.18931 9.802 6.43338 9.55792C6.65528 9.336 7.00249 9.31584 7.24717 9.49742L7.31727 9.55792L8.95866 11.1993L12.6834 7.47456L8.95866 11.1993Z" fill="#00917C"/>
</svg>
