<svg width="35" height="35" viewBox="0 0 35 35" fill="none" xmlns="http://www.w3.org/2000/svg">
<path d="M25.8915 20.417C27.7027 20.417 29.171 21.8853 29.171 23.6966V24.5358C29.171 25.84 28.7049 27.1011 27.8568 28.0919C25.5681 30.7658 22.087 32.0853 17.4999 32.0853C12.9122 32.0853 9.43256 30.7653 7.14837 28.0903C6.30289 27.1003 5.83838 25.841 5.83838 24.539V23.6966C5.83838 21.8853 7.3067 20.417 9.11798 20.417H25.8915ZM25.8915 22.6045H9.11798C8.51483 22.6045 8.02588 23.0935 8.02588 23.6966V24.539C8.02588 25.3202 8.30458 26.0758 8.81188 26.6698C10.6396 28.8102 13.5065 29.8978 17.4999 29.8978C21.4933 29.8978 24.3627 28.8101 26.1951 26.6695C26.7039 26.0749 26.9835 25.3182 26.9835 24.5358V23.6966C26.9835 23.0935 26.4945 22.6045 25.8915 22.6045ZM17.4999 2.92383C21.527 2.92383 24.7916 6.18842 24.7916 10.2155C24.7916 14.2426 21.527 17.5072 17.4999 17.5072C13.4728 17.5072 10.2082 14.2426 10.2082 10.2155C10.2082 6.18842 13.4728 2.92383 17.4999 2.92383ZM17.4999 5.11133C14.681 5.11133 12.3957 7.39655 12.3957 10.2155C12.3957 13.0345 14.681 15.3197 17.4999 15.3197C20.3189 15.3197 22.6041 13.0345 22.6041 10.2155C22.6041 7.39655 20.3189 5.11133 17.4999 5.11133Z" fill="white"/>
</svg>
