<svg width="24" height="24" viewBox="0 0 24 24" fill="none" xmlns="http://www.w3.org/2000/svg">
<path d="M16.2803 20.7804C15.9874 21.0732 15.5125 21.0732 15.2196 20.7803C14.9268 20.4874 14.9268 20.0125 15.2197 19.7196L18.4397 16.5H10.75C8.40279 16.5 6.5 14.5972 6.5 12.25V4C6.5 3.5858 6.83579 3.25 7.25 3.25C7.66421 3.25 8 3.5858 8 4V12.25C8 13.7688 9.23122 15 10.75 15H18.439L15.2196 11.7803C14.9268 11.4874 14.9268 11.0125 15.2197 10.7196C15.5126 10.4268 15.9875 10.4268 16.2804 10.7197L20.7804 15.2201C20.921 15.3608 21 15.5516 21 15.7505C21 15.9494 20.921 16.1402 20.7803 16.2808L16.2803 20.7804Z" fill="#212121"/>
</svg>
