<svg width="56" height="56" viewBox="0 0 56 56" fill="none" xmlns="http://www.w3.org/2000/svg">
<path d="M24.6155 5.90778C26.5706 4.25909 29.4294 4.25909 31.3845 5.9078L47.1345 19.1894C48.3173 20.1869 49 21.6555 49 23.2028V46.0759C49 48.3311 47.1718 50.1592 44.9167 50.1592H36.75C34.4948 50.1592 32.6667 48.3311 32.6667 46.0759V33.2426C32.6667 32.9206 32.4056 32.6592 32.0833 32.6592H23.9167C23.5944 32.6592 23.3333 32.9206 23.3333 33.2426V46.0759C23.3333 48.3311 21.5052 50.1592 19.25 50.1592H11.0833C8.82817 50.1592 7 48.3311 7 46.0759V23.2028C7 21.6555 7.68262 20.1869 8.86555 19.1894L24.6155 5.90778ZM29.1282 8.58343C28.4765 8.03386 27.5235 8.03386 26.8718 8.58343L11.1219 21.865C10.7275 22.1975 10.5 22.6871 10.5 23.2028V46.0759C10.5 46.3981 10.7612 46.6592 11.0833 46.6592H19.25C19.5722 46.6592 19.8333 46.3981 19.8333 46.0759V33.2426C19.8333 30.9874 21.6615 29.1592 23.9167 29.1592H32.0833C34.3385 29.1592 36.1667 30.9874 36.1667 33.2426V46.0759C36.1667 46.3981 36.4278 46.6592 36.75 46.6592H44.9167C45.2389 46.6592 45.5 46.3981 45.5 46.0759V23.2028C45.5 22.6871 45.2725 22.1975 44.8782 21.865L29.1282 8.58343Z" fill="white"/>
</svg>
