<svg width="56" height="56" viewBox="0 0 56 56" fill="none" xmlns="http://www.w3.org/2000/svg">
<path d="M33.8333 4.66663C38.0214 4.66663 41.4167 8.06179 41.4167 12.25C41.4167 13.7539 40.9789 15.1556 40.2236 16.3346L46.0833 16.3333C47.6943 16.3333 49 17.6391 49 19.25V27.4166C49 28.8269 47.999 30.0034 46.6688 30.2745L46.6667 43.75C46.6667 47.7936 43.5015 51.0981 39.5136 51.3214L39.0833 51.3333H16.9167C12.8729 51.3333 9.56842 48.1681 9.34533 44.1802L9.33333 43.75L9.33345 30.275C8.0021 30.0048 7 28.8278 7 27.4166V19.25C7 17.6391 8.30583 16.3333 9.91667 16.3333L15.7763 16.3346C15.0211 15.1556 14.5833 13.7539 14.5833 12.25C14.5833 8.06179 17.9785 4.66663 22.1667 4.66663C24.5128 4.66663 26.6103 5.73217 28.0014 7.40575C29.3897 5.73217 31.4872 4.66663 33.8333 4.66663ZM26.25 30.331H12.8333V43.75C12.8333 45.8924 14.4833 47.6494 16.5818 47.8198L16.9167 47.8333H26.25V30.331ZM43.1667 30.331H29.75V47.8333H39.0833C41.2258 47.8333 42.9828 46.1834 43.1531 44.0848L43.1667 43.75V30.331ZM26.25 19.8333H10.5V26.8333L26.25 26.831V19.8333ZM45.5 26.8333V19.8333H29.75V26.831L45.5 26.8333ZM33.8333 8.16663C31.5782 8.16663 29.75 9.99479 29.75 12.25V16.331H33.8893L34.1682 16.3198C36.2668 16.1494 37.9167 14.3924 37.9167 12.25C37.9167 9.99479 36.0885 8.16663 33.8333 8.16663ZM22.1667 8.16663C19.9115 8.16663 18.0833 9.99479 18.0833 12.25C18.0833 14.3924 19.7333 16.1494 21.8318 16.3198L22.1107 16.331H26.25V12.25L26.2365 11.9151C26.0661 9.81655 24.3091 8.16663 22.1667 8.16663Z" fill="white"/>
</svg>
