<svg width="56" height="56" viewBox="0 0 56 56" fill="none" xmlns="http://www.w3.org/2000/svg">
<path d="M41.4267 32.6672C44.3247 32.6672 46.6739 35.0164 46.6739 37.9146V39.2572C46.6739 41.3439 45.9282 43.3618 44.5714 44.947C40.9094 49.2252 35.3395 51.3364 28.0003 51.3364C20.6598 51.3364 15.0925 49.2245 11.4378 44.9445C10.085 43.3604 9.3418 41.3455 9.3418 39.2623V37.9146C9.3418 35.0164 11.6911 32.6672 14.5892 32.6672H41.4267ZM41.4267 36.1672H14.5892C13.6241 36.1672 12.8418 36.9495 12.8418 37.9146V39.2623C12.8418 40.5123 13.2877 41.7212 14.0994 42.6716C17.0238 46.0962 21.6108 47.8364 28.0003 47.8364C34.3896 47.8364 38.9807 46.0962 41.9125 42.6711C42.7266 41.7198 43.1739 40.509 43.1739 39.2572V37.9146C43.1739 36.9495 42.3916 36.1672 41.4267 36.1672ZM28.0003 4.6781C34.4435 4.6781 39.6669 9.90145 39.6669 16.3448C39.6669 22.7881 34.4435 28.0115 28.0003 28.0115C21.5569 28.0115 16.3335 22.7881 16.3335 16.3448C16.3335 9.90145 21.5569 4.6781 28.0003 4.6781ZM28.0003 8.1781C23.4899 8.1781 19.8335 11.8345 19.8335 16.3448C19.8335 20.8551 23.4899 24.5115 28.0003 24.5115C32.5106 24.5115 36.1669 20.8551 36.1669 16.3448C36.1669 11.8345 32.5106 8.1781 28.0003 8.1781Z" fill="white"/>
</svg>
