<svg width="60" height="60" viewBox="0 0 60 60" fill="none" xmlns="http://www.w3.org/2000/svg">
<path d="M0 2C0 0.895432 0.895431 0 2 0H58C59.1046 0 60 0.895431 60 2V60H0V2Z" fill="#FFE500"/>
<g clip-path="url(#clip0_484_20968)">
<path d="M29.9974 18C22.8222 18 17 22.5793 17 28.2274C17 31.9055 19.4637 35.1278 23.1697 36.9302C22.8959 37.9414 22.1853 40.5926 22.0431 41.1584C21.8641 41.8605 22.3011 41.8553 22.5853 41.6614C22.8064 41.5147 26.1492 39.2512 27.5864 38.2767C28.3707 38.392 29.1761 38.4549 29.9974 38.4549C37.1778 38.4549 42.9947 33.8756 42.9947 28.2274C43 22.5793 37.1778 18 29.9974 18Z" fill="#200D0F"/>
</g>
<defs>
<clipPath id="clip0_484_20968">
<rect width="26" height="23.7714" fill="white" transform="translate(17 18)"/>
</clipPath>
</defs>
</svg>
