<svg width="22" height="22" viewBox="0 0 22 22" fill="none" xmlns="http://www.w3.org/2000/svg">
<path d="M1.83337 10.9997C1.83337 5.93706 5.93743 1.83301 11 1.83301C16.0626 1.83301 20.1667 5.93706 20.1667 10.9997C20.1667 16.0622 16.0626 20.1663 11 20.1663C5.93743 20.1663 1.83337 16.0622 1.83337 10.9997ZM3.20837 10.9997C3.20837 15.3029 6.69682 18.7913 11 18.7913C15.3032 18.7913 18.7917 15.3029 18.7917 10.9997C18.7917 6.69646 15.3032 3.20801 11 3.20801C6.69682 3.20801 3.20837 6.69646 3.20837 10.9997ZM9.13891 15.1524C8.87042 14.884 8.87042 14.4487 9.13891 14.1802L12.3194 10.9997L9.13891 7.81914C8.87042 7.55066 8.87042 7.11535 9.13891 6.84687C9.40742 6.57839 9.84266 6.57839 10.1111 6.84687L13.7778 10.5136C14.0463 10.7821 14.0463 11.2173 13.7778 11.4858L10.1111 15.1524C9.84266 15.4209 9.40742 15.4209 9.13891 15.1524Z" fill="#363636"/>
</svg>
