<svg width="36" height="36" viewBox="0 0 36 36" fill="none" xmlns="http://www.w3.org/2000/svg">
<path d="M7.875 6H28.125C30.7245 6 32.8488 8.03467 32.9923 10.5984L33 10.875V25.125C33 27.7245 30.9653 29.8488 28.4016 29.9923L28.125 30H7.875C5.27545 30 3.15113 27.9653 3.00771 25.4016L3 25.125V10.875C3 8.27545 5.03467 6.15112 7.59837 6.00771L7.875 6H28.125H7.875ZM30.75 14.0595L18.524 20.4956C18.2429 20.6434 17.9147 20.6646 17.6202 20.559L17.476 20.4956L5.25 14.061V25.125C5.25 26.5023 6.31067 27.6318 7.65971 27.7413L7.875 27.75H28.125C29.5023 27.75 30.6318 26.6893 30.7413 25.3402L30.75 25.125V14.0595ZM28.125 8.25H7.875C6.49775 8.25 5.36822 9.31067 5.2587 10.6597L5.25 10.875V11.5185L18 18.2288L30.75 11.517V10.875C30.75 9.49775 29.6893 8.36821 28.3402 8.2587L28.125 8.25Z" fill="white"/>
</svg>
