<svg width="35" height="35" viewBox="0 0 35 35" fill="none" xmlns="http://www.w3.org/2000/svg">
<path d="M3.64587 6.198C3.64587 5.59394 4.13557 5.10425 4.73962 5.10425H5.55375C6.93985 5.10425 7.76978 6.03611 8.24436 6.90236C8.56069 7.47979 8.78953 8.14951 8.96853 8.75584C9.017 8.75204 9.06612 8.75008 9.11579 8.75008H27.341C28.5517 8.75008 29.426 9.90861 29.0941 11.0729L26.4285 20.4195C25.9374 22.1422 24.3632 23.3302 22.572 23.3302H13.8976C12.0915 23.3302 10.5082 22.1229 10.0302 20.3812L8.92116 16.34L7.0857 10.1439L7.08273 10.1331C6.85567 9.30499 6.64256 8.5314 6.3259 7.95339C6.01838 7.39208 5.77325 7.29175 5.55375 7.29175H4.73962C4.13557 7.29175 3.64587 6.80205 3.64587 6.198ZM11.0438 15.8089L12.1397 19.8022C12.357 20.5939 13.0767 21.1427 13.8976 21.1427H22.572C23.3862 21.1427 24.1016 20.6027 24.325 19.8197L26.8579 10.9376H9.60388L11.0237 15.7308C11.0314 15.7568 11.038 15.7827 11.0438 15.8089ZM16.0417 27.7084C16.0417 29.3193 14.7359 30.6251 13.125 30.6251C11.5142 30.6251 10.2084 29.3193 10.2084 27.7084C10.2084 26.0975 11.5142 24.7917 13.125 24.7917C14.7359 24.7917 16.0417 26.0975 16.0417 27.7084ZM13.8542 27.7084C13.8542 27.3058 13.5277 26.9792 13.125 26.9792C12.7223 26.9792 12.3959 27.3058 12.3959 27.7084C12.3959 28.1111 12.7223 28.4376 13.125 28.4376C13.5277 28.4376 13.8542 28.1111 13.8542 27.7084ZM26.25 27.7084C26.25 29.3193 24.9442 30.6251 23.3334 30.6251C21.7225 30.6251 20.4167 29.3193 20.4167 27.7084C20.4167 26.0975 21.7225 24.7917 23.3334 24.7917C24.9442 24.7917 26.25 26.0975 26.25 27.7084ZM24.0625 27.7084C24.0625 27.3058 23.736 26.9792 23.3334 26.9792C22.9307 26.9792 22.6042 27.3058 22.6042 27.7084C22.6042 28.1111 22.9307 28.4376 23.3334 28.4376C23.736 28.4376 24.0625 28.1111 24.0625 27.7084Z" fill="white"/>
</svg>
