<svg width="40" height="40" viewBox="0 0 40 40" fill="none" xmlns="http://www.w3.org/2000/svg">
<path d="M13.75 36.6663H21.3493C20.6387 35.9258 20.0323 35.0847 19.5537 34.1663H13.75C13.0597 34.1663 12.5 33.6067 12.5 32.9163V7.08301C12.5 6.39266 13.0597 5.83301 13.75 5.83301H26.25C26.9403 5.83301 27.5 6.39266 27.5 7.08301V18.4603C28.0433 18.3765 28.5998 18.333 29.1667 18.333C29.447 18.333 29.725 18.3437 30 18.3645V7.08301C30 5.01194 28.321 3.33301 26.25 3.33301H13.75C11.6789 3.33301 10 5.01194 10 7.08301V32.9163C10 34.9873 11.6789 36.6663 13.75 36.6663ZM18.7498 26.1808C19.2275 24.5112 20.0958 23.0065 21.2495 21.7717L21.2488 15.8465L22.8522 17.4483C23.296 17.8922 23.9905 17.9325 24.4798 17.5693L24.62 17.4483C25.0638 17.0045 25.1042 16.3101 24.741 15.8208L24.62 15.6806L20.8838 11.9445L20.8202 11.8851L20.716 11.8035L20.6052 11.7343L20.5043 11.6842L20.3365 11.6241L20.2322 11.6L20.078 11.5808H19.922L19.7692 11.5996L19.6085 11.6408L19.4225 11.7193L19.2945 11.7963L19.1162 11.9445L15.38 15.6806C14.8918 16.1687 14.8918 16.9602 15.38 17.4483C15.8238 17.8922 16.5182 17.9325 17.0075 17.5693L17.1478 17.4483L18.7488 15.8465L18.7498 26.1808ZM38.3333 29.1663C38.3333 34.229 34.2293 38.333 29.1667 38.333C24.104 38.333 20 34.229 20 29.1663C20 24.1037 24.104 19.9997 29.1667 19.9997C34.2293 19.9997 38.3333 24.1037 38.3333 29.1663ZM34.756 25.2437C34.4305 24.9183 33.9028 24.9183 33.5773 25.2437L27.5 31.3212L24.756 28.577C24.4305 28.2517 23.9028 28.2517 23.5773 28.577C23.252 28.9025 23.252 29.4302 23.5773 29.7557L26.9107 33.089C27.2362 33.4143 27.7638 33.4143 28.0893 33.089L34.756 26.4223C35.0813 26.0968 35.0813 25.5692 34.756 25.2437Z" fill="white"/>
</svg>
