<svg width="36" height="36" viewBox="0 0 36 36" fill="none" xmlns="http://www.w3.org/2000/svg">
<path d="M8.76455 6.85281C13.8652 1.75219 22.1349 1.75219 27.2355 6.85281C32.3361 11.9534 32.3361 20.2232 27.2355 25.3238L25.455 27.0847C24.1428 28.3726 22.44 30.0286 20.3463 32.0528C19.0379 33.3179 16.9622 33.3178 15.654 32.0525L10.4174 26.9587C9.75921 26.3125 9.20831 25.7675 8.76455 25.3238C3.66393 20.2232 3.66393 11.9534 8.76455 6.85281ZM25.6445 8.44379C21.4226 4.22185 14.5775 4.22185 10.3555 8.44379C6.13361 12.6657 6.13361 19.5109 10.3555 23.7328L12.5862 25.934C13.8145 27.1361 15.3587 28.6367 17.2182 30.4352C17.6543 30.8569 18.3462 30.857 18.7823 30.4354L23.8746 25.4831C24.5781 24.7927 25.1681 24.2092 25.6445 23.7328C29.8665 19.5109 29.8665 12.6657 25.6445 8.44379ZM18 11.9988C20.4866 11.9988 22.5024 14.0145 22.5024 16.5011C22.5024 18.9877 20.4866 21.0034 18 21.0034C15.5135 21.0034 13.4977 18.9877 13.4977 16.5011C13.4977 14.0145 15.5135 11.9988 18 11.9988ZM18 14.2488C16.7561 14.2488 15.7478 15.2572 15.7478 16.5011C15.7478 17.7451 16.7561 18.7534 18 18.7534C19.244 18.7534 20.2524 17.7451 20.2524 16.5011C20.2524 15.2572 19.244 14.2488 18 14.2488Z" fill="#1B1B1B"/>
</svg>
