<svg width="35" height="35" viewBox="0 0 35 35" fill="none" xmlns="http://www.w3.org/2000/svg">
<path d="M14.5834 4.0105C20.4227 4.0105 25.1563 8.74416 25.1563 14.5834C25.1563 17.1091 24.2707 19.4279 22.7931 21.2462L29.9401 28.3934C30.3672 28.8205 30.3672 29.513 29.9401 29.9401C29.5519 30.3285 28.9442 30.3637 28.516 30.046L28.3934 29.9401L21.2462 22.7931C19.4279 24.2707 17.1091 25.1563 14.5834 25.1563C8.74416 25.1563 4.0105 20.4227 4.0105 14.5834C4.0105 8.74416 8.74416 4.0105 14.5834 4.0105ZM14.5834 6.198C9.95227 6.198 6.198 9.95227 6.198 14.5834C6.198 19.2145 9.95227 22.9688 14.5834 22.9688C19.2145 22.9688 22.9688 19.2145 22.9688 14.5834C22.9688 9.95227 19.2145 6.198 14.5834 6.198Z" fill="#1B1B1B"/>
</svg>
