<svg width="36" height="36" viewBox="0 0 36 36" fill="none" xmlns="http://www.w3.org/2000/svg">
<path d="M13.8526 2.733C14.0905 2.66324 14.3485 2.625 14.625 2.625C16.2691 2.625 17.2434 3.97581 17.2434 5.25V10.7594C17.6816 10.6073 18.1896 10.5009 18.7552 10.5009C20.8522 10.5009 22.5 12.0474 22.5 14.25C22.5 14.6129 22.3249 14.9536 22.0297 15.1649L19.454 17.0083L18.0219 18.257C17.0638 19.0924 16.2032 20.0334 15.4565 21.0621L14.5588 22.2984C13.7827 23.3673 12.5417 24 11.2208 24H8.76272C7.36611 24 6.027 23.2905 5.30517 22.0331C4.85207 21.2436 4.29114 20.2065 3.84019 19.1799C3.41119 18.2034 3 17.0609 3 16.125V7.125C3 5.84383 3.98721 4.5 5.625 4.5C5.78994 4.5 5.9483 4.51363 6.09969 4.53945C6.38816 3.51679 7.28901 2.625 8.625 2.625C8.89845 2.625 9.15669 2.66352 9.39668 2.73412C9.82962 2.02636 10.6002 1.5 11.625 1.5C12.6492 1.5 13.4196 2.0258 13.8526 2.733ZM11.3538 3.85559C11.2891 3.92583 11.25 4.02706 11.25 4.12257V5.12046C11.2515 5.17019 11.2515 5.22007 11.25 5.26996V10.875C11.25 11.4963 10.7463 12 10.125 12C9.50368 12 9 11.4963 9 10.875V5.17257C8.99442 5.11736 8.96823 5.04782 8.91227 4.98773C8.85605 4.92737 8.76855 4.875 8.625 4.875C8.48204 4.875 8.40489 4.92452 8.35386 4.98004C8.28992 5.04961 8.25 5.15146 8.25 5.2503V11.6259C8.25 12.2472 7.74632 12.7509 7.125 12.7509C6.50368 12.7509 6 12.2472 6 11.6259V7.125C6 7.02745 5.96037 6.92559 5.89583 6.85544C5.84406 6.79917 5.76656 6.75 5.625 6.75C5.48344 6.75 5.40594 6.79917 5.35417 6.85544C5.28963 6.92559 5.25 7.02745 5.25 7.125V16.125C5.25 16.5444 5.47308 17.3028 5.90018 18.275C6.30533 19.1973 6.82234 20.1564 7.25653 20.9128C7.55098 21.4258 8.1179 21.75 8.76272 21.75H11.2208C11.8212 21.75 12.3853 21.4625 12.738 20.9766L13.6356 19.7402C14.482 18.5744 15.4573 17.508 16.5432 16.5612L18.0159 15.2771C18.043 15.2535 18.0713 15.2311 18.1005 15.2101L20.1757 13.7249C19.9886 13.1128 19.4616 12.7509 18.7552 12.7509C17.7999 12.7509 17.121 13.3507 16.8925 13.5524C16.8745 13.5682 16.8595 13.5816 16.8472 13.5921C16.513 13.8761 16.0444 13.9402 15.6463 13.7561C15.2482 13.5721 14.9935 13.1735 14.9935 12.735V5.25C14.9935 5.14885 14.953 5.04654 14.8902 4.97783C14.8405 4.92353 14.7659 4.875 14.625 4.875C14.482 4.875 14.4046 4.92453 14.3537 4.97987C14.2901 5.0489 14.25 5.15026 14.25 5.25V10.875C14.25 11.4963 13.7463 12 13.125 12C12.5037 12 12 11.4963 12 10.875V4.12257C12 4.02706 11.9609 3.92583 11.8962 3.85559C11.8443 3.79923 11.7666 3.75 11.625 3.75C11.4834 3.75 11.4057 3.79923 11.3538 3.85559ZM19.5 22.5C20.3284 22.5 21 21.8284 21 21C21 20.1716 20.3284 19.5 19.5 19.5C18.6715 19.5 18 20.1716 18 21C18 21.8284 18.6715 22.5 19.5 22.5ZM25.5 22.5C26.3284 22.5 27 21.8284 27 21C27 20.1716 26.3284 19.5 25.5 19.5C24.6716 19.5 24 20.1716 24 21C24 21.8284 24.6716 22.5 25.5 22.5ZM22.4998 33C17.6979 33 13.6488 29.7765 12.3984 25.3754C13.1507 25.2143 13.8601 24.9008 14.4834 24.4571C15.3621 28.0686 18.6178 30.75 22.4998 30.75C27.0562 30.75 30.7499 27.0562 30.7499 22.5C30.7499 18.4547 27.8384 15.0893 23.9964 14.3853C23.9986 14.3404 23.9998 14.2952 23.9998 14.2499C23.9998 13.4501 23.8393 12.7095 23.5503 12.0518C28.8561 12.5788 32.9999 17.0555 32.9999 22.5C32.9999 28.2989 28.2988 33 22.4998 33ZM19.7965 25.0991C19.3657 24.6513 18.6536 24.6375 18.2058 25.0681C17.7581 25.4989 17.7443 26.211 18.1749 26.6589C19.2651 27.7923 20.8006 28.4999 22.4995 28.4999C24.1985 28.4999 25.734 27.7923 26.8242 26.6589C27.255 26.211 27.2412 25.4989 26.7933 25.0681C26.3456 24.6375 25.6334 24.6513 25.2027 25.0991C24.519 25.8097 23.5617 26.2499 22.4995 26.2499C21.4375 26.2499 20.4801 25.8097 19.7965 25.0991Z" fill="#1B1B1B"/>
</svg>
