<svg width="36" height="36" viewBox="0 0 36 36" fill="none" xmlns="http://www.w3.org/2000/svg">
<path d="M18.0001 2.99805C26.2856 2.99805 33.0025 9.71481 33.0025 18.0004C33.0025 26.2859 26.2856 33.0026 18.0001 33.0026C9.71458 33.0026 2.9978 26.2859 2.9978 18.0004C2.9978 9.71481 9.71458 2.99805 18.0001 2.99805ZM18.0001 5.24805C10.9572 5.24805 5.2478 10.9575 5.2478 18.0004C5.2478 25.0433 10.9572 30.7526 18.0001 30.7526C25.043 30.7526 30.7525 25.0433 30.7525 18.0004C30.7525 10.9575 25.043 5.24805 18.0001 5.24805ZM12.6927 22.1753C13.9664 23.7919 15.9029 24.7528 18.0001 24.7528C20.0944 24.7528 22.0286 23.7946 23.3026 22.1816C23.6876 21.694 24.395 21.6109 24.8827 21.9961C25.3702 22.3811 25.4533 23.0885 25.0682 23.5762C23.372 25.7237 20.7904 27.0028 18.0001 27.0028C15.2062 27.0028 12.6213 25.7203 10.9254 23.5678C10.5409 23.0798 10.6248 22.3724 11.1128 21.988C11.6009 21.6034 12.3082 21.6874 12.6927 22.1753ZM13.5008 13.1263C14.5358 13.1263 15.3748 13.9653 15.3748 15.0003C15.3748 16.0352 14.5358 16.8742 13.5008 16.8742C12.4659 16.8742 11.6269 16.0352 11.6269 15.0003C11.6269 13.9653 12.4659 13.1263 13.5008 13.1263ZM22.5008 13.1263C23.5357 13.1263 24.3748 13.9653 24.3748 15.0003C24.3748 16.0352 23.5357 16.8742 22.5008 16.8742C21.4658 16.8742 20.6269 16.0352 20.6269 15.0003C20.6269 13.9653 21.4658 13.1263 22.5008 13.1263Z" fill="#1B1B1B"/>
</svg>
