<svg width="35" height="35" viewBox="0 0 35 35" fill="none" xmlns="http://www.w3.org/2000/svg">
<path d="M3.64575 6.198C3.64575 5.59394 4.13545 5.10425 4.7395 5.10425H5.55363C6.93973 5.10425 7.76966 6.03611 8.24424 6.90236C8.56057 7.47979 8.78941 8.14951 8.96841 8.75584C9.01688 8.75204 9.066 8.75008 9.11567 8.75008H27.3409C28.5516 8.75008 29.4259 9.90861 29.094 11.0729L26.4284 20.4195C25.9373 22.1422 24.3631 23.3302 22.5719 23.3302H13.8975C12.0914 23.3302 10.5081 22.1229 10.0301 20.3812L8.92104 16.34L7.08558 10.1439L7.08261 10.1331C6.85554 9.30499 6.64244 8.5314 6.32577 7.95339C6.01826 7.39208 5.77312 7.29175 5.55363 7.29175H4.7395C4.13545 7.29175 3.64575 6.80205 3.64575 6.198ZM11.0436 15.8089L12.1396 19.8022C12.3569 20.5939 13.0765 21.1427 13.8975 21.1427H22.5719C23.386 21.1427 24.1015 20.6027 24.3249 19.8197L26.8577 10.9376H9.60376L11.0235 15.7308C11.0312 15.7568 11.0379 15.7827 11.0436 15.8089ZM16.0416 27.7084C16.0416 29.3193 14.7358 30.6251 13.1249 30.6251C11.5141 30.6251 10.2083 29.3193 10.2083 27.7084C10.2083 26.0975 11.5141 24.7917 13.1249 24.7917C14.7358 24.7917 16.0416 26.0975 16.0416 27.7084ZM13.8541 27.7084C13.8541 27.3058 13.5276 26.9792 13.1249 26.9792C12.7222 26.9792 12.3958 27.3058 12.3958 27.7084C12.3958 28.1111 12.7222 28.4376 13.1249 28.4376C13.5276 28.4376 13.8541 28.1111 13.8541 27.7084ZM26.2499 27.7084C26.2499 29.3193 24.9441 30.6251 23.3333 30.6251C21.7224 30.6251 20.4166 29.3193 20.4166 27.7084C20.4166 26.0975 21.7224 24.7917 23.3333 24.7917C24.9441 24.7917 26.2499 26.0975 26.2499 27.7084ZM24.0624 27.7084C24.0624 27.3058 23.7359 26.9792 23.3333 26.9792C22.9306 26.9792 22.6041 27.3058 22.6041 27.7084C22.6041 28.1111 22.9306 28.4376 23.3333 28.4376C23.7359 28.4376 24.0624 28.1111 24.0624 27.7084Z" fill="#1B1B1B"/>
</svg>
