<svg width="60" height="60" viewBox="0 0 60 60" fill="none" xmlns="http://www.w3.org/2000/svg">
<rect width="60" height="60" fill="#343C8E"/>
<g clip-path="url(#clip0_484_20976)">
<path d="M26.48 44.24L26.51 30.87C26.51 30.87 22.02 30.83 22.02 30.87V25.74C22.02 25.74 25.32 25.74 26.52 25.74C26.32 19.45 26.81 18.85 27.97 17.22C29.48 15.54 30.95 14.53 37.2 15.22C37.2 16.5 37.2 18.57 37.2 19.84C34.04 19.84 33.23 19.7 32.31 20.59C31.62 21.42 31.85 23.84 31.85 25.73C32.85 25.73 37 25.72 37 25.72L36.32 30.9H31.89V44.25H26.48V44.24Z" fill="white"/>
</g>
<defs>
<clipPath id="clip0_484_20976">
<rect width="15.2" height="29.25" fill="white" transform="translate(22 15)"/>
</clipPath>
</defs>
</svg>
