<svg width="50" height="50" viewBox="0 0 50 50" fill="none" xmlns="http://www.w3.org/2000/svg">
<path d="M35.4167 5.2041C39.4458 5.2041 42.7121 8.47033 42.7121 12.4995C42.7121 16.5286 39.4458 19.7948 35.4167 19.7948C33.2708 19.7948 31.3415 18.8684 30.0067 17.3938L20.5095 22.8196C20.7247 23.508 20.8406 24.2402 20.8406 24.9994C20.8406 25.7588 20.7247 26.4909 20.5095 27.1792L30.0048 32.6073C31.3396 31.1313 33.2698 30.204 35.4167 30.204C39.4458 30.204 42.7121 33.4702 42.7121 37.4994C42.7121 41.5286 39.4458 44.7948 35.4167 44.7948C31.3875 44.7948 28.1212 41.5286 28.1212 37.4994C28.1212 36.7402 28.2373 36.008 28.4525 35.3196L18.9573 29.8917C17.6224 31.3675 15.6921 32.2948 13.5454 32.2948C9.51625 32.2948 6.25 29.0286 6.25 24.9994C6.25 20.9702 9.51625 17.7041 13.5454 17.7041C15.6911 17.7041 17.6205 18.6305 18.9554 20.1051L28.4525 14.6792C28.2373 13.9909 28.1212 13.2587 28.1212 12.4995C28.1212 8.47033 31.3875 5.2041 35.4167 5.2041Z" fill="#8A8A8A"/>
</svg>
