<svg width="50" height="50" viewBox="0 0 50 50" fill="none" xmlns="http://www.w3.org/2000/svg">
<path d="M39.0622 8.3335C42.8015 8.3335 45.833 11.3649 45.833 15.1043V39.0627C45.833 42.802 42.8015 45.8335 39.0622 45.8335H15.1038C11.3644 45.8335 8.33301 42.802 8.33301 39.0627V26.0458C9.32103 26.4577 10.3682 26.756 11.4582 26.9243L11.458 39.0627C11.458 39.4968 11.5339 39.9133 11.6731 40.2995L23.8034 28.4231C25.539 26.7237 28.2653 26.6429 30.0951 28.1806L30.3626 28.4233L42.4922 40.3016C42.6318 39.9147 42.708 39.4977 42.708 39.0627V15.1043C42.708 13.0908 41.0757 11.4585 39.0622 11.4585L26.9238 11.4587C26.7555 10.3686 26.4572 9.32152 26.0453 8.3335H39.0622ZM26.1638 30.5085L25.9897 30.656L13.8923 42.5025C14.2713 42.6358 14.6791 42.7085 15.1038 42.7085H39.0622C39.4861 42.7085 39.8932 42.6362 40.2715 42.5031L28.1761 30.656C27.6238 30.1154 26.7707 30.066 26.1638 30.5085ZM33.8582 15.6252C36.4495 15.6252 38.5501 17.7258 38.5501 20.3171C38.5501 22.9083 36.4495 25.0089 33.8582 25.0089C31.267 25.0089 29.1663 22.9083 29.1663 20.3171C29.1663 17.7258 31.267 15.6252 33.8582 15.6252ZM13.5413 2.0835C19.8696 2.0835 24.9997 7.21356 24.9997 13.5418C24.9997 19.8701 19.8696 25.0002 13.5413 25.0002C7.21307 25.0002 2.08301 19.8701 2.08301 13.5418C2.08301 7.21356 7.21307 2.0835 13.5413 2.0835ZM33.8582 18.7502C32.9928 18.7502 32.2913 19.4517 32.2913 20.3171C32.2913 21.1825 32.9928 21.8839 33.8582 21.8839C34.7236 21.8839 35.4251 21.1825 35.4251 20.3171C35.4251 19.4517 34.7236 18.7502 33.8582 18.7502ZM13.5413 6.24856L13.3541 6.26535C12.9289 6.34252 12.5936 6.67781 12.5165 7.103L12.4997 7.29023L12.4989 12.4986L7.28645 12.5002L7.0992 12.517C6.67401 12.5941 6.33874 12.9294 6.26157 13.3546L6.24478 13.5418L6.26157 13.7291C6.33874 14.1543 6.67401 14.4895 7.0992 14.5667L7.28645 14.5835L12.501 14.5819L12.502 19.7991L12.5188 19.9863C12.5959 20.4115 12.9312 20.7468 13.3564 20.824L13.5437 20.8408L13.7309 20.824C14.1561 20.7468 14.4914 20.4115 14.5685 19.9863L14.5853 19.7991L14.5844 14.5819L19.8009 14.5835L19.9881 14.5667C20.4133 14.4895 20.7486 14.1543 20.8257 13.7291L20.8426 13.5418L20.8257 13.3546C20.7486 12.9294 20.4133 12.5941 19.9881 12.517L19.8009 12.5002L14.5823 12.4986L14.583 7.29023L14.5662 7.103C14.489 6.67781 14.1538 6.34252 13.7286 6.26535L13.5413 6.24856Z" fill="#00917C"/>
</svg>
