<svg width="60" height="60" viewBox="0 0 60 60" fill="none" xmlns="http://www.w3.org/2000/svg">
<path d="M0 0H60V58C60 59.1046 59.1046 60 58 60H2C0.895432 60 0 59.1046 0 58V0Z" fill="#8A8A8A"/>
<path d="M22.5576 18.6659H27.4653C28.052 18.6659 28.5278 19.1416 28.5278 19.7284C28.5278 20.2663 28.128 20.7108 27.6095 20.7811L27.4653 20.7909H22.5576C20.8706 20.7909 19.4896 22.1015 19.3775 23.7601L19.3701 23.9784V37.4366C19.3701 39.1237 20.6808 40.5047 22.3394 40.6169L22.5576 40.6241H36.017C37.7041 40.6241 39.085 39.3136 39.1971 37.6549L39.2045 37.4366V36.7316C39.2045 36.1446 39.6802 35.6691 40.267 35.6691C40.8049 35.6691 41.2494 36.0687 41.3198 36.5873L41.3295 36.7316V37.4366C41.3295 40.2761 39.102 42.5951 36.2992 42.7418L36.017 42.7491H22.5576C19.7182 42.7491 17.3992 40.5217 17.2525 37.7188L17.2451 37.4366V23.9784C17.2451 21.139 19.4726 18.8199 22.2755 18.6732L22.5576 18.6659H27.4653H22.5576ZM33.5425 22.2357V18.3117C33.5425 17.4277 34.5438 16.9516 35.2241 17.4472L35.3404 17.5449L43.8327 25.6907C44.2291 26.0709 44.2652 26.6815 43.941 27.1036L43.8329 27.2242L35.3405 35.3727C34.7027 35.9847 33.6659 35.5917 33.5525 34.7576L33.5425 34.606V30.7451L33.0559 30.7878C29.6563 31.1424 26.3979 32.6737 23.2602 35.4071C22.5248 36.0477 21.387 35.442 21.508 34.4742C22.4498 26.9382 26.3908 22.7845 33.1183 22.2635L33.5425 22.2357V18.3117V22.2357ZM35.6675 20.8031V23.27C35.6675 23.8568 35.1918 24.3325 34.605 24.3325C29.1177 24.3325 25.7167 26.707 24.2473 31.6385L24.1353 32.0332L24.6343 31.6977C27.8026 29.6268 31.1309 28.5825 34.605 28.5825C35.1429 28.5825 35.5874 28.9822 35.6577 29.5009L35.6675 29.645V32.1141L41.5625 26.4576L35.6675 20.8031Z" fill="white"/>
</svg>
