<svg width="56" height="56" viewBox="0 0 56 56" fill="none" xmlns="http://www.w3.org/2000/svg">
<path d="M24.5967 20.0843L27.1643 14.8819C27.7446 13.706 29.4216 13.706 30.0019 14.8819L32.5695 20.0843L38.3107 20.9186C39.6085 21.1072 40.1265 22.702 39.1875 23.6173L35.033 27.6668L36.014 33.3848C36.2356 34.6773 34.8788 35.6631 33.7182 35.0527L28.583 32.353L23.448 35.0527C22.2873 35.6631 20.9306 34.6773 21.1523 33.3848L22.133 27.6668L17.9786 23.6173C17.0396 22.702 17.5578 21.1072 18.8555 20.9186L24.5967 20.0843ZM27.0663 22.2307C26.8358 22.6977 26.3904 23.0214 25.8749 23.0963L22.4832 23.589L24.9374 25.9814C25.3103 26.3449 25.4806 26.8688 25.3924 27.3819L24.813 30.7601L27.8468 29.165C28.3077 28.9228 28.8583 28.9228 29.3194 29.165L32.353 30.7601L31.7736 27.3819C31.6856 26.8688 31.8557 26.3449 32.2286 25.9814L34.683 23.589L31.2913 23.0963C30.7759 23.0214 30.3304 22.6977 30.0999 22.2307L28.583 19.1573L27.0663 22.2307ZM15.1663 4.66663C11.9447 4.66663 9.33301 7.2783 9.33301 10.5V45.5C9.33301 48.7216 11.9447 51.3333 15.1663 51.3333H46.083C47.0495 51.3333 47.833 50.5498 47.833 49.5833C47.833 48.6168 47.0495 47.8333 46.083 47.8333H15.1663C13.8777 47.8333 12.833 46.7887 12.833 45.5H46.083C47.0495 45.5 47.833 44.7164 47.833 43.75V10.5C47.833 7.2783 45.2213 4.66663 41.9997 4.66663H15.1663ZM44.333 42H12.833V10.5C12.833 9.21131 13.8777 8.16663 15.1663 8.16663H41.9997C43.2884 8.16663 44.333 9.21131 44.333 10.5V42Z" fill="white"/>
</svg>
