<svg width="60" height="60" viewBox="0 0 60 60" fill="none" xmlns="http://www.w3.org/2000/svg">
<path d="M6.25 10.625C6.25 9.58948 7.08947 8.75 8.125 8.75H9.52065C11.8968 8.75 13.3196 10.3475 14.1331 11.8325C14.6754 12.8223 15.0677 13.9705 15.3745 15.0099C15.4576 15.0034 15.5418 15 15.627 15H46.8702C48.9457 15 50.4445 16.9861 49.8755 18.982L45.306 35.0047C44.464 37.958 41.7655 39.9945 38.6947 39.9945H23.8244C20.7282 39.9945 18.014 37.9248 17.1946 34.939L15.2933 28.0112L12.1468 17.3895L12.1417 17.3708C11.7525 15.9513 11.3872 14.6251 10.8443 13.6343C10.3171 12.672 9.89692 12.5 9.52065 12.5H8.125C7.08947 12.5 6.25 11.6605 6.25 10.625ZM18.9321 27.1007L20.8108 33.9465C21.1833 35.3037 22.417 36.2445 23.8244 36.2445H38.6947C40.0905 36.2445 41.317 35.3188 41.7 33.9765L46.042 18.75H16.4637L18.8976 26.967C18.9108 27.0115 18.9223 27.056 18.9321 27.1007ZM27.5 47.5C27.5 50.2615 25.2615 52.5 22.5 52.5C19.7386 52.5 17.5 50.2615 17.5 47.5C17.5 44.7385 19.7386 42.5 22.5 42.5C25.2615 42.5 27.5 44.7385 27.5 47.5ZM23.75 47.5C23.75 46.8097 23.1903 46.25 22.5 46.25C21.8096 46.25 21.25 46.8097 21.25 47.5C21.25 48.1903 21.8096 48.75 22.5 48.75C23.1903 48.75 23.75 48.1903 23.75 47.5ZM45 47.5C45 50.2615 42.7615 52.5 40 52.5C37.2385 52.5 35 50.2615 35 47.5C35 44.7385 37.2385 42.5 40 42.5C42.7615 42.5 45 44.7385 45 47.5ZM41.25 47.5C41.25 46.8097 40.6902 46.25 40 46.25C39.3097 46.25 38.75 46.8097 38.75 47.5C38.75 48.1903 39.3097 48.75 40 48.75C40.6902 48.75 41.25 48.1903 41.25 47.5Z" fill="#B3B3B3"/>
</svg>
