<svg width="22" height="22" viewBox="0 0 22 22" fill="none" xmlns="http://www.w3.org/2000/svg">
<path d="M5.27067 19.25C4.92261 19.25 4.63496 18.9914 4.5894 18.6558L4.58317 18.5625L4.58317 3.4375C4.58317 3.05781 4.89099 2.75 5.27067 2.75C5.61873 2.75 5.90638 3.00868 5.95194 3.34418L5.95817 3.4375L5.95817 18.5625C5.95817 18.9422 5.65035 19.25 5.27067 19.25ZM17.2151 19.0486C16.9711 19.2927 16.5891 19.3149 16.32 19.1152L16.2429 19.0486L8.6804 11.4861C8.43629 11.2421 8.41411 10.8601 8.61385 10.591L8.6804 10.5139L16.2429 2.95139C16.5114 2.6829 16.9467 2.6829 17.2151 2.95139C17.4592 3.19541 17.4814 3.57738 17.2817 3.84652L17.2151 3.92361L10.1388 11L17.2151 18.0764C17.4836 18.3448 17.4836 18.7802 17.2151 19.0486Z" fill="#00917C"/>
</svg>
