<svg width="22" height="22" viewBox="0 0 22 22" fill="none" xmlns="http://www.w3.org/2000/svg">
<path d="M16.7293 2.75C17.0774 2.75 17.365 3.00864 17.4106 3.34421L17.4168 3.4375V18.5625C17.4168 18.9422 17.109 19.25 16.7293 19.25C16.3813 19.25 16.0936 18.9913 16.0481 18.6558L16.0418 18.5625V3.4375C16.0418 3.05781 16.3496 2.75 16.7293 2.75ZM4.78486 2.95136C5.02894 2.70728 5.41088 2.6851 5.68002 2.8848L5.75713 2.95136L13.3196 10.5139C13.5637 10.7579 13.5859 11.1399 13.3862 11.409L13.3196 11.4861L5.75713 19.0486C5.48865 19.3171 5.05334 19.3171 4.78486 19.0486C4.54078 18.8046 4.5186 18.4226 4.71829 18.1535L4.78486 18.0764L11.8612 11L4.78486 3.92364C4.51638 3.65515 4.51638 3.21985 4.78486 2.95136Z" fill="#00917C"/>
</svg>
