<svg width="259" height="367" viewBox="0 0 259 367" fill="none" xmlns="http://www.w3.org/2000/svg">
<g clip-path="url(#clip0_878_134)">
<path fill-rule="evenodd" clip-rule="evenodd" d="M151.797 177.614C151.526 173.813 151.207 165.39 151.101 161.542C151.093 161.252 151.078 160.667 151.078 160.667L156.227 160.545C156.227 160.545 156.243 161.099 156.247 161.377C156.604 174.17 157.603 185.915 158.974 198.582C159.01 198.916 159.045 199.25 159.081 199.584C159.234 200.993 154.112 201.547 153.959 200.133C153.927 199.843 153.896 199.552 153.865 199.262C153.255 193.619 153.192 193.34 152.654 187.737C150.5 188.412 148.487 189.162 146.046 189.162C141.522 189.162 138.252 188.353 135.06 185.028C133.13 183.017 132.788 181.179 133.075 179.785C133.484 177.803 135.555 176.008 138.853 175.423C142.308 174.81 147.163 175.333 150.814 177.1C151.156 177.257 151.483 177.429 151.797 177.614ZM150.575 183.076C150.233 182.73 149.816 182.428 149.368 182.153C147.316 180.901 144.494 180.327 142.025 180.308C140.854 180.3 139.765 180.418 138.892 180.685C138.723 180.736 138.519 180.83 138.354 180.912C138.472 181.085 138.625 181.293 138.782 181.458C140.881 183.641 143.083 184.011 146.054 184.011C147.713 184.014 149.14 183.571 150.575 183.076Z" fill="#0A6C68"/>
<path d="M17.0279 191.275C18.5845 191.275 19.2763 192.052 19.2763 193.694C19.2763 195.421 18.5845 196.199 17.0279 196.199H2.50781C0.778285 196.199 0 195.421 0 193.694V176.899C0 175.172 0.778285 174.394 2.50781 174.394H11.4542V163.168H2.24838C0.648571 163.168 0 162.39 0 160.749C0 159.021 0.648571 158.244 2.24838 158.244H14.2646C16.0806 158.244 16.8589 159.064 16.8589 160.792V176.679C16.8589 178.407 16.0806 179.185 14.3511 179.185H5.40083V191.275H17.0279ZM27.5741 159.524V195.229C27.5741 196.87 26.6661 197.648 24.8933 197.648C23.1206 197.648 22.2126 196.87 22.2126 195.229V177.72H20.5263C18.7535 177.72 17.8888 176.727 17.8888 175.085C17.8888 173.487 18.7535 172.537 20.5263 172.537H22.2126V159.524C22.2126 157.883 23.1638 157.082 24.8933 157.082C26.6229 157.082 27.5741 157.883 27.5741 159.524ZM35.6557 159.524V195.229C35.6557 196.87 34.8342 197.648 33.0182 197.648C31.2022 197.648 30.3374 196.87 30.3374 195.229V159.524C30.3374 157.926 31.2454 157.082 33.0182 157.082C34.7909 157.082 35.6557 157.926 35.6557 159.524Z" fill="#00917C"/>
<path d="M57.3062 180.135L67.9389 191.793C68.8901 192.83 68.8036 193.996 67.3768 195.335C65.9499 196.674 64.7393 196.415 63.7448 195.335L54.539 185.102L45.3332 195.335C44.3388 196.415 43.1281 196.674 41.7012 195.335C40.2744 193.996 40.1879 192.83 41.1391 191.793L51.7718 180.135V159.972C51.7718 158.373 52.723 157.596 54.539 157.596C56.3982 157.596 57.3062 158.373 57.3062 159.972V180.135ZM78.658 159.496V195.229C78.658 196.87 77.75 197.648 75.8908 197.648C74.0315 197.648 73.1235 196.87 73.1235 195.229V159.496C73.1235 157.898 74.0315 157.078 75.8908 157.078C77.75 157.082 78.658 157.902 78.658 159.496Z" fill="#00917C"/>
<path d="M109.84 191.232C111.44 191.232 112.089 192.095 112.089 193.737C112.089 195.335 111.44 196.242 109.84 196.242H87.2347C85.6349 196.242 84.9863 195.335 84.9863 193.737C84.9863 192.095 85.6349 191.232 87.2347 191.232H90.1317V167.444C90.1317 166.019 91.1261 165.198 92.8124 165.198C94.4987 165.198 95.4932 166.019 95.4932 167.444V191.232H101.586V167.444C101.586 166.019 102.58 165.198 104.267 165.198C105.953 165.198 106.991 166.019 106.991 167.444V191.232H109.84ZM87.5806 163.254C85.9808 163.254 85.3322 162.434 85.3322 160.792C85.3322 159.108 85.9808 158.287 87.5806 158.287H109.494C111.094 158.287 111.743 159.108 111.743 160.792C111.743 162.434 111.094 163.254 109.494 163.254H87.5806ZM122.03 159.496V195.229C122.03 196.87 121.122 197.648 119.306 197.648C117.446 197.648 116.538 196.87 116.538 195.229V159.496C116.538 157.898 117.446 157.078 119.306 157.078C121.122 157.082 122.03 157.902 122.03 159.496Z" fill="#00917C"/>
<path d="M198.71 179.444H177.834C176.235 179.444 175.586 178.58 175.586 176.982C175.586 175.341 176.235 174.52 177.834 174.52H180.083V166.706C180.083 165.28 181.077 164.46 182.763 164.46C184.45 164.46 185.444 165.28 185.444 166.706V174.52H190.802V166.706C190.802 165.28 191.753 164.46 193.439 164.46C195.169 164.46 196.163 165.28 196.163 166.706V174.52H198.714H199.104C198.801 174.131 198.628 173.57 198.628 172.835C198.628 171.194 199.493 170.33 201.179 170.33H206.364V167.523H201.175C199.489 167.523 198.624 166.659 198.624 164.974C198.624 164.283 198.797 163.722 199.1 163.29C198.883 163.333 198.624 163.376 198.365 163.376H178.18C176.58 163.376 175.932 162.555 175.932 160.914C175.932 159.229 176.58 158.409 178.18 158.409H198.365C199.964 158.409 200.613 159.229 200.613 160.914C200.613 161.605 200.483 162.167 200.224 162.599C200.526 162.512 200.829 162.469 201.175 162.469H206.36V159.402C206.36 157.804 207.311 157.07 209.127 157.07C210.986 157.07 211.894 157.804 211.894 159.402V178.011C211.894 179.652 211.029 180.343 209.127 180.343C207.268 180.343 206.36 179.652 206.36 178.011V175.376H201.175C200.959 175.376 200.786 175.376 200.57 175.333C200.829 175.721 200.959 176.283 200.959 176.974C200.959 178.58 200.31 179.444 198.71 179.444ZM203.64 181.776C209.213 181.776 212.629 184.627 212.629 189.677C212.629 194.77 209.127 197.663 203.553 197.663H187.649C182.032 197.663 178.617 194.77 178.617 189.677C178.617 184.627 182.032 181.776 187.649 181.776H203.64ZM203.856 192.787C206.277 192.787 207.272 191.361 207.272 189.677C207.272 187.992 206.277 186.653 203.856 186.653H187.433C184.925 186.653 183.974 188.035 183.974 189.677C183.974 191.318 184.925 192.787 187.433 192.787H203.856Z" fill="#00917C"/>
<path d="M222.696 178.666C221.701 179.314 220.534 179.314 219.539 177.759C218.761 176.55 218.545 175.254 219.799 174.477L228.269 168.909V165.755H221.658C220.058 165.755 219.496 164.978 219.496 163.25C219.496 161.566 220.058 160.788 221.658 160.788H228.269V158.801C228.269 157.16 229.048 156.339 230.993 156.339C232.896 156.339 233.717 157.16 233.717 158.801V160.788H240.329C241.929 160.788 242.491 161.566 242.491 163.25C242.491 164.978 241.929 165.755 240.329 165.755H233.717V168.909L242.188 174.477C243.442 175.254 243.226 176.55 242.447 177.759C241.453 179.314 240.286 179.314 239.291 178.666L230.993 173.185L222.696 178.666ZM245.258 181.258C250.832 181.258 254.204 184.325 254.204 189.461C254.204 194.597 250.745 197.663 245.171 197.663H230.219C224.602 197.663 221.229 194.597 221.229 189.461C221.229 184.325 224.602 181.258 230.219 181.258H245.258ZM245.344 192.786C247.939 192.786 248.847 191.145 248.847 189.461C248.847 187.776 247.939 186.135 245.344 186.135H230.132C227.452 186.135 226.587 187.819 226.587 189.461C226.587 191.102 227.452 192.786 230.132 192.786H245.344ZM256.795 165.759C258.351 165.759 259 166.623 259 168.351C259 170.122 258.351 170.986 256.795 170.986H253.292V177.936C253.292 179.577 252.428 180.268 250.525 180.268C248.666 180.268 247.758 179.577 247.758 177.936V159.383C247.758 157.784 248.709 157.05 250.525 157.05C252.384 157.05 253.292 157.784 253.292 159.383V165.759H256.795Z" fill="#00917C"/>
<path d="M33.1794 226.579C33.3799 226.98 33.2855 227.27 32.8571 227.486C32.4247 227.702 32.1024 227.608 31.8862 227.192L29.2644 222.095H25.0271V226.913C25.0271 227.36 24.8109 227.588 24.3038 227.588C23.781 227.588 23.5806 227.357 23.5806 227.019V215.518C23.5806 214.838 23.8596 214.611 24.4886 214.611H29.3273C31.7486 214.611 32.8099 215.95 32.8099 217.642V219.028C32.8099 220.336 32.1771 221.447 30.7738 221.891L33.1794 226.579ZM25.0428 216.001V220.728H29.3273C30.4987 220.728 31.3477 220.206 31.3477 218.667V218.019C31.3477 216.48 30.4987 216.001 29.3273 216.001H25.0428Z" fill="#00917C"/>
<path d="M36.4613 227.412C35.97 227.412 35.7695 227.196 35.7695 226.717V215.322C35.7695 214.831 35.97 214.615 36.4613 214.615H43.8747C44.2914 214.615 44.4918 214.799 44.4918 215.294C44.4918 215.773 44.2914 215.973 43.8747 215.973H37.2003V220.175H43.5367C43.9533 220.175 44.1538 220.359 44.1538 220.838C44.1538 221.345 43.9533 221.53 43.5367 221.53H37.2003V226.057H44.0437C44.4604 226.057 44.6609 226.257 44.6609 226.732C44.6609 227.211 44.4604 227.412 44.0437 227.412H36.4613Z" fill="#00917C"/>
<path d="M55.836 223.548C55.836 223.1 56.0993 222.884 56.6221 222.916C57.0545 222.931 57.3021 223.116 57.3139 223.516V223.748C57.251 226.304 55.0184 227.596 52.1332 227.596C48.6506 227.596 46.7402 225.641 46.7402 222.499V219.543C46.7402 216.37 48.6663 214.461 52.2275 214.461C54.8179 214.461 57.2196 215.663 57.2353 218.372V218.604C57.2353 218.957 57.0977 219.283 56.512 219.283C55.9421 219.283 55.7416 218.946 55.7416 218.604V218.341C55.7259 216.723 53.9846 215.832 52.2747 215.832C50.0381 215.832 48.1907 216.908 48.1907 219.864V222.173C48.1907 225.114 49.9634 226.206 52.2157 226.206C54.0357 226.206 55.7141 225.405 55.8242 223.772L55.836 223.548Z" fill="#00917C"/>
<path d="M59.979 226.932V215.137C59.979 214.658 60.1795 214.458 60.7023 214.458C61.225 214.458 61.4098 214.658 61.4098 215.137V226.932C61.4098 227.38 61.225 227.596 60.7023 227.596C60.1795 227.596 59.979 227.38 59.979 226.932Z" fill="#00917C"/>
<path d="M64.4956 215.526C64.4956 214.846 64.7747 214.619 65.4036 214.619H70.3956C72.817 214.619 73.8783 216.005 73.8783 217.697V218.973C73.8783 220.681 72.813 222.083 70.3956 222.083H65.9421V226.917C65.9421 227.365 65.7259 227.592 65.2189 227.592C64.6961 227.592 64.4956 227.361 64.4956 227.023V215.526ZM65.9578 220.713H70.3956C71.567 220.713 72.416 220.143 72.416 218.604V218.066C72.416 216.527 71.567 216.001 70.3956 216.001H65.9578V220.713Z" fill="#00917C"/>
<path d="M76.9755 227.412C76.4842 227.412 76.2837 227.196 76.2837 226.717V215.322C76.2837 214.831 76.4842 214.615 76.9755 214.615H84.3889C84.8055 214.615 85.006 214.799 85.006 215.294C85.006 215.773 84.8055 215.973 84.3889 215.973H77.7145V220.175H84.0508C84.4675 220.175 84.6679 220.359 84.6679 220.838C84.6679 221.345 84.4675 221.53 84.0508 221.53H77.7145V226.057H84.5579C84.9745 226.057 85.175 226.257 85.175 226.732C85.175 227.211 84.9745 227.412 84.5579 227.412H76.9755Z" fill="#00917C"/>
<path d="M92.8203 215.526C92.8203 214.846 93.0994 214.619 93.7283 214.619H98.7203C101.142 214.619 102.203 216.005 102.203 217.697V218.973C102.203 220.681 101.138 222.083 98.7203 222.083H94.2668V226.917C94.2668 227.365 94.0506 227.592 93.5436 227.592C93.0208 227.592 92.8203 227.361 92.8203 227.023V215.526ZM94.2825 220.713H98.7203C99.8917 220.713 100.741 220.143 100.741 218.604V218.066C100.741 216.527 99.8917 216.001 98.7203 216.001H94.2825V220.713Z" fill="#00917C"/>
<path d="M114.719 215.478L110.065 222.283L110.049 222.299V226.901C110.049 227.349 109.848 227.592 109.326 227.592C108.803 227.592 108.602 227.345 108.602 226.901V222.315C108.602 222.299 108.587 222.299 108.587 222.283L103.917 215.478C103.669 215.125 103.811 214.815 104.133 214.599C104.487 214.383 104.872 214.399 105.073 214.693L109.294 220.882H109.341L113.563 214.693C113.763 214.414 114.149 214.399 114.487 214.615C114.813 214.815 114.966 215.125 114.719 215.478Z" fill="#00917C"/>
<path d="M117.737 227.412C117.246 227.412 117.045 227.196 117.045 226.717V215.322C117.045 214.831 117.246 214.615 117.737 214.615H125.151C125.567 214.615 125.768 214.799 125.768 215.294C125.768 215.773 125.567 215.973 125.151 215.973H118.476V220.175H124.813C125.229 220.175 125.43 220.359 125.43 220.838C125.43 221.345 125.229 221.53 124.813 221.53H118.476V226.057H125.32C125.736 226.057 125.937 226.257 125.937 226.732C125.937 227.211 125.736 227.412 125.32 227.412H117.737Z" fill="#00917C"/>
<path d="M128.016 222.468V219.574C128.016 216.401 130.253 214.461 133.625 214.461C136.986 214.461 139.234 216.401 139.234 219.574V222.468C139.234 225.625 136.998 227.596 133.625 227.596C130.253 227.596 128.016 225.625 128.016 222.468ZM137.788 222.162V219.9C137.788 216.943 135.783 215.836 133.625 215.836C131.467 215.836 129.463 216.943 129.463 219.9V222.162C129.463 225.103 131.467 226.21 133.625 226.21C135.783 226.21 137.788 225.103 137.788 222.162Z" fill="#00917C"/>
<path d="M141.872 226.917V215.153C141.872 214.673 142.179 214.461 142.58 214.461C142.965 214.461 143.15 214.556 143.381 214.893L150.657 225.087H150.689C150.61 223.717 150.567 222.299 150.567 221.27V215.141C150.567 214.677 150.83 214.461 151.274 214.461C151.754 214.461 151.966 214.677 151.966 215.141V226.905C151.966 227.396 151.66 227.596 151.259 227.596C150.889 227.596 150.689 227.459 150.473 227.148L143.165 216.892H143.134C143.256 218.431 143.287 219.727 143.287 220.693V226.913C143.287 227.376 143.04 227.588 142.58 227.588C142.12 227.596 141.872 227.38 141.872 226.917Z" fill="#00917C"/>
<path d="M154.616 219.543C154.616 216.401 156.668 214.461 160.225 214.461C163.275 214.461 165.449 215.938 165.449 218.357V218.541C165.449 218.832 165.296 219.095 164.753 219.095C164.215 219.095 163.983 218.847 163.983 218.541V218.372C163.92 216.711 162.131 215.832 160.221 215.832C158.016 215.832 156.058 216.939 156.058 219.912V222.13C156.058 225.087 157.984 226.21 160.221 226.21C162.532 226.21 164.258 225.162 164.215 222.684V221.961H160.948C160.61 221.961 160.394 221.792 160.394 221.27C160.394 220.748 160.61 220.575 160.948 220.575H165.001C165.465 220.575 165.696 220.744 165.696 221.27V222.872C165.696 225.982 163.507 227.6 160.225 227.6C156.801 227.6 154.616 225.613 154.616 222.503V219.543Z" fill="#00917C"/>
<path d="M177.024 223.548C177.024 223.1 177.288 222.884 177.811 222.916C178.243 222.931 178.491 223.116 178.502 223.516V223.748C178.439 226.304 176.207 227.596 173.322 227.596C169.839 227.596 167.929 225.641 167.929 222.499V219.543C167.929 216.37 169.855 214.461 173.416 214.461C176.006 214.461 178.408 215.663 178.424 218.372V218.604C178.424 218.957 178.286 219.283 177.701 219.283C177.131 219.283 176.93 218.946 176.93 218.604V218.341C176.914 216.723 175.173 215.832 173.463 215.832C171.227 215.832 169.379 216.908 169.379 219.864V222.173C169.379 225.114 171.152 226.206 173.404 226.206C175.224 226.206 176.903 225.405 177.013 223.772L177.024 223.548Z" fill="#00917C"/>
<path d="M191.05 215.137V226.917C191.05 227.364 190.849 227.592 190.311 227.592C189.788 227.592 189.603 227.36 189.603 226.917V221.404H182.575V226.917C182.575 227.364 182.374 227.592 181.852 227.592C181.329 227.592 181.128 227.36 181.128 226.917V215.137C181.128 214.658 181.329 214.458 181.852 214.458C182.374 214.458 182.575 214.658 182.575 215.137V220.033H189.603V215.137C189.603 214.658 189.788 214.458 190.311 214.458C190.849 214.461 191.05 214.662 191.05 215.137Z" fill="#00917C"/>
<path d="M204.41 226.716C204.595 227.148 204.442 227.439 203.931 227.565C203.424 227.671 203.192 227.47 203.007 227.042L201.898 224.38H195.778L194.56 227.305C194.422 227.612 194.096 227.69 193.667 227.506C193.282 227.353 193.113 227.042 193.282 226.63L198.137 214.991C198.29 214.607 198.431 214.469 198.86 214.469C199.308 214.469 199.446 214.607 199.599 214.991L204.41 226.716ZM196.348 223.021H201.34L200.063 219.959C199.693 219.067 199.261 217.988 198.891 216.986H198.844C198.475 217.988 197.995 219.063 197.626 219.959L196.348 223.021Z" fill="#00917C"/>
<path d="M206.658 226.917V215.153C206.658 214.673 206.965 214.461 207.366 214.461C207.751 214.461 207.936 214.556 208.168 214.893L215.443 225.087H215.475C215.396 223.717 215.353 222.299 215.353 221.27V215.141C215.353 214.677 215.616 214.461 216.061 214.461C216.54 214.461 216.752 214.677 216.752 215.141V226.905C216.752 227.396 216.446 227.596 216.045 227.596C215.675 227.596 215.475 227.459 215.259 227.148L207.951 216.892H207.92C208.042 218.431 208.073 219.727 208.073 220.693V226.913C208.073 227.376 207.826 227.588 207.366 227.588C206.906 227.596 206.658 227.38 206.658 226.917Z" fill="#00917C"/>
<path d="M219.402 219.543C219.402 216.401 221.454 214.461 225.011 214.461C228.061 214.461 230.235 215.938 230.235 218.357V218.541C230.235 218.832 230.082 219.095 229.543 219.095C229.005 219.095 228.773 218.847 228.773 218.541V218.372C228.71 216.711 226.921 215.832 225.011 215.832C222.806 215.832 220.848 216.939 220.848 219.912V222.13C220.848 225.087 222.774 226.21 225.011 226.21C227.322 226.21 229.048 225.162 229.005 222.684V221.961H225.738C225.4 221.961 225.184 221.792 225.184 221.27C225.184 220.748 225.4 220.575 225.738 220.575H229.791C230.255 220.575 230.483 220.744 230.483 221.27V222.872C230.483 225.982 228.293 227.6 225.011 227.6C221.587 227.6 219.402 225.613 219.402 222.503V219.543Z" fill="#00917C"/>
<path d="M172.917 164.259C172.929 164.216 172.932 164.173 172.932 164.134C173.255 162.438 172.484 160.737 171.23 159.595C169.646 158.154 167.488 157.447 165.499 156.764C163.55 156.092 161.553 155.538 159.521 155.177C159.411 155.158 159.301 155.146 159.191 155.126C160.232 154.981 161.266 154.792 162.288 154.553C164.029 154.144 165.735 153.599 167.394 152.927C168.872 152.33 170.421 151.58 171.348 150.226C172.233 148.938 172.138 147.3 171.226 146.059C170.287 144.783 168.821 144.163 167.268 144.057C165.578 143.943 163.833 144.383 162.257 144.952C160.633 145.541 159.088 146.346 157.697 147.371C157.453 147.548 157.217 147.736 156.985 147.925C157.559 147.096 158.121 146.26 158.668 145.415C159.65 143.896 160.602 142.353 161.482 140.77C162.229 139.435 162.913 137.951 162.787 136.384C162.673 134.943 161.926 133.624 160.551 133.062C159.202 132.509 157.669 132.752 156.423 133.455C155.063 134.228 154.01 135.461 153.118 136.726C152.284 137.908 151.616 139.196 151.101 140.543C150.606 141.838 150.28 143.193 150.103 144.563C149.981 143.668 149.816 142.777 149.6 141.897C148.939 139.207 147.905 136.392 146.164 134.205C144.604 132.249 142.096 130.918 139.557 131.566C136.703 132.297 135.704 135.371 136.267 138.006C136.911 140.727 138.818 143.056 140.476 145.239C140.767 145.624 141.066 146.001 141.369 146.378C140.299 145.474 139.191 144.618 138.047 143.817C136.585 142.796 135.013 141.827 133.256 141.43C131.75 141.092 130.103 141.163 128.727 141.909C127.352 142.655 126.707 144.006 126.994 145.533C127.261 146.943 128.173 148.16 129.191 149.13C130.532 150.414 132.131 151.411 133.829 152.15C134.289 152.35 134.757 152.531 135.225 152.696C132.882 152.515 130.516 152.652 128.409 153.76C126.986 154.51 125.787 155.743 125.253 157.278C124.714 158.821 125.099 160.455 126.129 161.695C128.539 164.597 132.623 164.098 135.822 163.089C137.135 162.677 138.436 162.19 139.698 161.621C138.656 162.544 137.65 163.525 136.77 164.593C135.72 165.869 134.875 167.33 134.639 168.987C134.435 170.428 134.714 171.889 135.626 173.047C136.51 174.17 137.906 174.846 139.344 174.645C140.826 174.437 142.053 173.409 143.035 172.341C144.112 171.163 145.052 169.851 145.826 168.457C146.801 166.694 147.505 164.793 147.941 162.834C148.055 163.871 148.185 164.907 148.357 165.936C148.747 168.261 149.399 170.64 150.779 172.588C151.978 174.28 153.892 175.977 156.117 175.78C158.165 175.6 159.654 173.786 160.075 171.873C160.637 169.321 159.375 166.8 158.051 164.699C157.449 163.749 156.805 162.826 156.129 161.927C157.379 162.944 158.699 163.875 160.083 164.703C161.565 165.591 163.121 166.403 164.749 166.996C166.219 167.534 167.862 167.845 169.407 167.452C171.022 167.047 172.473 165.909 172.917 164.259Z" fill="#FFB452"/>
<path fill-rule="evenodd" clip-rule="evenodd" d="M153.117 150.328C152.143 149.071 149.674 148.172 148.267 148.329C146.86 148.482 145.582 149.244 144.525 150.186C144.01 150.646 143.538 151.156 143.188 151.749C141.809 154.105 142.795 157.25 144.674 159.233C145.846 160.47 147.461 161.432 149.159 161.311C149.674 161.275 150.177 161.138 150.657 160.957C152.701 160.18 154.399 158.436 154.937 156.316C155.476 154.192 154.576 151.785 153.117 150.328Z" fill="white"/>
<path d="M17.0279 330.671C18.5845 330.671 19.2763 331.448 19.2763 333.09C19.2763 334.817 18.5845 335.595 17.0279 335.595H2.50781C0.778285 335.595 0 334.817 0 333.09V316.295C0 314.568 0.778285 313.79 2.50781 313.79H11.4542V302.564H2.24838C0.648571 302.564 0 301.786 0 300.145C0 298.417 0.648571 297.64 2.24838 297.64H14.2646C16.0806 297.64 16.8589 298.46 16.8589 300.188V316.075C16.8589 317.803 16.0806 318.581 14.3511 318.581H5.40083V330.671H17.0279ZM27.5741 298.92V334.625C27.5741 336.266 26.6661 337.044 24.8933 337.044C23.1206 337.044 22.2126 336.266 22.2126 334.625V317.116H20.5263C18.7535 317.116 17.8888 316.123 17.8888 314.481C17.8888 312.883 18.7535 311.933 20.5263 311.933H22.2126V298.92C22.2126 297.279 23.1638 296.478 24.8933 296.478C26.6229 296.478 27.5741 297.279 27.5741 298.92ZM35.6557 298.92V334.625C35.6557 336.266 34.8342 337.044 33.0182 337.044C31.2022 337.044 30.3374 336.266 30.3374 334.625V298.92C30.3374 297.322 31.2454 296.478 33.0182 296.478C34.7909 296.478 35.6557 297.322 35.6557 298.92Z" fill="#00917C"/>
<path d="M57.3062 319.531L67.9389 331.189C68.8901 332.226 68.8036 333.392 67.3768 334.731C65.9499 336.07 64.7393 335.811 63.7448 334.731L54.539 324.498L45.3332 334.731C44.3388 335.811 43.1281 336.07 41.7012 334.731C40.2744 333.392 40.1879 332.226 41.1391 331.189L51.7718 319.531V299.368C51.7718 297.769 52.723 296.992 54.539 296.992C56.3982 296.992 57.3062 297.769 57.3062 299.368V319.531ZM78.658 298.892V334.625C78.658 336.266 77.75 337.044 75.8908 337.044C74.0315 337.044 73.1235 336.266 73.1235 334.625V298.892C73.1235 297.294 74.0315 296.474 75.8908 296.474C77.75 296.478 78.658 297.298 78.658 298.892Z" fill="#00917C"/>
<path d="M109.84 330.628C111.44 330.628 112.089 331.491 112.089 333.133C112.089 334.731 111.44 335.638 109.84 335.638H87.2347C85.6349 335.638 84.9863 334.731 84.9863 333.133C84.9863 331.491 85.6349 330.628 87.2347 330.628H90.1317V306.84C90.1317 305.415 91.1261 304.594 92.8124 304.594C94.4987 304.594 95.4932 305.415 95.4932 306.84V330.628H101.586V306.84C101.586 305.415 102.58 304.594 104.267 304.594C105.953 304.594 106.991 305.415 106.991 306.84V330.628H109.84ZM87.5806 302.65C85.9808 302.65 85.3322 301.83 85.3322 300.188C85.3322 298.504 85.9808 297.683 87.5806 297.683H109.494C111.094 297.683 111.743 298.504 111.743 300.188C111.743 301.83 111.094 302.65 109.494 302.65H87.5806ZM122.03 298.892V334.625C122.03 336.266 121.122 337.044 119.306 337.044C117.446 337.044 116.538 336.266 116.538 334.625V298.892C116.538 297.294 117.446 296.474 119.306 296.474C121.122 296.478 122.03 297.298 122.03 298.892Z" fill="#00917C"/>
<path d="M198.71 318.84H177.834C176.235 318.84 175.586 317.976 175.586 316.378C175.586 314.736 176.235 313.916 177.834 313.916H180.083V306.102C180.083 304.676 181.077 303.856 182.763 303.856C184.45 303.856 185.444 304.676 185.444 306.102V313.916H190.802V306.102C190.802 304.676 191.753 303.856 193.439 303.856C195.169 303.856 196.163 304.676 196.163 306.102V313.916H198.714H199.104C198.801 313.527 198.628 312.965 198.628 312.231C198.628 310.59 199.493 309.726 201.179 309.726H206.364V306.918H201.175C199.489 306.918 198.624 306.054 198.624 304.37C198.624 303.679 198.797 303.117 199.1 302.685C198.883 302.729 198.624 302.772 198.365 302.772H178.18C176.58 302.772 175.932 301.951 175.932 300.31C175.932 298.625 176.58 297.805 178.18 297.805H198.365C199.964 297.805 200.613 298.625 200.613 300.31C200.613 301.001 200.483 301.562 200.224 301.994C200.526 301.908 200.829 301.865 201.175 301.865H206.36V298.798C206.36 297.2 207.311 296.466 209.127 296.466C210.986 296.466 211.894 297.2 211.894 298.798V317.406C211.894 319.048 211.029 319.739 209.127 319.739C207.268 319.739 206.36 319.048 206.36 317.406V314.772H201.175C200.959 314.772 200.786 314.772 200.57 314.728C200.829 315.117 200.959 315.679 200.959 316.37C200.959 317.976 200.31 318.84 198.71 318.84ZM203.64 321.172C209.213 321.172 212.629 324.023 212.629 329.072C212.629 334.165 209.127 337.059 203.553 337.059H187.649C182.032 337.059 178.617 334.165 178.617 329.072C178.617 324.023 182.032 321.172 187.649 321.172H203.64ZM203.856 332.182C206.277 332.182 207.272 330.757 207.272 329.072C207.272 327.388 206.277 326.049 203.856 326.049H187.433C184.925 326.049 183.974 327.431 183.974 329.072C183.974 330.714 184.925 332.182 187.433 332.182H203.856Z" fill="#00917C"/>
<path d="M222.696 318.062C221.701 318.71 220.534 318.71 219.539 317.155C218.761 315.946 218.545 314.65 219.799 313.873L228.269 308.305V305.151H221.658C220.058 305.151 219.496 304.374 219.496 302.646C219.496 300.962 220.058 300.184 221.658 300.184H228.269V298.197C228.269 296.556 229.048 295.735 230.993 295.735C232.896 295.735 233.717 296.556 233.717 298.197V300.184H240.329C241.929 300.184 242.491 300.962 242.491 302.646C242.491 304.374 241.929 305.151 240.329 305.151H233.717V308.305L242.188 313.873C243.442 314.65 243.226 315.946 242.447 317.155C241.453 318.71 240.286 318.71 239.291 318.062L230.993 312.581L222.696 318.062ZM245.258 320.654C250.832 320.654 254.204 323.721 254.204 328.857C254.204 333.993 250.745 337.059 245.171 337.059H230.219C224.602 337.059 221.229 333.993 221.229 328.857C221.229 323.721 224.602 320.654 230.219 320.654H245.258ZM245.344 332.182C247.939 332.182 248.847 330.541 248.847 328.857C248.847 327.172 247.939 325.531 245.344 325.531H230.132C227.452 325.531 226.587 327.215 226.587 328.857C226.587 330.498 227.452 332.182 230.132 332.182H245.344ZM256.795 305.155C258.351 305.155 259 306.019 259 307.747C259 309.518 258.351 310.382 256.795 310.382H253.292V317.332C253.292 318.973 252.428 319.664 250.525 319.664C248.666 319.664 247.758 318.973 247.758 317.332V298.779C247.758 297.18 248.709 296.446 250.525 296.446C252.384 296.446 253.292 297.18 253.292 298.779V305.155H256.795Z" fill="#00917C"/>
<path d="M33.1794 365.975C33.3799 366.376 33.2855 366.666 32.8571 366.882C32.4247 367.098 32.1024 367.004 31.8862 366.588L29.2644 361.491H25.0271V366.309C25.0271 366.756 24.8109 366.984 24.3038 366.984C23.781 366.984 23.5806 366.752 23.5806 366.415V354.914C23.5806 354.234 23.8596 354.007 24.4886 354.007H29.3273C31.7486 354.007 32.8099 355.346 32.8099 357.038V358.424C32.8099 359.732 32.1771 360.843 30.7738 361.287L33.1794 365.975ZM25.0428 355.397V360.124H29.3273C30.4987 360.124 31.3477 359.602 31.3477 358.063V357.415C31.3477 355.876 30.4987 355.397 29.3273 355.397H25.0428Z" fill="#00917C"/>
<path d="M36.4613 366.807C35.97 366.807 35.7695 366.591 35.7695 366.112V354.717C35.7695 354.226 35.97 354.01 36.4613 354.01H43.8747C44.2914 354.01 44.4918 354.195 44.4918 354.69C44.4918 355.169 44.2914 355.369 43.8747 355.369H37.2003V359.571H43.5367C43.9533 359.571 44.1538 359.755 44.1538 360.234C44.1538 360.741 43.9533 360.925 43.5367 360.925H37.2003V365.453H44.0437C44.4604 365.453 44.6609 365.653 44.6609 366.128C44.6609 366.607 44.4604 366.807 44.0437 366.807H36.4613Z" fill="#00917C"/>
<path d="M55.836 362.944C55.836 362.496 56.0993 362.28 56.6221 362.312C57.0545 362.327 57.3021 362.512 57.3139 362.912V363.144C57.251 365.7 55.0184 366.992 52.1332 366.992C48.6506 366.992 46.7402 365.037 46.7402 361.895V358.939C46.7402 355.766 48.6663 353.857 52.2275 353.857C54.8179 353.857 57.2196 355.059 57.2353 357.768V358C57.2353 358.353 57.0977 358.679 56.512 358.679C55.9421 358.679 55.7416 358.342 55.7416 358V357.737C55.7259 356.119 53.9846 355.228 52.2747 355.228C50.0381 355.228 48.1907 356.304 48.1907 359.26V361.569C48.1907 364.51 49.9634 365.602 52.2157 365.602C54.0357 365.602 55.7141 364.801 55.8242 363.168L55.836 362.944Z" fill="#00917C"/>
<path d="M59.979 366.328V354.533C59.979 354.054 60.1795 353.854 60.7023 353.854C61.225 353.854 61.4098 354.054 61.4098 354.533V366.328C61.4098 366.776 61.225 366.992 60.7023 366.992C60.1795 366.992 59.979 366.776 59.979 366.328Z" fill="#00917C"/>
<path d="M64.4956 354.922C64.4956 354.242 64.7747 354.015 65.4036 354.015H70.3956C72.817 354.015 73.8783 355.401 73.8783 357.093V358.369C73.8783 360.077 72.813 361.479 70.3956 361.479H65.9421V366.313C65.9421 366.761 65.7259 366.988 65.2189 366.988C64.6961 366.988 64.4956 366.757 64.4956 366.419V354.922ZM65.9578 360.109H70.3956C71.567 360.109 72.416 359.539 72.416 358V357.462C72.416 355.923 71.567 355.397 70.3956 355.397H65.9578V360.109Z" fill="#00917C"/>
<path d="M76.9755 366.807C76.4842 366.807 76.2837 366.591 76.2837 366.112V354.717C76.2837 354.226 76.4842 354.01 76.9755 354.01H84.3889C84.8055 354.01 85.006 354.195 85.006 354.69C85.006 355.169 84.8055 355.369 84.3889 355.369H77.7145V359.571H84.0508C84.4675 359.571 84.6679 359.755 84.6679 360.234C84.6679 360.741 84.4675 360.925 84.0508 360.925H77.7145V365.453H84.5579C84.9745 365.453 85.175 365.653 85.175 366.128C85.175 366.607 84.9745 366.807 84.5579 366.807H76.9755Z" fill="#00917C"/>
<path d="M92.8203 354.922C92.8203 354.242 93.0994 354.015 93.7283 354.015H98.7203C101.142 354.015 102.203 355.401 102.203 357.093V358.369C102.203 360.077 101.138 361.479 98.7203 361.479H94.2668V366.313C94.2668 366.761 94.0506 366.988 93.5436 366.988C93.0208 366.988 92.8203 366.757 92.8203 366.419V354.922ZM94.2825 360.109H98.7203C99.8917 360.109 100.741 359.539 100.741 358V357.462C100.741 355.923 99.8917 355.397 98.7203 355.397H94.2825V360.109Z" fill="#00917C"/>
<path d="M114.719 354.874L110.065 361.679L110.049 361.695V366.297C110.049 366.745 109.848 366.988 109.326 366.988C108.803 366.988 108.602 366.741 108.602 366.297V361.711C108.602 361.695 108.587 361.695 108.587 361.679L103.917 354.874C103.669 354.521 103.811 354.211 104.133 353.995C104.487 353.779 104.872 353.795 105.073 354.089L109.294 360.278H109.341L113.563 354.089C113.763 353.81 114.149 353.795 114.487 354.011C114.813 354.211 114.966 354.521 114.719 354.874Z" fill="#00917C"/>
<path d="M117.737 366.807C117.246 366.807 117.045 366.591 117.045 366.112V354.717C117.045 354.226 117.246 354.01 117.737 354.01H125.151C125.567 354.01 125.768 354.195 125.768 354.69C125.768 355.169 125.567 355.369 125.151 355.369H118.476V359.571H124.813C125.229 359.571 125.43 359.755 125.43 360.234C125.43 360.741 125.229 360.925 124.813 360.925H118.476V365.453H125.32C125.736 365.453 125.937 365.653 125.937 366.128C125.937 366.607 125.736 366.807 125.32 366.807H117.737Z" fill="#00917C"/>
<path d="M128.016 361.864V358.97C128.016 355.797 130.253 353.857 133.625 353.857C136.986 353.857 139.234 355.797 139.234 358.97V361.864C139.234 365.021 136.998 366.992 133.625 366.992C130.253 366.992 128.016 365.021 128.016 361.864ZM137.788 361.558V359.296C137.788 356.339 135.783 355.232 133.625 355.232C131.467 355.232 129.463 356.339 129.463 359.296V361.558C129.463 364.499 131.467 365.606 133.625 365.606C135.783 365.606 137.788 364.499 137.788 361.558Z" fill="#00917C"/>
<path d="M141.872 366.313V354.549C141.872 354.069 142.179 353.857 142.58 353.857C142.965 353.857 143.15 353.952 143.381 354.289L150.657 364.483H150.689C150.61 363.113 150.567 361.695 150.567 360.666V354.537C150.567 354.073 150.83 353.857 151.274 353.857C151.754 353.857 151.966 354.073 151.966 354.537V366.301C151.966 366.792 151.66 366.992 151.259 366.992C150.889 366.992 150.689 366.855 150.473 366.544L143.165 356.288H143.134C143.256 357.827 143.287 359.123 143.287 360.089V366.309C143.287 366.772 143.04 366.984 142.58 366.984C142.12 366.992 141.872 366.776 141.872 366.313Z" fill="#00917C"/>
<path d="M154.616 358.939C154.616 355.797 156.668 353.857 160.225 353.857C163.275 353.857 165.449 355.334 165.449 357.753V357.937C165.449 358.228 165.296 358.491 164.753 358.491C164.215 358.491 163.983 358.243 163.983 357.937V357.768C163.92 356.107 162.131 355.228 160.221 355.228C158.016 355.228 156.058 356.335 156.058 359.308V361.526C156.058 364.483 157.984 365.606 160.221 365.606C162.532 365.606 164.258 364.558 164.215 362.08V361.357H160.948C160.61 361.357 160.394 361.188 160.394 360.666C160.394 360.144 160.61 359.971 160.948 359.971H165.001C165.465 359.971 165.696 360.14 165.696 360.666V362.268C165.696 365.378 163.507 366.996 160.225 366.996C156.801 366.996 154.616 365.009 154.616 361.899V358.939Z" fill="#00917C"/>
<path d="M177.024 362.944C177.024 362.496 177.288 362.28 177.811 362.312C178.243 362.327 178.491 362.512 178.502 362.912V363.144C178.439 365.7 176.207 366.992 173.322 366.992C169.839 366.992 167.929 365.037 167.929 361.895V358.939C167.929 355.766 169.855 353.857 173.416 353.857C176.006 353.857 178.408 355.059 178.424 357.768V358C178.424 358.353 178.286 358.679 177.701 358.679C177.131 358.679 176.93 358.342 176.93 358V357.737C176.914 356.119 175.173 355.228 173.463 355.228C171.227 355.228 169.379 356.304 169.379 359.26V361.569C169.379 364.51 171.152 365.602 173.404 365.602C175.224 365.602 176.903 364.801 177.013 363.168L177.024 362.944Z" fill="#00917C"/>
<path d="M191.05 354.533V366.313C191.05 366.76 190.849 366.988 190.311 366.988C189.788 366.988 189.603 366.756 189.603 366.313V360.8H182.575V366.313C182.575 366.76 182.374 366.988 181.852 366.988C181.329 366.988 181.128 366.756 181.128 366.313V354.533C181.128 354.054 181.329 353.854 181.852 353.854C182.374 353.854 182.575 354.054 182.575 354.533V359.429H189.603V354.533C189.603 354.054 189.788 353.854 190.311 353.854C190.849 353.857 191.05 354.058 191.05 354.533Z" fill="#00917C"/>
<path d="M204.41 366.112C204.595 366.544 204.442 366.835 203.931 366.961C203.424 367.067 203.192 366.866 203.007 366.438L201.898 363.776H195.778L194.56 366.701C194.422 367.008 194.096 367.086 193.667 366.902C193.282 366.749 193.113 366.438 193.282 366.026L198.137 354.387C198.29 354.003 198.431 353.865 198.86 353.865C199.308 353.865 199.446 354.003 199.599 354.387L204.41 366.112ZM196.348 362.417H201.34L200.063 359.355C199.693 358.463 199.261 357.383 198.891 356.382H198.844C198.475 357.383 197.995 358.459 197.626 359.355L196.348 362.417Z" fill="#00917C"/>
<path d="M206.658 366.313V354.549C206.658 354.069 206.965 353.857 207.366 353.857C207.751 353.857 207.936 353.952 208.168 354.289L215.443 364.483H215.475C215.396 363.113 215.353 361.695 215.353 360.666V354.537C215.353 354.073 215.616 353.857 216.061 353.857C216.54 353.857 216.752 354.073 216.752 354.537V366.301C216.752 366.792 216.446 366.992 216.045 366.992C215.675 366.992 215.475 366.855 215.259 366.544L207.951 356.288H207.92C208.042 357.827 208.073 359.123 208.073 360.089V366.309C208.073 366.772 207.826 366.984 207.366 366.984C206.906 366.992 206.658 366.776 206.658 366.313Z" fill="#00917C"/>
<path d="M219.402 358.939C219.402 355.797 221.454 353.857 225.011 353.857C228.061 353.857 230.235 355.334 230.235 357.753V357.937C230.235 358.228 230.082 358.491 229.543 358.491C229.005 358.491 228.773 358.243 228.773 357.937V357.768C228.71 356.107 226.921 355.228 225.011 355.228C222.806 355.228 220.848 356.335 220.848 359.308V361.526C220.848 364.483 222.774 365.606 225.011 365.606C227.322 365.606 229.048 364.558 229.005 362.08V361.357H225.738C225.4 361.357 225.184 361.188 225.184 360.666C225.184 360.144 225.4 359.971 225.738 359.971H229.791C230.255 359.971 230.483 360.14 230.483 360.666V362.268C230.483 365.378 228.293 366.996 225.011 366.996C221.587 366.996 219.402 365.009 219.402 361.899V358.939Z" fill="#00917C"/>
<path d="M171.769 319.802C171.439 318.985 170.889 318.353 170.13 317.921C169.529 317.575 168.9 317.336 168.259 317.21C167.937 317.147 167.587 317.128 167.186 317.159C166.53 317.21 165.909 317.363 165.354 317.548C165.394 316.712 165.362 315.946 165.26 315.227C165.016 313.511 163.857 312.278 162.159 311.933C161.608 311.819 161.086 311.831 160.575 311.839C160.311 311.846 160.036 311.823 159.796 311.799C159.647 311.787 159.498 311.768 159.348 311.748C159.112 311.717 158.873 311.689 158.617 311.674C157.591 311.623 156.565 311.583 155.539 311.544L154.651 311.509C153.11 311.446 151.573 311.383 150.032 311.324C149.718 311.312 149.403 311.297 149.093 311.285C147.607 311.218 146.074 311.151 144.541 311.253C144.101 311.285 143.665 311.316 143.224 311.348C142.619 311.395 142.01 311.438 141.404 311.477C141.066 311.497 140.728 311.513 140.39 311.524C140.009 311.54 139.628 311.552 139.25 311.579C137.419 311.705 135.607 311.897 133.865 312.153C132.655 312.329 131.597 312.64 130.63 313.103C129.353 313.712 128.504 314.768 128.107 316.244C127.91 316.967 127.891 317.685 127.887 318.424C127.875 320.312 128.138 322.205 128.673 324.054C129.196 325.868 129.907 327.741 130.976 330.133C131.617 331.562 132.305 332.787 133.087 333.875C134.125 335.32 135.316 336.612 136.625 337.715C137.485 338.442 138.425 338.956 139.494 339.294L139.793 339.388C141.357 339.883 142.977 340.393 144.694 340.554C144.962 340.578 145.229 340.609 145.496 340.64C145.984 340.695 146.491 340.754 147.002 340.778C147.387 340.794 147.772 340.805 148.165 340.805C149.05 340.805 149.966 340.762 150.936 340.672C151.699 340.601 152.438 340.511 153.142 340.405C154.392 340.216 155.563 339.702 156.62 338.881C157.281 338.371 157.807 337.766 158.318 337.185C158.452 337.032 158.59 336.875 158.727 336.726C158.896 336.537 159.053 336.333 159.191 336.113L159.376 335.819C159.84 335.076 160.323 334.307 160.724 333.482C160.846 333.235 160.964 332.987 161.082 332.736C161.215 332.752 161.345 332.764 161.475 332.771C162.151 332.811 162.792 332.689 163.385 332.556C164.336 332.34 165.209 331.959 165.948 331.617C167.1 331.087 167.917 330.565 168.605 329.917C169.041 329.505 169.478 329.092 169.906 328.668C170.7 327.887 171.282 326.988 171.64 325.994C171.805 325.531 171.954 325.063 172.107 324.596L172.194 324.329C172.249 324.16 172.288 323.98 172.308 323.791C172.457 322.405 172.28 321.066 171.769 319.802ZM168.035 322.476C168.063 323.143 167.941 323.764 167.674 324.317C167.422 324.844 167.072 325.338 166.608 325.837C166.05 326.434 165.425 326.999 164.745 327.518C164.266 327.879 163.727 328.13 163.098 328.283C163.008 328.307 162.913 328.327 162.823 328.35C162.858 328.256 162.894 328.162 162.929 328.067C163.33 327.003 163.747 325.9 164.14 324.804C164.494 323.827 164.722 322.825 164.891 321.997C165.5 321.742 166.196 321.522 166.931 321.581C167.06 321.592 167.194 321.604 167.308 321.628C167.752 321.73 168.015 322.036 168.035 322.476Z" fill="#EA6E8E"/>
<path d="M145.362 280.304C145.685 279.271 145.512 278.321 144.887 277.696C144.36 277.17 143.684 276.946 142.933 277.056C142.257 277.155 141.53 277.559 140.893 278.199C140.083 279.008 139.451 280.119 139.242 281.097C139.132 281.619 139.136 282.13 139.254 282.581C139.246 282.636 139.242 282.695 139.242 282.754C139.242 283.849 139.875 284.321 140.252 284.505C140.477 284.615 140.728 284.666 140.995 284.666C141.479 284.666 142.006 284.489 142.485 284.156C143.519 283.433 144.922 281.713 145.362 280.304Z" fill="#6CD4DD"/>
<path d="M132.253 301.449C131.758 301.472 131.31 301.735 131.051 302.147C130.803 302.316 130.567 302.536 130.347 302.807C130.3 302.866 130.253 302.925 130.206 302.992C130.005 303.212 129.816 303.443 129.639 303.683C129.207 304.268 128.885 304.873 128.779 305.301C128.7 305.611 128.692 306.098 128.857 306.447C129.042 306.836 129.353 307.115 129.761 307.248C130.099 307.362 130.43 307.417 130.756 307.417C131.55 307.417 132.289 307.087 132.874 306.451C132.945 306.412 133.016 306.369 133.087 306.322C133.782 305.878 134.69 305.049 134.97 304.189C134.997 304.103 135.021 304.017 135.036 303.93C135.429 303.392 135.426 302.646 134.985 302.108C134.305 301.272 133.319 301.036 132.253 301.449Z" fill="#6CD4DD"/>
<path d="M139.923 291C140.037 290.43 139.742 290.053 139.624 289.928C139.168 289.441 138.374 289.394 137.757 289.618C137.517 289.602 137.281 289.629 137.053 289.692C136.644 289.806 136.094 290.171 135.575 290.662C135.013 291.196 134.254 292.099 133.975 292.885C133.736 293.56 133.795 294.239 134.144 294.754C134.439 295.19 134.891 295.468 135.449 295.559C135.556 295.574 135.67 295.586 135.791 295.586C136.106 295.586 136.464 295.527 136.837 295.413C137.678 295.154 138.834 294.542 139.518 293.76C140.245 292.932 140.418 291.97 139.989 291.114C139.97 291.078 139.946 291.039 139.923 291Z" fill="#6CD4DD"/>
<path d="M151.683 280.971C151.385 281.662 151.487 282.216 151.628 282.565C151.66 282.64 151.695 282.711 151.734 282.777C151.833 282.993 151.97 283.186 152.143 283.355C152.481 283.673 152.921 283.849 153.421 283.865C153.44 283.865 153.46 283.865 153.48 283.865C154.093 283.865 154.942 283.575 155.826 283.06C156.99 282.381 158.173 281.383 158.774 280.579C159.399 279.742 159.439 279.043 159.364 278.603C159.277 278.105 158.991 277.669 158.558 277.382C158.051 277.045 157.324 276.974 156.569 277.194C155.657 277.457 154.344 278.211 153.303 279.071C152.839 279.448 152.017 280.198 151.683 280.971Z" fill="#6CD4DD"/>
<path d="M129.176 288.852C129.75 288.714 130.795 287.957 131.224 287.58C131.405 287.423 131.566 287.254 131.707 287.081C131.904 286.928 132.073 286.79 132.214 286.657C132.434 286.453 132.733 286.127 132.902 285.762C133.228 285.055 133.107 284.32 132.58 283.79C132.313 283.523 131.849 283.296 131.283 283.347C130.622 283.036 129.667 283.036 128.657 283.841C128.291 284.132 127.513 284.913 127.285 285.479C127.093 285.95 127.112 286.437 127.317 286.845C127.277 286.951 127.254 287.05 127.242 287.148C127.171 287.674 127.348 288.157 127.737 288.506C128.028 288.765 128.394 288.903 128.779 288.903C128.909 288.899 129.042 288.883 129.176 288.852Z" fill="#6CD4DD"/>
<path d="M149.906 274.539C150.162 274.539 150.421 274.488 150.673 274.39C151.534 274.048 152.245 273.271 152.583 272.317C152.685 272.022 152.752 271.72 152.772 271.421C152.984 270.966 152.98 270.463 152.756 270.016C152.615 269.741 152.171 269.097 151.074 269.097C150.822 269.097 150.583 269.16 150.362 269.274C149.961 269.399 149.576 269.651 149.211 270.016L148.888 270.338C148.334 270.891 148.252 271.429 148.303 271.822C148.295 271.834 148.291 271.842 148.287 271.85C147.882 272.658 148.028 273.514 148.664 274.084C149.014 274.382 149.45 274.539 149.906 274.539Z" fill="#6CD4DD"/>
<path d="M153.963 305.442C153.857 305.438 153.743 305.446 153.633 305.465C153.523 305.446 153.409 305.438 153.295 305.446C152.717 305.473 152.241 305.705 151.935 306.102C151.825 306.184 151.723 306.274 151.62 306.376C151.231 306.765 151.094 307.319 151.231 307.825C151.2 307.924 151.176 308.033 151.168 308.136C151.133 308.536 151.239 308.913 151.475 309.223C151.738 309.577 152.182 309.832 152.721 309.832C153.035 309.832 153.385 309.746 153.751 309.537C154.093 309.341 154.372 309.098 154.576 308.815C155.001 308.564 155.292 308.159 155.425 307.637C155.638 306.797 155.327 306.259 155.127 306.015C154.828 305.658 154.427 305.462 153.963 305.442Z" fill="#6CD4DD"/>
<path d="M169.171 297.357C168.896 297.196 168.153 296.89 167.143 297.498L166.341 297.977C165.602 298.421 165.15 299.085 165.075 299.847C165.012 300.459 165.205 301.068 165.578 301.476C165.586 301.708 165.645 301.928 165.751 302.128C165.991 302.583 166.404 302.87 166.915 302.933C166.982 302.941 167.045 302.945 167.111 302.945C167.316 302.945 167.516 302.905 167.709 302.823C167.945 302.725 168.216 302.528 168.495 302.25C168.794 301.951 169.273 301.166 169.588 300.455C169.721 300.157 170.024 299.403 170.004 298.81C169.981 298.182 169.678 297.656 169.171 297.357Z" fill="#6CD4DD"/>
<path d="M165.645 289.048C166.49 288.942 167.532 288.557 168.302 288.07C168.884 287.701 169.332 287.265 169.599 286.806C169.89 286.3 169.989 285.75 169.882 285.212C169.769 284.639 169.489 284.187 169.057 283.873C168.715 283.626 168.302 283.496 167.85 283.492C167.787 283.484 167.725 283.48 167.658 283.48C167.32 283.48 166.883 283.602 166.431 283.826C166.364 283.861 166.294 283.896 166.219 283.936C166.038 283.983 165.857 284.05 165.681 284.136C164.977 284.478 164.387 285.102 164.085 285.463C163.865 285.675 163.585 285.985 163.416 286.303C163.259 286.602 163.181 286.928 163.196 287.242C163.2 287.348 163.216 287.454 163.243 287.556C163.255 287.666 163.271 287.768 163.299 287.862C163.444 288.381 163.829 288.789 164.324 288.958C164.568 289.04 164.855 289.08 165.162 289.08C165.323 289.08 165.48 289.068 165.645 289.048Z" fill="#6CD4DD"/>
<path d="M151.935 289.417C151.778 288.946 151.514 288.577 151.149 288.318C150.936 288.055 150.634 287.866 150.304 287.792C149.549 287.627 148.979 287.643 148.456 287.851C148.142 287.976 147.855 288.173 147.591 288.451C147.21 288.675 146.487 289.158 145.988 289.818C145.233 290.819 145.162 291.938 145.791 292.881C146.11 293.356 146.621 293.631 147.238 293.658C147.265 293.658 147.289 293.658 147.316 293.658C147.819 293.658 148.492 293.466 149.183 293.128C149.938 292.755 151.011 292.056 151.561 291.31C152.002 290.713 152.139 290.022 151.935 289.417Z" fill="#6CD4DD"/>
<path d="M159.38 294.706C158.967 294.502 158.44 294.455 157.89 294.577C157.214 294.726 156.29 295.174 155.488 295.735C155.445 295.763 155.406 295.794 155.362 295.826C154.781 296.136 154.136 296.689 153.696 297.251C153.48 297.53 153.311 297.816 153.22 298.056C153.118 298.331 153.087 298.621 153.122 298.888C153.126 298.912 153.13 298.932 153.134 298.955C153.134 299.289 153.248 299.615 153.456 299.878C153.7 300.384 154.144 300.726 154.726 300.848C154.859 300.875 154.997 300.891 155.142 300.891C155.398 300.891 155.673 300.848 155.944 300.761C156.333 300.64 156.777 300.42 157.237 300.121C158.145 299.532 159.329 298.472 159.788 297.526C159.887 297.326 159.954 297.125 159.997 296.929C160.032 296.854 160.067 296.78 160.091 296.721C160.178 296.505 160.221 296.269 160.221 296.069C160.217 295.464 159.91 294.97 159.38 294.706Z" fill="#6CD4DD"/>
<path d="M146.098 300.263C145.929 300.019 145.701 299.823 145.414 299.682C144.93 299.438 144.368 299.418 143.826 299.615C143.393 299.776 142.941 300.098 142.556 300.53C142.053 301.091 141.656 301.822 141.503 302.477C141.334 303.196 141.436 303.879 141.786 304.405C142.076 304.841 142.462 305.128 142.929 305.257C143.098 305.305 143.271 305.328 143.448 305.328C143.708 305.328 143.967 305.277 144.219 305.179C144.266 305.171 144.313 305.163 144.36 305.151C145.15 304.99 145.968 304.507 146.495 303.895C146.974 303.333 147.226 302.682 147.226 302.002C147.226 301.574 147.104 301.189 146.864 300.86C146.668 300.596 146.404 300.392 146.098 300.263Z" fill="#6CD4DD"/>
<g clip-path="url(#clip1_878_134)">
<path d="M40.2095 53.7819C41.782 53.7819 42.4808 54.5784 42.4808 56.2599C42.4808 58.0299 41.782 58.8264 40.2095 58.8264H25.5373C23.7901 58.8264 23.0039 58.0299 23.0039 56.2599V39.0548C23.0039 37.2848 23.7901 36.4883 25.5373 36.4883H34.5749V24.9874H25.2752C23.6591 24.9874 23.0039 24.1909 23.0039 22.5094C23.0039 20.7394 23.6591 19.9429 25.2752 19.9429H37.4141C39.2486 19.9429 40.0348 20.7837 40.0348 22.5537V38.8295C40.0348 40.5995 39.2486 41.396 37.5014 41.396H28.4638V53.7819H40.2095ZM50.8633 21.2543V57.8328C50.8633 59.5142 49.946 60.3107 48.1551 60.3107C46.3643 60.3107 45.447 59.5142 45.447 57.8328V39.8955H43.7436C41.9527 39.8955 41.0791 38.8778 41.0791 37.1963C41.0791 35.5591 41.9527 34.5856 43.7436 34.5856H45.447V21.2543C45.447 19.5728 46.408 18.7522 48.1551 18.7522C49.9023 18.7522 50.8633 19.5769 50.8633 21.2543ZM59.0273 21.2543V57.8328C59.0273 59.5142 58.1974 60.3107 56.3629 60.3107C54.5283 60.3107 53.6547 59.5142 53.6547 57.8328V21.2543C53.6547 19.6171 54.572 18.7522 56.3629 18.7522C58.1537 18.7522 59.0273 19.6211 59.0273 21.2543Z" fill="#00917C"/>
<path d="M80.8985 42.3735L91.6396 54.3169C92.6005 55.3789 92.5131 56.5737 91.0717 57.9454C89.6303 59.3171 88.4073 59.0516 87.4027 57.9454L78.103 47.4622L68.8033 57.9454C67.7987 59.0516 66.5757 59.3171 65.1343 57.9454C63.6929 56.5737 63.6055 55.3789 64.5664 54.3169L75.3075 42.3735V21.7169C75.3075 20.0797 76.2685 19.2832 78.103 19.2832C79.9812 19.2832 80.8985 20.0797 80.8985 21.7169V42.3735ZM102.468 21.2302V57.8368C102.468 59.5183 101.551 60.3148 99.6726 60.3148C97.7943 60.3148 96.8771 59.5183 96.8771 57.8368V21.2302C96.8771 19.5929 97.7943 18.7522 99.6726 18.7522C101.551 18.7522 102.468 19.5929 102.468 21.2302Z" fill="#00917C"/>
<path d="M133.965 53.7376C135.581 53.7376 136.236 54.6226 136.236 56.3041C136.236 57.9414 135.581 58.8706 133.965 58.8706H111.129C109.513 58.8706 108.857 57.9414 108.857 56.3041C108.857 54.6226 109.513 53.7376 111.129 53.7376H114.055V29.3681C114.055 27.9079 115.06 27.0671 116.763 27.0671C118.467 27.0671 119.471 27.9079 119.471 29.3681V53.7376H125.626V29.3681C125.626 27.9079 126.631 27.0671 128.334 27.0671C130.038 27.0671 131.086 27.9079 131.086 29.3681V53.7376H133.965ZM111.482 25.0759C109.866 25.0759 109.211 24.2351 109.211 22.5537C109.211 20.8279 109.866 19.9872 111.482 19.9872H133.62C135.236 19.9872 135.891 20.8279 135.891 22.5537C135.891 24.2351 135.236 25.0759 133.62 25.0759H111.482ZM146.279 21.2302V57.8368C146.279 59.5183 145.361 60.3148 143.527 60.3148C141.649 60.3148 140.731 59.5183 140.731 57.8368V21.2302C140.731 19.5929 141.649 18.7522 143.527 18.7522C145.361 18.7522 146.279 19.5929 146.279 21.2302Z" fill="#00917C"/>
<path d="M176.095 41.6655H155.006C153.39 41.6655 152.735 40.7805 152.735 39.1433C152.735 37.4618 153.39 36.621 155.006 36.621H157.277V28.6159C157.277 27.1556 158.282 26.3149 159.986 26.3149C161.689 26.3149 162.694 27.1556 162.694 28.6159V36.621H168.106V28.6159C168.106 27.1556 169.067 26.3149 170.77 26.3149C172.518 26.3149 173.522 27.1556 173.522 28.6159V36.621H176.099H176.492C176.187 36.2228 176.012 35.6476 176.012 34.8953C176.012 33.2138 176.885 32.3288 178.589 32.3288H183.826V29.4526H178.589C176.885 29.4526 176.012 28.5676 176.012 26.8419C176.012 26.1339 176.187 25.5586 176.492 25.1161C176.274 25.1604 176.012 25.2046 175.75 25.2046H155.36C153.743 25.2046 153.088 24.3639 153.088 22.6824C153.088 20.9566 153.743 20.1159 155.36 20.1159H175.75C177.366 20.1159 178.021 20.9566 178.021 22.6824C178.021 23.3904 177.89 23.9656 177.628 24.4081C177.934 24.3196 178.24 24.2754 178.589 24.2754H183.826V21.1417C183.826 19.5044 184.787 18.7522 186.622 18.7522C188.5 18.7522 189.417 19.5044 189.417 21.1417V40.2053C189.417 41.8868 188.544 42.5948 186.622 42.5948C184.744 42.5948 183.826 41.8868 183.826 40.2053V37.506H178.589C178.371 37.506 178.196 37.506 177.977 37.4618C178.24 37.86 178.371 38.4353 178.371 39.1433C178.367 40.7805 177.711 41.6655 176.095 41.6655ZM181.071 44.051C186.701 44.051 190.152 46.9715 190.152 52.1447C190.152 57.3621 186.614 60.3268 180.983 60.3268H164.917C159.243 60.3268 155.792 57.3621 155.792 52.1447C155.792 46.9715 159.243 44.051 164.917 44.051H181.071ZM181.289 55.3306C183.735 55.3306 184.74 53.8704 184.74 52.1447C184.74 50.4189 183.735 49.0472 181.289 49.0472H164.699C162.166 49.0472 161.205 50.4632 161.205 52.1447C161.205 53.8261 162.166 55.3306 164.699 55.3306H181.289Z" fill="#00917C"/>
<path d="M200.326 40.8691C199.321 41.5328 198.142 41.5328 197.137 39.9398C196.351 38.7008 196.132 37.3733 197.399 36.5768L205.956 30.8727V27.6424H199.277C197.661 27.6424 197.093 26.8459 197.093 25.0759C197.093 23.3502 197.661 22.5537 199.277 22.5537H205.956V20.5222C205.956 18.8407 206.742 18 208.708 18C210.63 18 211.46 18.8407 211.46 20.5222V22.5577H218.139C219.755 22.5577 220.323 23.3542 220.323 25.08C220.323 26.8499 219.755 27.6464 218.139 27.6464H211.456V30.8727L220.013 36.5768C221.28 37.3733 221.061 38.7008 220.275 39.9398C219.27 41.5328 218.091 41.5328 217.086 40.8691L208.704 35.2534L200.326 40.8691ZM223.114 43.52C228.745 43.52 232.152 46.6618 232.152 51.9235C232.152 57.1852 228.657 60.3269 223.027 60.3269H207.922C202.247 60.3269 198.84 57.1852 198.84 51.9235C198.84 46.6618 202.247 43.52 207.922 43.52H223.114ZM223.201 55.3307C225.822 55.3307 226.739 53.6492 226.739 51.9235C226.739 50.1977 225.822 48.5162 223.201 48.5162H207.834C205.126 48.5162 204.253 50.242 204.253 51.9235C204.253 53.6049 205.126 55.3307 207.834 55.3307H223.201ZM234.772 27.6424C236.345 27.6424 237 28.5274 237 30.2974C237 32.1116 236.345 32.9966 234.772 32.9966H231.234V40.1168C231.234 41.7983 230.361 42.5063 228.439 42.5063C226.561 42.5063 225.644 41.7983 225.644 40.1168V21.1095C225.644 19.4723 226.604 18.7201 228.439 18.7201C230.317 18.7201 231.234 19.4723 231.234 21.1095V27.6424H234.772Z" fill="#00917C"/>
<path d="M32.7007 89.9499C32.9033 90.3603 32.808 90.6579 32.3751 90.8792C31.9383 91.1004 31.6127 91.0039 31.3943 90.5775L28.7458 85.356H24.4652V90.2919C24.4652 90.7505 24.2468 90.9838 23.7346 90.9838C23.2025 90.9918 23 90.7545 23 90.4085V78.626C23 77.9301 23.2819 77.6968 23.9173 77.6968H28.8054C31.2514 77.6968 32.3235 79.0685 32.3235 80.8023V82.2223C32.3235 83.5619 31.6842 84.7003 30.2666 85.1549L32.7007 89.9499ZM24.4771 79.1128V83.9561H28.8054C29.9887 83.9561 30.8464 83.4211 30.8464 81.8442V81.1804C30.8464 79.6035 29.9887 79.1128 28.8054 79.1128H24.4771Z" fill="#00917C"/>
<path d="M36.0162 90.8027C35.5199 90.8027 35.3174 90.5815 35.3174 90.0907V78.4209C35.3174 77.918 35.5199 77.6968 36.0162 77.6968H43.5052C43.9261 77.6968 44.1287 77.8858 44.1287 78.3927C44.1287 78.8835 43.9261 79.0886 43.5052 79.0886H36.7628V83.3929H43.1637C43.5847 83.3929 43.7872 83.582 43.7872 84.0728C43.7872 84.5917 43.5847 84.7808 43.1637 84.7808H36.7628V89.4189H43.676C44.0969 89.4189 44.2994 89.6241 44.2994 90.1108C44.2994 90.6016 44.0969 90.8068 43.676 90.8068H36.0162V90.8027Z" fill="#00917C"/>
<path d="M55.5845 86.8444C55.5845 86.3858 55.8505 86.1646 56.3787 86.1968C56.8155 86.2129 57.0656 86.4019 57.0775 86.8122V87.0496C57.014 89.6684 54.7586 90.9918 51.844 90.9918C48.3258 90.9918 46.396 88.9885 46.396 85.7704V82.7413C46.396 79.4909 48.3417 77.5359 51.9393 77.5359C54.5561 77.5359 56.9822 78.7668 56.9981 81.5425V81.7798C56.9981 82.1419 56.8591 82.4758 56.2675 82.4758C55.6917 82.4758 55.4892 82.1298 55.4892 81.7798V81.5103C55.4733 79.853 53.7142 78.9398 51.9869 78.9398C49.7275 78.9398 47.8612 80.042 47.8612 83.0711V85.4365C47.8612 88.4495 49.6521 89.5678 51.9274 89.5678C53.7659 89.5678 55.4614 88.7472 55.5726 87.0737L55.5845 86.8444Z" fill="#00917C"/>
<path d="M59.77 90.316V78.2318C59.77 77.741 59.9725 77.5359 60.5007 77.5359C61.0288 77.5359 61.2154 77.741 61.2154 78.2318V90.316C61.2154 90.7746 61.0288 90.9959 60.5007 90.9959C59.9725 90.9918 59.77 90.7706 59.77 90.316Z" fill="#00917C"/>
<path d="M64.3325 78.626C64.3325 77.9301 64.6145 77.6968 65.2498 77.6968H70.2927C72.7388 77.6968 73.8109 79.1168 73.8109 80.8506V82.158C73.8109 83.9078 72.7348 85.3439 70.2927 85.3439H65.7938V90.2959C65.7938 90.7545 65.5754 90.9878 65.0632 90.9878C64.535 90.9878 64.3325 90.7505 64.3325 90.4045V78.626ZM65.8136 83.94H70.2967C71.48 83.94 72.3377 83.3567 72.3377 81.7798V81.2287C72.3377 79.6518 71.48 79.1128 70.2967 79.1128H65.8136V83.94Z" fill="#00917C"/>
<path d="M76.944 90.8027C76.4476 90.8027 76.2451 90.5815 76.2451 90.0907V78.4209C76.2451 77.918 76.4476 77.6968 76.944 77.6968H84.433C84.8539 77.6968 85.0564 77.8858 85.0564 78.3927C85.0564 78.8835 84.8539 79.0886 84.433 79.0886H77.6905V83.3929H84.0915C84.5124 83.3929 84.7149 83.582 84.7149 84.0728C84.7149 84.5917 84.5124 84.7808 84.0915 84.7808H77.6905V89.4189H84.6037C85.0246 89.4189 85.2271 89.6241 85.2271 90.1108C85.2271 90.6016 85.0246 90.8068 84.6037 90.8068H76.944V90.8027Z" fill="#00917C"/>
<path d="M92.9463 78.626C92.9463 77.9301 93.2282 77.6968 93.8636 77.6968H98.9105C101.357 77.6968 102.429 79.1168 102.429 80.8506V82.158C102.429 83.9078 101.353 85.3439 98.9105 85.3439H94.4115V90.2959C94.4115 90.7545 94.1931 90.9878 93.6809 90.9878C93.1528 90.9878 92.9503 90.7505 92.9503 90.4045V78.626H92.9463ZM94.4274 83.94H98.9105C100.094 83.94 100.951 83.3567 100.951 81.7798V81.2287C100.951 79.6518 100.094 79.1128 98.9105 79.1128H94.4274V83.94Z" fill="#00917C"/>
<path d="M115.072 78.5778L110.37 85.5492L110.354 85.5653V90.2799C110.354 90.7384 110.152 90.9879 109.624 90.9879C109.096 90.9879 108.893 90.7344 108.893 90.2799V85.5813C108.893 85.5652 108.877 85.5652 108.877 85.5492L104.16 78.5778C103.91 78.2158 104.053 77.898 104.378 77.6767C104.736 77.4555 105.125 77.4716 105.327 77.7733L109.592 84.1131H109.64L113.904 77.7733C114.107 77.4877 114.496 77.4716 114.838 77.6928C115.163 77.898 115.322 78.2158 115.072 78.5778Z" fill="#00917C"/>
<path d="M118.121 90.8027C117.625 90.8027 117.422 90.5815 117.422 90.0907V78.4209C117.422 77.918 117.625 77.6968 118.121 77.6968H125.61C126.031 77.6968 126.234 77.8858 126.234 78.3927C126.234 78.8835 126.031 79.0886 125.61 79.0886H118.868V83.3929H125.269C125.69 83.3929 125.892 83.582 125.892 84.0728C125.892 84.5917 125.69 84.7808 125.269 84.7808H118.868V89.4189H125.781C126.202 89.4189 126.404 89.6241 126.404 90.1108C126.404 90.6016 126.202 90.8068 125.781 90.8068H118.121V90.8027Z" fill="#00917C"/>
<path d="M128.505 85.7382V82.7735C128.505 79.5231 130.764 77.5359 134.171 77.5359C137.566 77.5359 139.838 79.5231 139.838 82.7735V85.7382C139.838 88.9724 137.578 90.9918 134.171 90.9918C130.764 90.9918 128.505 88.9724 128.505 85.7382ZM138.376 85.4244V83.1073C138.376 80.0782 136.351 78.9438 134.171 78.9438C131.991 78.9438 129.966 80.0782 129.966 83.1073V85.4244C129.966 88.4374 131.991 89.5718 134.171 89.5718C136.351 89.5718 138.376 88.4374 138.376 85.4244Z" fill="#00917C"/>
<path d="M142.502 90.3001V78.248C142.502 77.7573 142.812 77.54 143.217 77.54C143.606 77.54 143.792 77.6366 144.027 77.9825L151.377 88.4255H151.409C151.329 87.0216 151.285 85.5694 151.285 84.5154V78.236C151.285 77.7613 151.551 77.54 152 77.54C152.485 77.54 152.699 77.7613 152.699 78.236V90.288C152.699 90.7908 152.389 90.996 151.984 90.996C151.611 90.996 151.409 90.8552 151.19 90.5374L143.808 80.0301H143.777C143.9 81.607 143.931 82.9345 143.931 83.9241V90.296C143.931 90.7707 143.681 90.9879 143.217 90.9879C142.748 90.992 142.502 90.7707 142.502 90.3001Z" fill="#00917C"/>
<path d="M155.375 82.7413C155.375 79.5231 157.448 77.5359 161.042 77.5359C164.123 77.5359 166.319 79.0484 166.319 81.5264V81.7155C166.319 82.0132 166.164 82.2827 165.616 82.2827C165.072 82.2827 164.838 82.0292 164.838 81.7155V81.5425C164.774 79.8409 162.968 78.9398 161.038 78.9398C158.81 78.9398 156.833 80.0742 156.833 83.1194V85.3922C156.833 88.4213 158.778 89.5718 161.038 89.5718C163.373 89.5718 165.116 88.4978 165.072 85.9594V85.2193H161.773C161.431 85.2193 161.213 85.0463 161.213 84.5113C161.213 83.9762 161.431 83.7992 161.773 83.7992H165.866C166.335 83.7992 166.569 83.9722 166.569 84.5113V86.1525C166.569 89.3385 164.358 90.9959 161.042 90.9959C157.583 90.9959 155.375 88.9604 155.375 85.7744V82.7413Z" fill="#00917C"/>
<path d="M178.013 86.8444C178.013 86.3858 178.279 86.1646 178.807 86.1968C179.244 86.2129 179.494 86.4019 179.506 86.8122V87.0496C179.443 89.6684 177.187 90.9918 174.273 90.9918C170.755 90.9918 168.825 88.9885 168.825 85.7704V82.7413C168.825 79.4909 170.77 77.5359 174.368 77.5359C176.985 77.5359 179.411 78.7668 179.427 81.5425V81.7798C179.427 82.1419 179.288 82.4758 178.696 82.4758C178.12 82.4758 177.918 82.1298 177.918 81.7798V81.5103C177.902 79.853 176.143 78.9398 174.416 78.9398C172.156 78.9398 170.29 80.042 170.29 83.0711V85.4365C170.29 88.4495 172.081 89.5678 174.356 89.5678C176.195 89.5678 177.89 88.7472 178.001 87.0737L178.013 86.8444Z" fill="#00917C"/>
<path d="M192.181 78.2318V90.2999C192.181 90.7585 191.979 90.9918 191.435 90.9918C190.906 90.9918 190.72 90.7545 190.72 90.2999V84.6521H183.62V90.2999C183.62 90.7585 183.417 90.9918 182.889 90.9918C182.361 90.9918 182.159 90.7545 182.159 90.2999V78.2318C182.159 77.741 182.361 77.5359 182.889 77.5359C183.417 77.5359 183.62 77.741 183.62 78.2318V83.2481H190.72V78.2318C190.72 77.741 190.906 77.5359 191.435 77.5359C191.979 77.5359 192.181 77.741 192.181 78.2318Z" fill="#00917C"/>
<path d="M205.678 90.0949C205.865 90.5374 205.71 90.8351 205.194 90.9638C204.681 91.0724 204.447 90.8673 204.261 90.4288L203.141 87.7014H196.958L195.727 90.6983C195.588 91.0121 195.259 91.0925 194.826 90.9035C194.437 90.7466 194.266 90.4288 194.437 90.0064L199.341 78.0831C199.496 77.6889 199.638 77.5481 200.071 77.5481C200.524 77.5481 200.663 77.6889 200.818 78.0831L205.678 90.0949ZM197.534 86.3055H202.577L201.286 83.1678C200.913 82.2547 200.476 81.1484 200.103 80.1226H200.055C199.682 81.1484 199.198 82.2506 198.824 83.1678L197.534 86.3055Z" fill="#00917C"/>
<path d="M207.949 90.3001V78.248C207.949 77.7573 208.259 77.54 208.664 77.54C209.053 77.54 209.24 77.6366 209.474 77.9825L216.824 88.4255H216.856C216.776 87.0216 216.733 85.5694 216.733 84.5154V78.236C216.733 77.7613 216.999 77.54 217.447 77.54C217.932 77.54 218.146 77.7613 218.146 78.236V90.288C218.146 90.7908 217.837 90.996 217.432 90.996C217.058 90.996 216.856 90.8552 216.637 90.5374L209.256 80.0301H209.224C209.347 81.607 209.379 82.9345 209.379 83.9241V90.296C209.379 90.7707 209.129 90.9879 208.664 90.9879C208.195 90.992 207.949 90.7707 207.949 90.3001Z" fill="#00917C"/>
<path d="M220.823 82.7413C220.823 79.5231 222.896 77.5359 226.489 77.5359C229.571 77.5359 231.766 79.0484 231.766 81.5264V81.7155C231.766 82.0132 231.611 82.2827 231.067 82.2827C230.523 82.2827 230.289 82.0292 230.289 81.7155V81.5425C230.226 79.8409 228.419 78.9398 226.489 78.9398C224.262 78.9398 222.284 80.0742 222.284 83.1194V85.3922C222.284 88.4213 224.23 89.5718 226.489 89.5718C228.824 89.5718 230.567 88.4978 230.523 85.9594V85.2193H227.224C226.882 85.2193 226.664 85.0463 226.664 84.5113C226.664 83.9762 226.882 83.7992 227.224 83.7992H231.318C231.786 83.7992 232.017 83.9722 232.017 84.5113V86.1525C232.017 89.3385 229.805 90.9959 226.489 90.9959C223.031 90.9959 220.823 88.9604 220.823 85.7744V82.7413Z" fill="#00917C"/>
</g>
</g>
<defs>
<clipPath id="clip0_878_134">
<rect width="259" height="367" fill="white"/>
</clipPath>
<clipPath id="clip1_878_134">
<rect width="214" height="73" fill="white" transform="translate(23 18)"/>
</clipPath>
</defs>
</svg>
