<svg width="170" height="58" viewBox="0 0 170 58" fill="none" xmlns="http://www.w3.org/2000/svg">
<g clip-path="url(#clip0_126_3358)">
<path d="M13.6712 28.0583C14.9203 28.0583 15.4755 28.6829 15.4755 30.0015C15.4755 31.3894 14.9203 32.014 13.6712 32.014H2.01568C0.627745 32.014 0.00317383 31.3894 0.00317383 30.0015V16.5101C0.00317383 15.1222 0.627745 14.4976 2.01568 14.4976H9.19509V5.47916H1.80749C0.52365 5.47916 0.00317383 4.85459 0.00317383 3.53605C0.00317383 2.14812 0.52365 1.52355 1.80749 1.52355H11.4505C12.9078 1.52355 13.5324 2.18281 13.5324 3.57075V16.3334C13.5324 17.7214 12.9078 18.346 11.5199 18.346H4.34047V28.0583H13.6712ZM22.1344 2.55188V31.2348C22.1344 32.5534 21.4058 33.1779 19.9831 33.1779C18.5605 33.1779 17.8318 32.5534 17.8318 31.2348V17.1694H16.4786C15.056 17.1694 14.362 16.3713 14.362 15.0528C14.362 13.7689 15.056 13.0056 16.4786 13.0056H17.8318V2.55188C17.8318 1.23334 18.5952 0.589844 19.9831 0.589844C21.3711 0.589844 22.1344 1.2365 22.1344 2.55188ZM28.6199 2.55188V31.2348C28.6199 32.5534 27.9606 33.1779 26.5033 33.1779C25.0459 33.1779 24.352 32.5534 24.352 31.2348V2.55188C24.352 1.26804 25.0806 0.589844 26.5033 0.589844C27.9259 0.589844 28.6199 1.27119 28.6199 2.55188Z" fill="#1B1B1B"/>
<path d="M45.9944 19.1125L54.527 28.4779C55.2904 29.3106 55.221 30.2475 54.076 31.3231C52.9309 32.3988 51.9594 32.1906 51.1613 31.3231L43.7737 23.1028L36.3861 31.3231C35.588 32.1906 34.6165 32.3988 33.4714 31.3231C32.3264 30.2475 32.257 29.3106 33.0203 28.4779L41.553 19.1125V2.91464C41.553 1.6308 42.3164 1.00622 43.7737 1.00622C45.2657 1.00622 45.9944 1.6308 45.9944 2.91464V19.1125ZM63.1291 2.53295V31.238C63.1291 32.5565 62.4004 33.1811 60.9084 33.1811C59.4164 33.1811 58.6877 32.5565 58.6877 31.238V2.53295C58.6877 1.24911 59.4164 0.589844 60.9084 0.589844C62.4004 0.589844 63.1291 1.24911 63.1291 2.53295Z" fill="#1B1B1B"/>
<path d="M88.1496 28.0236C89.4335 28.0236 89.9539 28.7176 89.9539 30.0362C89.9539 31.32 89.4335 32.0487 88.1496 32.0487H70.0087C68.7248 32.0487 68.2043 31.32 68.2043 30.0362C68.2043 28.7176 68.7248 28.0236 70.0087 28.0236H72.3335V8.9143C72.3335 7.76925 73.1315 7.10999 74.4848 7.10999C75.838 7.10999 76.6361 7.76925 76.6361 8.9143V28.0236H81.5254V8.9143C81.5254 7.76925 82.3234 7.10999 83.6767 7.10999C85.0299 7.10999 85.8627 7.76925 85.8627 8.9143V28.0236H88.1496ZM70.2894 5.54856C69.0056 5.54856 68.4851 4.88929 68.4851 3.57075C68.4851 2.21751 69.0056 1.55824 70.2894 1.55824H87.8752C89.159 1.55824 89.6795 2.21751 89.6795 3.57075C89.6795 4.88929 89.159 5.54856 87.8752 5.54856H70.2894ZM97.9314 2.53295V31.238C97.9314 32.5565 97.2027 33.1811 95.7454 33.1811C94.2534 33.1811 93.5247 32.5565 93.5247 31.238V2.53295C93.5247 1.24911 94.2534 0.589844 95.7454 0.589844C97.2027 0.589844 97.9314 1.24911 97.9314 2.53295Z" fill="#1B1B1B"/>
<path d="M121.618 18.5573H104.865C103.581 18.5573 103.061 17.8633 103.061 16.5795C103.061 15.261 103.581 14.6017 104.865 14.6017H106.669V8.32443C106.669 7.17938 107.467 6.52011 108.82 6.52011C110.174 6.52011 110.972 7.17938 110.972 8.32443V14.6017H115.271V8.32443C115.271 7.17938 116.035 6.52011 117.388 6.52011C118.776 6.52011 119.574 7.17938 119.574 8.32443V14.6017H121.621H121.933C121.69 14.2894 121.552 13.8383 121.552 13.2484C121.552 11.9299 122.246 11.2359 123.599 11.2359H127.759V8.98054H123.599C122.246 8.98054 121.552 8.28658 121.552 6.93334C121.552 6.37816 121.69 5.92709 121.933 5.5801C121.76 5.6148 121.552 5.6495 121.343 5.6495H105.146C103.862 5.6495 103.341 4.99023 103.341 3.67169C103.341 2.31845 103.862 1.65918 105.146 1.65918H121.343C122.627 1.65918 123.148 2.31845 123.148 3.67169C123.148 4.22687 123.044 4.67794 122.835 5.02493C123.078 4.95553 123.321 4.92083 123.599 4.92083H127.759V2.46356C127.759 1.17972 128.523 0.589844 129.98 0.589844C131.472 0.589844 132.201 1.17972 132.201 2.46356V17.4123C132.201 18.7308 131.507 19.286 129.98 19.286C128.488 19.286 127.759 18.7308 127.759 17.4123V15.2957H123.599C123.425 15.2957 123.287 15.2957 123.113 15.261C123.321 15.5732 123.425 16.0243 123.425 16.5795C123.422 17.8633 122.902 18.5573 121.618 18.5573ZM125.57 20.4279C130.043 20.4279 132.784 22.7179 132.784 26.7745C132.784 30.8658 129.974 33.1906 125.501 33.1906H112.738C108.231 33.1906 105.489 30.8658 105.489 26.7745C105.489 22.7179 108.231 20.4279 112.738 20.4279H125.57ZM125.744 29.2728C127.687 29.2728 128.485 28.1277 128.485 26.7745C128.485 25.4213 127.687 24.3456 125.744 24.3456H112.565C110.552 24.3456 109.789 25.456 109.789 26.7745C109.789 28.093 110.552 29.2728 112.565 29.2728H125.744Z" fill="#1B1B1B"/>
<path d="M140.866 17.9328C140.068 18.4532 139.131 18.4532 138.333 17.2041C137.708 16.2325 137.535 15.1916 138.541 14.567L145.339 10.0941V7.56109H140.033C138.749 7.56109 138.298 6.93652 138.298 5.54859C138.298 4.19535 138.749 3.57078 140.033 3.57078H145.339V1.97781C145.339 0.659269 145.963 0 147.525 0C149.052 0 149.711 0.659269 149.711 1.97781V3.57393H155.017C156.3 3.57393 156.751 4.1985 156.751 5.55174C156.751 6.93968 156.3 7.56425 155.017 7.56425H149.708V10.0941L156.505 14.567C157.512 15.1916 157.338 16.2325 156.714 17.2041C155.916 18.4532 154.979 18.4532 154.181 17.9328L147.522 13.5292L140.866 17.9328ZM158.969 20.0115C163.442 20.0115 166.148 22.4751 166.148 26.601C166.148 30.727 163.373 33.1906 158.9 33.1906H146.9C142.393 33.1906 139.686 30.727 139.686 26.601C139.686 22.4751 142.393 20.0115 146.9 20.0115H158.969ZM159.038 29.2728C161.12 29.2728 161.849 27.9543 161.849 26.601C161.849 25.2478 161.12 23.9293 159.038 23.9293H146.831C144.68 23.9293 143.986 25.2825 143.986 26.601C143.986 27.9196 144.68 29.2728 146.831 29.2728H159.038ZM168.23 7.56109C169.48 7.56109 170 8.25506 170 9.643C170 11.0656 169.48 11.7596 168.23 11.7596H165.42V17.3429C165.42 18.6614 164.726 19.2166 163.199 19.2166C161.707 19.2166 160.978 18.6614 160.978 17.3429V2.43835C160.978 1.15451 161.742 0.564637 163.199 0.564637C164.691 0.564637 165.42 1.15451 165.42 2.43835V7.56109H168.23Z" fill="#1B1B1B"/>
<path d="M7.7062 56.4196C7.86707 56.7413 7.79136 56.9748 7.44754 57.1482C7.10055 57.3217 6.84189 57.246 6.6684 56.9117L4.56441 52.8173H1.16397V56.6877C1.16397 57.0473 0.990481 57.2303 0.583564 57.2303C0.160874 57.2366 0 57.0505 0 56.7792V47.5399C0 46.9942 0.223962 46.8113 0.728666 46.8113H4.61173C6.55484 46.8113 7.40653 47.8869 7.40653 49.2465V50.36C7.40653 51.4104 6.89867 52.3031 5.77255 52.6595L7.7062 56.4196ZM1.17344 47.9216V51.7195H4.61173C5.55174 51.7195 6.23309 51.3 6.23309 50.0635V49.543C6.23309 48.3065 5.55174 47.9216 4.61173 47.9216H1.17344Z" fill="#1B1B1B"/>
<path d="M10.3401 57.0883C9.94579 57.0883 9.78491 56.9148 9.78491 56.53V47.3791C9.78491 46.9848 9.94579 46.8113 10.3401 46.8113H16.2893C16.6236 46.8113 16.7845 46.9595 16.7845 47.357C16.7845 47.7418 16.6236 47.9027 16.2893 47.9027H10.9331V51.2779H16.018C16.3524 51.2779 16.5132 51.4262 16.5132 51.811C16.5132 52.2179 16.3524 52.3662 16.018 52.3662H10.9331V56.0032H16.4249C16.7593 56.0032 16.9202 56.1641 16.9202 56.5458C16.9202 56.9306 16.7593 57.0915 16.4249 57.0915H10.3401V57.0883Z" fill="#1B1B1B"/>
<path d="M25.885 53.9843C25.885 53.6247 26.0963 53.4512 26.5159 53.4765C26.8628 53.4891 27.0616 53.6374 27.071 53.9591V54.1452C27.0206 56.1987 25.2289 57.2365 22.9135 57.2365C20.1187 57.2365 18.5857 55.6656 18.5857 53.1421V50.7669C18.5857 48.2181 20.1313 46.6851 22.9892 46.6851C25.068 46.6851 26.9953 47.6503 27.0079 49.8268V50.0129C27.0079 50.2968 26.8975 50.5587 26.4275 50.5587C25.9701 50.5587 25.8093 50.2874 25.8093 50.0129V49.8016C25.7966 48.502 24.3993 47.7859 23.0271 47.7859C21.2322 47.7859 19.7497 48.6502 19.7497 51.0255V52.8803C19.7497 55.2429 21.1723 56.1199 22.9798 56.1199C24.4403 56.1199 25.7872 55.4764 25.8755 54.1641L25.885 53.9843Z" fill="#1B1B1B"/>
<path d="M29.2097 56.7066V47.2308C29.2097 46.8459 29.3706 46.6851 29.7901 46.6851C30.2097 46.6851 30.3579 46.8459 30.3579 47.2308V56.7066C30.3579 57.0662 30.2097 57.2397 29.7901 57.2397C29.3706 57.2365 29.2097 57.063 29.2097 56.7066Z" fill="#1B1B1B"/>
<path d="M32.8342 47.5399C32.8342 46.9942 33.0582 46.8113 33.5629 46.8113H37.569C39.5121 46.8113 40.3638 47.9248 40.3638 49.2843V50.3095C40.3638 51.6817 39.5089 52.8078 37.569 52.8078H33.995V56.6909C33.995 57.0505 33.8216 57.2334 33.4146 57.2334C32.9951 57.2334 32.8342 57.0473 32.8342 56.776V47.5399ZM34.0108 51.7069H37.5721C38.5121 51.7069 39.1935 51.2495 39.1935 50.013V49.5808C39.1935 48.3443 38.5121 47.9216 37.5721 47.9216H34.0108V51.7069Z" fill="#1B1B1B"/>
<path d="M42.8525 57.0883C42.4582 57.0883 42.2974 56.9148 42.2974 56.53V47.3791C42.2974 46.9848 42.4582 46.8113 42.8525 46.8113H48.8017C49.1361 46.8113 49.297 46.9595 49.297 47.357C49.297 47.7418 49.1361 47.9027 48.8017 47.9027H43.4456V51.2779H48.5305C48.8648 51.2779 49.0257 51.4262 49.0257 51.811C49.0257 52.2179 48.8648 52.3662 48.5305 52.3662H43.4456V56.0032H48.9374C49.2717 56.0032 49.4326 56.1641 49.4326 56.5458C49.4326 56.9306 49.2717 57.0915 48.9374 57.0915H42.8525V57.0883Z" fill="#1B1B1B"/>
<path d="M55.5647 47.5399C55.5647 46.9942 55.7887 46.8113 56.2934 46.8113H60.3026C62.2457 46.8113 63.0974 47.9248 63.0974 49.2843V50.3095C63.0974 51.6817 62.2426 52.8078 60.3026 52.8078H56.7287V56.6909C56.7287 57.0505 56.5552 57.2334 56.1483 57.2334C55.7287 57.2334 55.5679 57.0473 55.5679 56.776V47.5399H55.5647ZM56.7413 51.7069H60.3026C61.2426 51.7069 61.924 51.2495 61.924 50.013V49.5808C61.924 48.3443 61.2426 47.9216 60.3026 47.9216H56.7413V51.7069Z" fill="#1B1B1B"/>
<path d="M73.1409 47.502L69.4061 52.9686L69.3935 52.9812V56.6782C69.3935 57.0378 69.2326 57.2334 68.8131 57.2334C68.3936 57.2334 68.2327 57.0346 68.2327 56.6782V52.9938C68.2327 52.9812 68.2201 52.9812 68.2201 52.9686L64.4726 47.502C64.2739 47.2181 64.3875 46.9689 64.6461 46.7954C64.93 46.622 65.2392 46.6346 65.4 46.8712L68.7879 51.8425H68.8257L72.2135 46.8712C72.3744 46.6472 72.6835 46.6346 72.9548 46.8081C73.2135 46.9689 73.3397 47.2181 73.1409 47.502Z" fill="#1B1B1B"/>
<path d="M75.5637 57.0883C75.1694 57.0883 75.0085 56.9148 75.0085 56.53V47.3791C75.0085 46.9848 75.1694 46.8113 75.5637 46.8113H81.5129C81.8473 46.8113 82.0082 46.9595 82.0082 47.357C82.0082 47.7418 81.8473 47.9027 81.5129 47.9027H76.1567V51.2779H81.2416C81.576 51.2779 81.7369 51.4262 81.7369 51.811C81.7369 52.2179 81.576 52.3662 81.2416 52.3662H76.1567V56.0032H81.6486C81.9829 56.0032 82.1438 56.1641 82.1438 56.5458C82.1438 56.9306 81.9829 57.0915 81.6486 57.0915H75.5637V57.0883Z" fill="#1B1B1B"/>
<path d="M83.8123 53.1169V50.7921C83.8123 48.2433 85.6071 46.6851 88.3136 46.6851C91.0106 46.6851 92.8149 48.2433 92.8149 50.7921V53.1169C92.8149 55.653 91.0201 57.2365 88.3136 57.2365C85.6071 57.2365 83.8123 55.653 83.8123 53.1169ZM91.6541 52.8708V51.0539C91.6541 48.6786 90.0453 47.7891 88.3136 47.7891C86.5818 47.7891 84.9731 48.6786 84.9731 51.0539V52.8708C84.9731 55.2335 86.5818 56.123 88.3136 56.123C90.0453 56.123 91.6541 55.2335 91.6541 52.8708Z" fill="#1B1B1B"/>
<path d="M94.9316 56.694V47.2434C94.9316 46.8586 95.1777 46.6882 95.4994 46.6882C95.8086 46.6882 95.9568 46.7639 96.1429 47.0352L101.982 55.224H102.007C101.944 54.1232 101.909 52.9844 101.909 52.158V47.2339C101.909 46.8617 102.121 46.6882 102.477 46.6882C102.862 46.6882 103.032 46.8617 103.032 47.2339V56.6845C103.032 57.0788 102.786 57.2397 102.464 57.2397C102.168 57.2397 102.007 57.1293 101.833 56.8801L95.9694 48.6408H95.9442C96.042 49.8773 96.0672 50.9183 96.0672 51.6943V56.6908C96.0672 57.0631 95.8685 57.2334 95.4994 57.2334C95.1272 57.2365 94.9316 57.063 94.9316 56.694Z" fill="#1B1B1B"/>
<path d="M105.158 50.7669C105.158 48.2433 106.805 46.6851 109.66 46.6851C112.107 46.6851 113.852 47.8711 113.852 49.8142V49.9625C113.852 50.1959 113.729 50.4072 113.293 50.4072C112.861 50.4072 112.675 50.2085 112.675 49.9625V49.8268C112.625 48.4925 111.189 47.7859 109.656 47.7859C107.887 47.7859 106.316 48.6755 106.316 51.0634V52.8456C106.316 55.2209 107.862 56.123 109.656 56.123C111.511 56.123 112.896 55.2808 112.861 53.2904V52.71H110.24C109.969 52.71 109.795 52.5743 109.795 52.1548C109.795 51.7352 109.969 51.5965 110.24 51.5965H113.492C113.864 51.5965 114.05 51.7321 114.05 52.1548V53.4418C114.05 55.9401 112.293 57.2397 109.66 57.2397C106.912 57.2397 105.158 55.6435 105.158 53.1453V50.7669Z" fill="#1B1B1B"/>
<path d="M123.141 53.9843C123.141 53.6247 123.353 53.4512 123.772 53.4765C124.119 53.4891 124.318 53.6374 124.327 53.9591V54.1452C124.277 56.1987 122.485 57.2365 120.17 57.2365C117.375 57.2365 115.842 55.6656 115.842 53.1421V50.7669C115.842 48.2181 117.388 46.6851 120.246 46.6851C122.324 46.6851 124.252 47.6503 124.264 49.8268V50.0129C124.264 50.2968 124.154 50.5587 123.684 50.5587C123.226 50.5587 123.066 50.2874 123.066 50.0129V49.8016C123.053 48.502 121.656 47.7859 120.283 47.7859C118.489 47.7859 117.006 48.6502 117.006 51.0255V52.8803C117.006 55.2429 118.429 56.1199 120.236 56.1199C121.697 56.1199 123.044 55.4764 123.132 54.1641L123.141 53.9843Z" fill="#1B1B1B"/>
<path d="M134.396 47.2308V56.694C134.396 57.0536 134.235 57.2365 133.803 57.2365C133.384 57.2365 133.235 57.0504 133.235 56.694V52.2652H127.595V56.694C127.595 57.0536 127.435 57.2365 127.015 57.2365C126.595 57.2365 126.435 57.0504 126.435 56.694V47.2308C126.435 46.8459 126.595 46.6851 127.015 46.6851C127.435 46.6851 127.595 46.8459 127.595 47.2308V51.1643H133.235V47.2308C133.235 46.8459 133.384 46.6851 133.803 46.6851C134.235 46.6851 134.396 46.8459 134.396 47.2308Z" fill="#1B1B1B"/>
<path d="M145.118 56.5331C145.266 56.8801 145.143 57.1136 144.733 57.2145C144.326 57.2997 144.14 57.1388 143.992 56.795L143.102 54.6563H138.191L137.213 57.0063C137.103 57.2524 136.841 57.3154 136.497 57.1672C136.188 57.0442 136.052 56.795 136.188 56.4638L140.084 47.1141C140.207 46.805 140.32 46.6946 140.664 46.6946C141.024 46.6946 141.134 46.805 141.257 47.1141L145.118 56.5331ZM138.648 53.5617H142.655L141.629 51.1013C141.333 50.3852 140.986 49.5178 140.689 48.7134H140.651C140.355 49.5178 139.97 50.3821 139.674 51.1013L138.648 53.5617Z" fill="#1B1B1B"/>
<path d="M146.922 56.694V47.2434C146.922 46.8586 147.168 46.6882 147.49 46.6882C147.799 46.6882 147.948 46.7639 148.134 47.0352L153.972 55.224H153.998C153.935 54.1232 153.9 52.9844 153.9 52.158V47.2339C153.9 46.8617 154.111 46.6882 154.468 46.6882C154.853 46.6882 155.023 46.8617 155.023 47.2339V56.6845C155.023 57.0788 154.777 57.2397 154.455 57.2397C154.159 57.2397 153.998 57.1293 153.824 56.8801L147.96 48.6408H147.935C148.033 49.8773 148.058 50.9183 148.058 51.6943V56.6908C148.058 57.0631 147.859 57.2334 147.49 57.2334C147.118 57.2365 146.922 57.063 146.922 56.694Z" fill="#1B1B1B"/>
<path d="M157.149 50.7669C157.149 48.2433 158.796 46.6851 161.65 46.6851C164.098 46.6851 165.842 47.8711 165.842 49.8142V49.9625C165.842 50.1959 165.719 50.4072 165.287 50.4072C164.855 50.4072 164.669 50.2085 164.669 49.9625V49.8268C164.619 48.4925 163.183 47.7859 161.65 47.7859C159.881 47.7859 158.31 48.6755 158.31 51.0634V52.8456C158.31 55.2209 159.855 56.123 161.65 56.123C163.505 56.123 164.89 55.2808 164.855 53.2904V52.71H162.234C161.963 52.71 161.789 52.5743 161.789 52.1548C161.789 51.7352 161.963 51.5965 162.234 51.5965H165.486C165.858 51.5965 166.041 51.7321 166.041 52.1548V53.4418C166.041 55.9401 164.284 57.2397 161.65 57.2397C158.903 57.2397 157.149 55.6435 157.149 53.1453V50.7669Z" fill="#1B1B1B"/>
</g>
<defs>
<clipPath id="clip0_126_3358">
<rect width="170" height="57.2429" fill="white"/>
</clipPath>
</defs>
</svg>
