<svg width="406" height="143" viewBox="0 0 406 143" fill="none" xmlns="http://www.w3.org/2000/svg">
<path fill-rule="evenodd" clip-rule="evenodd" d="M231.498 34.3207C231.485 33.2001 231.485 32.0795 231.543 30.9716C229.65 24.7827 229.483 16.881 229.926 10.7621C229.997 9.74972 231.196 3.97467 232.249 2.24916C233.044 0.956621 234.083 0.402675 234.853 0.18619C236.181 -0.195842 237.522 -0.0366618 238.779 1.10307C240.338 2.51022 241.499 5.59831 241.647 9.62237C241.884 16.1933 240.139 25.7823 239.511 29.2461C239.466 29.4944 239.427 29.7491 239.389 29.9974L239.402 30.0292C239.774 31.0735 239.722 32.1431 239.241 33.1428L239.184 33.251C239.177 34.1679 239.203 35.0912 239.222 36.008C242.34 33.805 247.222 30.6596 251.103 28.7622C254.266 27.2149 257.05 26.6355 258.481 26.8902C259.552 27.0812 260.361 27.6224 260.957 28.412C261.547 29.1951 261.881 30.8888 261.631 31.933C261.118 34.066 259.02 36.1608 257.57 37.6826C256.608 38.695 255.549 39.4973 254.452 40.3568C250.802 43.2093 243.886 47.2907 238.651 48.7806C238.696 52.3654 238.888 55.931 239.113 59.503C244.13 55.8864 251.488 51.232 257.384 50.9264C258.757 50.8563 259.629 51.3848 260.239 51.9324C260.848 52.48 261.278 53.1867 261.451 54.0781C261.528 54.4793 261.554 54.9568 261.458 55.4853C261.368 55.9883 260.835 57.0898 260.47 57.5483C259.944 58.2104 259.238 58.7644 258.654 59.382C257.121 60.9993 255.677 62.6547 253.804 63.9218C249.801 66.6215 244.797 69.3276 239.761 70.3463C239.851 72.473 239.908 74.5996 239.953 76.7326C244.746 73.8419 252.874 70.6201 258.327 71.5625C260.187 71.8872 261.24 73.0269 261.599 74.6951C261.81 75.6757 261.432 77.2484 261.195 77.7323C259.687 80.8586 256.627 83.6156 253.926 85.6913C249.41 89.155 245.092 89.3651 240.178 89.1677C240.236 91.3708 240.319 93.5739 240.447 95.7769C240.569 97.8972 238.933 99.7182 236.791 99.8392C234.654 99.9602 232.819 98.3365 232.698 96.2099C232.563 93.8922 232.479 91.5746 232.422 89.2505C226.43 88.9831 221.888 86.8246 217.204 82.9916C214.767 80.9986 211.681 77.0573 211.001 73.8929C210.719 72.5685 211.059 71.5306 211.662 70.6838C212.188 69.9516 213.086 69.1939 214.542 68.9837C215.857 68.7991 219.61 69.8178 220.226 70.0662C221.259 70.48 222.311 70.8875 223.376 71.225C225.724 71.9572 229.208 73.1543 232.146 74.8734C232.107 73.4535 232.062 72.04 231.998 70.6201C228.406 69.8369 223.1 67.8376 222.151 67.3474C220.406 66.4432 219.026 64.9979 217.609 63.6926C216.569 62.7375 212.727 59.0573 211.251 56.7396C210.379 55.3707 210.109 54.1036 210.135 53.2759C210.193 51.5504 211.065 50.5316 212.297 49.9204C212.797 49.672 213.426 49.4874 214.183 49.5001C214.613 49.5129 215.293 49.6657 215.671 49.7994C216.749 50.1878 217.84 50.1114 218.943 50.3852C220.034 50.6589 221.028 51.1683 222.099 51.4867C224.018 52.0534 227.944 53.8234 231.145 56.0201C231.01 53.4605 230.914 50.8945 230.888 48.3222C230.696 48.233 230.542 48.1566 230.471 48.1184C223.126 46.4057 215.787 42.891 211.52 36.3264C210.629 34.9511 209.14 32.608 208.666 30.4813C208.313 28.9086 208.422 27.3932 208.999 26.0816C209.41 25.152 210.103 24.4197 211.206 24.0122C211.63 23.8594 212.662 23.4838 214.099 24.0823C214.362 24.1905 215.62 25.0055 216.935 25.655C218.642 26.5018 220.399 27.2277 222.087 28.1191C223.177 28.6921 227.854 31.4682 231.498 34.3207Z" fill="#0A6C68"/>
<path d="M27.9641 83.9717C30.4776 83.9717 31.5947 85.2272 31.5947 87.8775C31.5947 90.6674 30.4776 91.9229 27.9641 91.9229H4.51732C1.72453 91.9229 0.467773 90.6674 0.467773 87.8775V60.7586C0.467773 57.9687 1.72453 56.7132 4.51732 56.7132H18.9637V38.5853H4.0984C1.51507 38.5853 0.467773 37.3299 0.467773 34.6795C0.467773 31.8896 1.51507 30.6342 4.0984 30.6342H23.502C26.4344 30.6342 27.6911 31.9594 27.6911 34.7492V60.4035C27.6911 63.1934 26.4344 64.4488 23.6416 64.4488H9.1889V83.9717H27.9641ZM44.9938 32.7012V90.3567C44.9938 93.0071 43.5275 94.2626 40.6649 94.2626C37.8023 94.2626 36.3361 93.0071 36.3361 90.3567V62.0838H33.6131C30.7505 62.0838 29.3541 60.4796 29.3541 57.8292C29.3541 55.2486 30.7505 53.7141 33.6131 53.7141H36.3361V32.7012C36.3361 30.0508 37.8721 28.7573 40.6649 28.7573C43.4577 28.7573 44.9938 30.0508 44.9938 32.7012ZM58.0437 32.7012V90.3567C58.0437 93.0071 56.7171 94.2626 53.7847 94.2626C50.8523 94.2626 49.4559 93.0071 49.4559 90.3567V32.7012C49.4559 30.1206 50.9221 28.7573 53.7847 28.7573C56.6473 28.7573 58.0437 30.1206 58.0437 32.7012Z" fill="#00917C"/>
<path d="M93.0042 65.9833L110.173 84.8087C111.71 86.4826 111.57 88.3658 109.266 90.5279C106.962 92.6901 105.007 92.2716 103.401 90.5279L88.5357 74.0042L73.6704 90.5279C72.0646 92.2716 70.1096 92.6901 67.8056 90.5279C65.5015 88.3658 65.3619 86.4826 66.8979 84.8087L84.0672 65.9833V33.424C84.0672 30.8434 85.6033 29.5879 88.5357 29.5879C91.5379 29.5879 93.0042 30.8434 93.0042 33.424V65.9833ZM127.482 32.6568V90.3567C127.482 93.0071 126.016 94.2626 123.014 94.2626C120.012 94.2626 118.546 93.0071 118.546 90.3567V32.6568C118.546 30.0762 120.012 28.751 123.014 28.751C126.016 28.7573 127.482 30.0825 127.482 32.6568Z" fill="#00917C"/>
<path d="M177.835 83.902C180.419 83.902 181.466 85.2969 181.466 87.9473C181.466 90.5279 180.419 91.9926 177.835 91.9926H141.332C138.749 91.9926 137.702 90.5279 137.702 87.9473C137.702 85.2969 138.749 83.902 141.332 83.902H146.01V45.4903C146.01 43.1886 147.616 41.8634 150.339 41.8634C153.062 41.8634 154.668 43.1886 154.668 45.4903V83.902H164.506V45.4903C164.506 43.1886 166.112 41.8634 168.835 41.8634C171.558 41.8634 173.234 43.1886 173.234 45.4903V83.902H177.835ZM141.891 38.7248C139.308 38.7248 138.26 37.3996 138.26 34.7492C138.26 32.0291 139.308 30.7039 141.891 30.7039H177.277C179.86 30.7039 180.907 32.0291 180.907 34.7492C180.907 37.3996 179.86 38.7248 177.277 38.7248H141.891ZM197.518 32.6568V90.3567C197.518 93.0071 196.052 94.2626 193.12 94.2626C190.117 94.2626 188.651 93.0071 188.651 90.3567V32.6568C188.651 30.0762 190.117 28.751 193.12 28.751C196.052 28.7573 197.518 30.0825 197.518 32.6568Z" fill="#00917C"/>
<path d="M308.646 64.8676H274.936C272.352 64.8676 271.305 63.4726 271.305 60.892C271.305 58.2416 272.352 56.9164 274.936 56.9164H278.566V44.2985C278.566 41.9968 280.172 40.6716 282.895 40.6716C285.618 40.6716 287.224 41.9968 287.224 44.2985V56.9164H295.875V44.2985C295.875 41.9968 297.411 40.6716 300.134 40.6716C302.927 40.6716 304.533 41.9968 304.533 44.2985V56.9164H308.652H309.281C308.792 56.2887 308.513 55.3819 308.513 54.1962C308.513 51.5459 309.909 50.1509 312.632 50.1509H321.004V45.6173H312.626C309.903 45.6173 308.506 44.2224 308.506 41.5023C308.506 40.3863 308.786 39.4796 309.274 38.7821C308.925 38.8519 308.506 38.9216 308.087 38.9216H275.494C272.911 38.9216 271.864 37.5964 271.864 34.946C271.864 32.2259 272.911 30.9007 275.494 30.9007H308.087C310.671 30.9007 311.718 32.2259 311.718 34.946C311.718 36.062 311.509 36.9687 311.09 37.6662C311.578 37.5267 312.067 37.4569 312.626 37.4569H320.998V32.5049C320.998 29.9242 322.534 28.7385 325.466 28.7385C328.469 28.7385 329.935 29.9242 329.935 32.5049V62.5532C329.935 65.2036 328.538 66.3196 325.466 66.3196C322.464 66.3196 320.998 65.2036 320.998 62.5532V58.2986H312.626C312.277 58.2986 311.997 58.2986 311.648 58.2289C312.067 58.8566 312.277 59.7633 312.277 60.8793C312.277 63.4726 311.229 64.8676 308.646 64.8676ZM316.606 68.6339C325.606 68.6339 331.122 73.2372 331.122 81.3913C331.122 89.6151 325.466 94.2882 316.466 94.2882H290.785C281.715 94.2882 276.199 89.6151 276.199 81.3913C276.199 73.2372 281.715 68.6339 290.785 68.6339H316.606ZM316.955 86.4131C320.865 86.4131 322.47 84.1114 322.47 81.3913C322.47 78.6712 320.865 76.509 316.955 76.509H290.436C286.386 76.509 284.85 78.7409 284.85 81.3913C284.85 84.0417 286.386 86.4131 290.436 86.4131H316.955Z" fill="#00917C"/>
<path d="M347.377 63.6118C345.771 64.658 343.886 64.658 342.28 62.1471C341.023 60.1942 340.674 58.1017 342.699 56.8463L356.377 47.8553V42.7637H345.701C343.118 42.7637 342.21 41.5083 342.21 38.7184C342.21 35.9982 343.118 34.7428 345.701 34.7428H356.377V31.5344C356.377 28.884 357.634 27.5588 360.776 27.5588C363.848 27.5588 365.175 28.884 365.175 31.5344V34.7428H375.851C378.434 34.7428 379.342 35.9982 379.342 38.7184C379.342 41.5083 378.434 42.7637 375.851 42.7637H365.175V47.8553L378.853 56.8463C380.878 58.1017 380.529 60.1942 379.272 62.1471C377.666 64.658 375.781 64.658 374.175 63.6118L360.776 54.7602L347.377 63.6118ZM383.81 67.7966C392.811 67.7966 398.256 72.7487 398.256 81.0422C398.256 89.3358 392.671 94.2878 383.67 94.2878H359.526C350.455 94.2878 345.009 89.3358 345.009 81.0422C345.009 72.7487 350.455 67.7966 359.526 67.7966H383.81ZM383.95 86.4128C388.139 86.4128 389.605 83.7624 389.605 81.0422C389.605 78.3221 388.139 75.6717 383.95 75.6717H359.386C355.057 75.6717 353.661 78.3918 353.661 81.0422C353.661 83.6926 355.057 86.4128 359.386 86.4128H383.95ZM402.439 42.7701C404.953 42.7701 406 44.165 406 46.9549C406 49.8145 404.953 51.2095 402.439 51.2095H396.784V62.4324C396.784 65.0828 395.387 66.1988 392.315 66.1988C389.313 66.1988 387.847 65.0828 387.847 62.4324V32.4728C387.847 29.8922 389.383 28.7065 392.315 28.7065C395.318 28.7065 396.784 29.8922 396.784 32.4728V42.7701H402.439Z" fill="#00917C"/>
<path d="M47.6977 140.981C48.0215 141.627 47.8691 142.097 47.1773 142.445C46.4791 142.794 45.9586 142.642 45.6095 141.97L41.3759 133.74H34.5335V141.52C34.5335 142.242 34.1844 142.61 33.3656 142.61C32.5215 142.61 32.1978 142.236 32.1978 141.691V123.119C32.1978 122.022 32.6484 121.654 33.664 121.654H41.4774C45.3873 121.654 47.1011 123.816 47.1011 126.549V128.788C47.1011 130.899 46.0792 132.693 43.8132 133.41L47.6977 140.981ZM34.5589 123.899V131.533H41.4774C43.3689 131.533 44.7399 130.69 44.7399 128.204V127.158C44.7399 124.672 43.3689 123.899 41.4774 123.899H34.5589Z" fill="#00917C"/>
<path d="M52.9975 142.325C52.2041 142.325 51.8804 141.977 51.8804 141.203V122.802C51.8804 122.01 52.2041 121.661 52.9975 121.661H64.9684C65.6412 121.661 65.9649 121.959 65.9649 122.758C65.9649 123.532 65.6412 123.855 64.9684 123.855H54.1908V130.639H64.4225C65.0954 130.639 65.4191 130.938 65.4191 131.711C65.4191 132.529 65.0954 132.827 64.4225 132.827H54.1908V140.138H65.2413C65.9142 140.138 66.2379 140.461 66.2379 141.228C66.2379 142.002 65.9142 142.325 65.2413 142.325H52.9975Z" fill="#00917C"/>
<path d="M84.2828 136.086C84.2828 135.363 84.708 135.014 85.5522 135.065C86.2504 135.09 86.6503 135.388 86.6693 136.035V136.409C86.5678 140.537 82.9625 142.623 78.3036 142.623C72.68 142.623 69.5952 139.465 69.5952 134.393V129.618C69.5952 124.495 72.7054 121.414 78.456 121.414C82.6388 121.414 86.517 123.354 86.5424 127.729V128.103C86.5424 128.674 86.3202 129.2 85.3745 129.2C84.4541 129.2 84.1304 128.655 84.1304 128.103V127.678C84.105 125.066 81.2932 123.626 78.5321 123.626C74.9206 123.626 71.9373 125.364 71.9373 130.138V133.867C71.9373 138.616 74.8 140.378 78.4369 140.378C81.3757 140.378 84.086 139.085 84.2637 136.447L84.2828 136.086Z" fill="#00917C"/>
<path d="M90.9731 141.551V122.504C90.9731 121.731 91.2969 121.407 92.141 121.407C92.9852 121.407 93.2835 121.731 93.2835 122.504V141.551C93.2835 142.274 92.9852 142.623 92.141 142.623C91.2969 142.623 90.9731 142.274 90.9731 141.551Z" fill="#00917C"/>
<path d="M98.2666 123.132C98.2666 122.035 98.7173 121.667 99.7328 121.667H107.794C111.704 121.667 113.417 123.905 113.417 126.638V128.699C113.417 131.457 111.697 133.721 107.794 133.721H100.602V141.526C100.602 142.249 100.253 142.617 99.4345 142.617C98.5903 142.617 98.2666 142.243 98.2666 141.697V123.132ZM100.628 131.508H107.794C109.685 131.508 111.056 130.589 111.056 128.103V127.234C111.056 124.749 109.685 123.899 107.794 123.899H100.628V131.508Z" fill="#00917C"/>
<path d="M118.418 142.325C117.625 142.325 117.301 141.977 117.301 141.203V122.802C117.301 122.01 117.625 121.661 118.418 121.661H130.389C131.062 121.661 131.386 121.959 131.386 122.758C131.386 123.532 131.062 123.855 130.389 123.855H119.612V130.639H129.843C130.516 130.639 130.84 130.938 130.84 131.711C130.84 132.529 130.516 132.827 129.843 132.827H119.612V140.138H130.662C131.335 140.138 131.659 140.461 131.659 141.228C131.659 142.002 131.335 142.325 130.662 142.325H118.418Z" fill="#00917C"/>
<path d="M144.004 123.132C144.004 122.035 144.455 121.667 145.471 121.667H153.532C157.442 121.667 159.155 123.905 159.155 126.638V128.699C159.155 131.457 157.435 133.721 153.532 133.721H146.34V141.526C146.34 142.249 145.991 142.617 145.172 142.617C144.328 142.617 144.004 142.243 144.004 141.697V123.132ZM146.366 131.508H153.532C155.423 131.508 156.794 130.589 156.794 128.103V127.234C156.794 124.749 155.423 123.899 153.532 123.899H146.366V131.508Z" fill="#00917C"/>
<path d="M179.365 123.056L171.85 134.044L171.825 134.07V141.501C171.825 142.224 171.501 142.617 170.657 142.617C169.813 142.617 169.489 142.217 169.489 141.501V134.095C169.489 134.07 169.464 134.07 169.464 134.044L161.923 123.056C161.523 122.485 161.752 121.984 162.272 121.636C162.843 121.287 163.465 121.312 163.789 121.788L170.606 131.781H170.682L177.499 121.788C177.823 121.338 178.445 121.312 178.991 121.661C179.518 121.984 179.765 122.485 179.365 123.056Z" fill="#00917C"/>
<path d="M184.24 142.325C183.446 142.325 183.123 141.977 183.123 141.203V122.802C183.123 122.01 183.446 121.661 184.24 121.661H196.211C196.883 121.661 197.207 121.959 197.207 122.758C197.207 123.532 196.883 123.855 196.211 123.855H185.433V130.639H195.665C196.338 130.639 196.661 130.938 196.661 131.711C196.661 132.529 196.338 132.827 195.665 132.827H185.433V140.138H196.484C197.156 140.138 197.48 140.461 197.48 141.228C197.48 142.002 197.156 142.325 196.484 142.325H184.24Z" fill="#00917C"/>
<path d="M200.837 134.342V129.669C200.837 124.546 204.449 121.414 209.895 121.414C215.322 121.414 218.952 124.546 218.952 129.669V134.342C218.952 139.44 215.341 142.623 209.895 142.623C204.449 142.623 200.837 139.44 200.837 134.342ZM216.617 133.848V130.195C216.617 125.421 213.38 123.633 209.895 123.633C206.41 123.633 203.173 125.421 203.173 130.195V133.848C203.173 138.597 206.41 140.385 209.895 140.385C213.38 140.385 216.617 138.597 216.617 133.848Z" fill="#00917C"/>
<path d="M223.212 141.526V122.53C223.212 121.756 223.707 121.414 224.354 121.414C224.976 121.414 225.275 121.566 225.649 122.111L237.398 138.571H237.449C237.322 136.358 237.252 134.07 237.252 132.408V122.511C237.252 121.762 237.677 121.414 238.395 121.414C239.169 121.414 239.512 121.762 239.512 122.511V141.507C239.512 142.3 239.017 142.623 238.369 142.623C237.773 142.623 237.449 142.401 237.1 141.9L225.3 125.338H225.249C225.446 127.824 225.497 129.916 225.497 131.476V141.52C225.497 142.268 225.097 142.61 224.354 142.61C223.612 142.623 223.212 142.274 223.212 141.526Z" fill="#00917C"/>
<path d="M243.79 129.618C243.79 124.546 247.103 121.414 252.848 121.414C257.773 121.414 261.283 123.798 261.283 127.703V128.002C261.283 128.471 261.036 128.896 260.16 128.896C259.29 128.896 258.916 128.496 258.916 128.002V127.729C258.814 125.04 255.926 123.626 252.841 123.626C249.28 123.626 246.119 125.415 246.119 130.214V133.797C246.119 138.571 249.23 140.385 252.841 140.385C256.573 140.385 259.36 138.692 259.29 134.691V133.524H254.015C253.47 133.524 253.12 133.252 253.12 132.408C253.12 131.565 253.47 131.286 254.015 131.286H260.559C261.308 131.286 261.683 131.559 261.683 132.408V134.995C261.683 140.017 258.148 142.629 252.848 142.629C247.319 142.629 243.79 139.421 243.79 134.399V129.618Z" fill="#00917C"/>
<path d="M279.975 136.086C279.975 135.363 280.4 135.014 281.245 135.065C281.943 135.09 282.343 135.388 282.362 136.035V136.409C282.26 140.537 278.655 142.623 273.996 142.623C268.372 142.623 265.288 139.465 265.288 134.393V129.618C265.288 124.495 268.398 121.414 274.148 121.414C278.331 121.414 282.209 123.354 282.235 127.729V128.103C282.235 128.674 282.013 129.2 281.067 129.2C280.147 129.2 279.823 128.655 279.823 128.103V127.678C279.797 125.066 276.986 123.626 274.225 123.626C270.613 123.626 267.63 125.364 267.63 130.138V133.867C267.63 138.616 270.492 140.378 274.129 140.378C277.068 140.378 279.778 139.085 279.956 136.447L279.975 136.086Z" fill="#00917C"/>
<path d="M302.623 122.504V141.526C302.623 142.249 302.299 142.617 301.43 142.617C300.586 142.617 300.287 142.243 300.287 141.526V132.624H288.938V141.526C288.938 142.249 288.615 142.617 287.77 142.617C286.926 142.617 286.603 142.243 286.603 141.526V122.504C286.603 121.731 286.926 121.407 287.77 121.407C288.615 121.407 288.938 121.731 288.938 122.504V130.411H300.287V122.504C300.287 121.731 300.586 121.407 301.43 121.407C302.299 121.414 302.623 121.737 302.623 122.504Z" fill="#00917C"/>
<path d="M324.197 141.203C324.495 141.9 324.248 142.369 323.422 142.572C322.604 142.743 322.229 142.42 321.931 141.729L320.141 137.43H310.258L308.291 142.154C308.068 142.648 307.542 142.775 306.85 142.477C306.228 142.23 305.955 141.729 306.228 141.063L314.067 122.269C314.314 121.648 314.543 121.426 315.234 121.426C315.958 121.426 316.18 121.648 316.428 122.269L324.197 141.203ZM311.179 135.236H319.24L317.177 130.29C316.58 128.851 315.882 127.107 315.285 125.49H315.209C314.612 127.107 313.838 128.845 313.241 130.29L311.179 135.236Z" fill="#00917C"/>
<path d="M327.827 141.526V122.53C327.827 121.756 328.322 121.414 328.97 121.414C329.592 121.414 329.89 121.566 330.265 122.111L342.013 138.571H342.064C341.937 136.358 341.867 134.07 341.867 132.408V122.511C341.867 121.762 342.293 121.414 343.01 121.414C343.784 121.414 344.127 121.762 344.127 122.511V141.507C344.127 142.3 343.632 142.623 342.984 142.623C342.388 142.623 342.064 142.401 341.715 141.9L329.915 125.338H329.865C330.061 127.824 330.112 129.916 330.112 131.476V141.52C330.112 142.268 329.712 142.61 328.97 142.61C328.227 142.623 327.827 142.274 327.827 141.526Z" fill="#00917C"/>
<path d="M348.405 129.618C348.405 124.546 351.719 121.414 357.463 121.414C362.388 121.414 365.898 123.798 365.898 127.703V128.002C365.898 128.471 365.651 128.896 364.781 128.896C363.912 128.896 363.537 128.496 363.537 128.002V127.729C363.436 125.04 360.548 123.626 357.463 123.626C353.902 123.626 350.741 125.415 350.741 130.214V133.797C350.741 138.571 353.851 140.385 357.463 140.385C361.195 140.385 363.981 138.692 363.912 134.691V133.524H358.637C358.091 133.524 357.742 133.252 357.742 132.408C357.742 131.565 358.091 131.286 358.637 131.286H365.181C365.93 131.286 366.298 131.559 366.298 132.408V134.995C366.298 140.017 362.763 142.629 357.463 142.629C351.934 142.629 348.405 139.421 348.405 134.399V129.618Z" fill="#00917C"/>
</svg>
