<svg width="190" height="67" viewBox="0 0 190 67" fill="none" xmlns="http://www.w3.org/2000/svg">
<path fill-rule="evenodd" clip-rule="evenodd" d="M108.318 16.0129C108.312 15.4901 108.312 14.9672 108.339 14.4503C107.462 11.5628 107.385 7.8761 107.59 5.02124C107.622 4.54889 108.179 1.85445 108.666 1.04938C109.035 0.446327 109.517 0.187875 109.874 0.0868701C110.489 -0.0913732 111.111 -0.0171052 111.694 0.514654C112.416 1.17118 112.955 2.61198 113.023 4.48948C113.133 7.55526 112.324 12.0292 112.033 13.6452C112.012 13.7611 111.994 13.8799 111.976 13.9958L111.982 14.0106C112.155 14.4978 112.131 14.9969 111.908 15.4633L111.881 15.5138C111.878 15.9416 111.89 16.3724 111.899 16.8001C113.344 15.7723 115.607 14.3047 117.406 13.4195C118.872 12.6976 120.163 12.4272 120.826 12.5461C121.323 12.6352 121.698 12.8877 121.974 13.2561C122.248 13.6215 122.402 14.4117 122.286 14.8989C122.048 15.8941 121.076 16.8714 120.404 17.5815C119.958 18.0538 119.467 18.4281 118.959 18.8292C117.267 20.16 114.061 22.0643 111.634 22.7594C111.655 24.4319 111.744 26.0955 111.848 27.7621C114.174 26.0747 117.585 23.9031 120.318 23.7606C120.954 23.7279 121.359 23.9744 121.641 24.2299C121.924 24.4854 122.123 24.8152 122.203 25.2311C122.239 25.4182 122.251 25.641 122.206 25.8876C122.164 26.1223 121.918 26.6362 121.748 26.8501C121.504 27.1591 121.177 27.4175 120.906 27.7057C120.196 28.4602 119.527 29.2326 118.658 29.8238C116.803 31.0834 114.483 32.3459 112.149 32.8213C112.19 33.8135 112.217 34.8057 112.238 35.8009C114.459 34.4522 118.227 32.949 120.755 33.3887C121.617 33.5402 122.105 34.0719 122.271 34.8503C122.37 35.3077 122.194 36.0415 122.084 36.2673C121.385 37.7259 119.967 39.0122 118.715 39.9807C116.621 41.5968 114.62 41.6948 112.342 41.6027C112.369 42.6306 112.407 43.6584 112.467 44.6863C112.523 45.6756 111.765 46.5252 110.772 46.5816C109.781 46.6381 108.931 45.8806 108.874 44.8883C108.812 43.807 108.773 42.7256 108.747 41.6413C105.969 41.5166 103.864 40.5095 101.693 38.7211C100.563 37.7913 99.1322 35.9524 98.817 34.4759C98.6862 33.858 98.8438 33.3738 99.1233 32.9787C99.3672 32.6371 99.7835 32.2836 100.459 32.1855C101.068 32.0994 102.808 32.5747 103.093 32.6905C103.572 32.8836 104.06 33.0738 104.553 33.2312C105.642 33.5728 107.257 34.1313 108.619 34.9334C108.601 34.271 108.58 33.6115 108.55 32.949C106.885 32.5836 104.426 31.6508 103.985 31.422C103.177 31.0002 102.537 30.3258 101.88 29.7168C101.398 29.2712 99.617 27.5542 98.933 26.4728C98.5285 25.8341 98.4036 25.2429 98.4155 24.8567C98.4423 24.0517 98.8467 23.5764 99.4177 23.2912C99.6497 23.1753 99.9411 23.0892 100.292 23.0951C100.491 23.101 100.806 23.1723 100.982 23.2347C101.482 23.4159 101.987 23.3803 102.499 23.508C103.004 23.6358 103.465 23.8734 103.962 24.022C104.851 24.2864 106.671 25.1122 108.155 26.1371C108.092 24.9429 108.048 23.7457 108.036 22.5455C107.947 22.5039 107.875 22.4683 107.843 22.4505C104.438 21.6513 101.035 20.0115 99.0579 16.9487C98.6445 16.307 97.9546 15.2138 97.7345 14.2216C97.571 13.4878 97.6215 12.7808 97.8892 12.1688C98.0795 11.7351 98.4007 11.3934 98.9122 11.2033C99.1084 11.132 99.5872 10.9567 100.253 11.236C100.375 11.2865 100.958 11.6667 101.568 11.9698C102.359 12.3649 103.174 12.7035 103.956 13.1194C104.461 13.3868 106.629 14.682 108.318 16.0129Z" fill="white"/>
<path d="M12.8826 39.2499C14.0602 39.2499 14.5836 39.8381 14.5836 41.0799C14.5836 42.387 14.0602 42.9752 12.8826 42.9752H1.89729C0.588815 42.9752 0 42.387 0 41.0799V28.3741C0 27.067 0.588815 26.4788 1.89729 26.4788H8.6657V17.9855H1.70102C0.49068 17.9855 0 17.3973 0 16.1555C0 14.8484 0.49068 14.2602 1.70102 14.2602H10.792C12.1659 14.2602 12.7547 14.8811 12.7547 16.1882V28.2077C12.7547 29.5148 12.1659 30.1031 10.8574 30.1031H4.08602V39.2499H12.8826ZM20.8613 15.2286V42.2414C20.8613 43.4832 20.1744 44.0714 18.8332 44.0714C17.492 44.0714 16.805 43.4832 16.805 42.2414V28.995H15.5293C14.1881 28.995 13.5338 28.2434 13.5338 27.0016C13.5338 25.7925 14.1881 25.0736 15.5293 25.0736H16.805V15.2286C16.805 13.9869 17.5247 13.3809 18.8332 13.3809C20.1416 13.3809 20.8613 13.9869 20.8613 15.2286ZM26.9755 15.2286V42.2414C26.9755 43.4832 26.3539 44.0714 24.98 44.0714C23.6061 44.0714 22.9519 43.4832 22.9519 42.2414V15.2286C22.9519 14.0196 23.6389 13.3809 24.98 13.3809C26.3212 13.3809 26.9755 14.0196 26.9755 15.2286Z" fill="white"/>
<path d="M43.3553 30.822L51.3994 39.6421C52.1191 40.4263 52.0537 41.3087 50.9742 42.3217C49.8947 43.3347 48.9788 43.1386 48.2264 42.3217L41.2617 34.58L34.297 42.3217C33.5447 43.1386 32.6287 43.3347 31.5492 42.3217C30.4697 41.3087 30.4043 40.4263 31.124 39.6421L39.1681 30.822V15.5674C39.1681 14.3583 39.8878 13.7701 41.2617 13.7701C42.6683 13.7701 43.3553 14.3583 43.3553 15.5674V30.822ZM59.509 15.2079V42.2415C59.509 43.4832 58.8221 44.0714 57.4155 44.0714C56.0089 44.0714 55.3219 43.4832 55.3219 42.2415V15.2079C55.3219 13.9988 56.0089 13.3779 57.4155 13.3779C58.8221 13.3809 59.509 14.0018 59.509 15.2079Z" fill="white"/>
<path d="M83.1002 39.2173C84.3105 39.2173 84.8012 39.8708 84.8012 41.1126C84.8012 42.3217 84.3105 43.0079 83.1002 43.0079H65.9978C64.7874 43.0079 64.2968 42.3217 64.2968 41.1126C64.2968 39.8708 64.7874 39.2173 65.9978 39.2173H68.1895V21.2206C68.1895 20.1423 68.9418 19.5214 70.2176 19.5214C71.4934 19.5214 72.2458 20.1423 72.2458 21.2206V39.2173H76.8552V21.2206C76.8552 20.1423 77.6076 19.5214 78.8833 19.5214C80.1591 19.5214 80.9442 20.1423 80.9442 21.2206V39.2173H83.1002ZM66.2595 18.0509C65.0491 18.0509 64.5584 17.43 64.5584 16.1882C64.5584 14.9138 65.0491 14.2929 66.2595 14.2929H82.8385C84.0488 14.2929 84.5395 14.9138 84.5395 16.1882C84.5395 17.43 84.0488 18.0509 82.8385 18.0509H66.2595ZM92.322 15.2079V42.2415C92.322 43.4832 91.635 44.0714 90.2611 44.0714C88.8545 44.0714 88.1676 43.4832 88.1676 42.2415V15.2079C88.1676 13.9988 88.8545 13.3779 90.2611 13.3779C91.635 13.3809 92.322 14.0018 92.322 15.2079Z" fill="white"/>
<path d="M144.388 30.2992H128.594C127.383 30.2992 126.893 29.6457 126.893 28.4366C126.893 27.1948 127.383 26.574 128.594 26.574H130.295V20.6622C130.295 19.5839 131.047 18.963 132.323 18.963C133.599 18.963 134.351 19.5839 134.351 20.6622V26.574H138.404V20.6622C138.404 19.5839 139.124 18.963 140.4 18.963C141.708 18.963 142.46 19.5839 142.46 20.6622V26.574H144.391H144.685C144.456 26.2799 144.325 25.855 144.325 25.2995C144.325 24.0578 144.979 23.4042 146.255 23.4042H150.178V21.2801H146.252C144.976 21.2801 144.322 20.6266 144.322 19.3521C144.322 18.8293 144.453 18.4045 144.682 18.0777C144.518 18.1104 144.322 18.143 144.126 18.143H128.855C127.645 18.143 127.154 17.5222 127.154 16.2804C127.154 15.006 127.645 14.3851 128.855 14.3851H144.126C145.336 14.3851 145.827 15.006 145.827 16.2804C145.827 16.8033 145.729 17.2281 145.532 17.5548C145.761 17.4895 145.99 17.4568 146.252 17.4568H150.175V15.1367C150.175 13.9276 150.894 13.3721 152.268 13.3721C153.675 13.3721 154.362 13.9276 154.362 15.1367V29.2149C154.362 30.4567 153.707 30.9795 152.268 30.9795C150.862 30.9795 150.175 30.4567 150.175 29.2149V27.2216H146.252C146.089 27.2216 145.958 27.2216 145.794 27.1889C145.99 27.483 146.089 27.9078 146.089 28.4307C146.089 29.6457 145.598 30.2992 144.388 30.2992ZM148.117 32.0639C152.334 32.0639 154.918 34.2206 154.918 38.0409C154.918 41.894 152.268 44.0834 148.051 44.0834H136.019C131.77 44.0834 129.185 41.894 129.185 38.0409C129.185 34.2206 131.77 32.0639 136.019 32.0639H148.117ZM148.28 40.3938C150.112 40.3938 150.864 39.3154 150.864 38.0409C150.864 36.7665 150.112 35.7535 148.28 35.7535H135.856C133.958 35.7535 133.239 36.7992 133.239 38.0409C133.239 39.2827 133.958 40.3938 135.856 40.3938H148.28Z" fill="white"/>
<path d="M162.534 29.7109C161.781 30.201 160.898 30.201 160.146 29.0246C159.557 28.1096 159.393 27.1293 160.342 26.5411L166.751 22.3286V19.9431H161.749C160.538 19.9431 160.113 19.3549 160.113 18.0478C160.113 16.7734 160.538 16.1852 161.749 16.1852H166.751V14.682C166.751 13.4402 167.339 12.8193 168.812 12.8193C170.251 12.8193 170.872 13.4402 170.872 14.682V16.1852H175.874C177.085 16.1852 177.51 16.7734 177.51 18.0478C177.51 19.3549 177.085 19.9431 175.874 19.9431H170.872V22.3286L177.281 26.5411C178.23 27.1293 178.066 28.1096 177.477 29.0246C176.725 30.201 175.842 30.201 175.089 29.7109L168.812 25.5637L162.534 29.7109ZM179.604 31.6715C183.82 31.6715 186.372 33.9917 186.372 37.8774C186.372 41.7631 183.755 44.0832 179.538 44.0832H168.226C163.976 44.0832 161.425 41.7631 161.425 37.8774C161.425 33.9917 163.976 31.6715 168.226 31.6715H179.604ZM179.669 40.3936C181.632 40.3936 182.319 39.1518 182.319 37.8774C182.319 36.6029 181.632 35.3612 179.669 35.3612H168.16C166.132 35.3612 165.478 36.6356 165.478 37.8774C165.478 39.1191 166.132 40.3936 168.16 40.3936H179.669ZM188.332 19.9461C189.509 19.9461 190 20.5997 190 21.9068C190 23.2466 189.509 23.9001 188.332 23.9001H185.682V29.1583C185.682 30.4001 185.028 30.9229 183.588 30.9229C182.182 30.9229 181.495 30.4001 181.495 29.1583V15.1216C181.495 13.9126 182.215 13.357 183.588 13.357C184.995 13.357 185.682 13.9126 185.682 15.1216V19.9461H188.332Z" fill="white"/>
<path d="M22.1281 65.9595C22.2798 66.2626 22.2084 66.4824 21.8843 66.6458C21.5572 66.8092 21.3133 66.7379 21.1498 66.423L19.1662 62.567H15.9605V66.2121C15.9605 66.5507 15.7969 66.723 15.4133 66.723C15.0178 66.723 14.8661 66.5477 14.8661 66.2923V57.591C14.8661 57.0771 15.0772 56.9048 15.553 56.9048H19.2138C21.0457 56.9048 21.8486 57.9178 21.8486 59.1982V60.2468C21.8486 61.2361 21.3698 62.0768 20.3082 62.4125L22.1281 65.9595ZM15.9723 57.9564V61.5332H19.2138C20.1 61.5332 20.7423 61.1381 20.7423 59.9735V59.4834C20.7423 58.3188 20.1 57.9564 19.2138 57.9564H15.9723Z" fill="white"/>
<path d="M24.6114 66.5895C24.2397 66.5895 24.088 66.4262 24.088 66.0637V57.4427C24.088 57.0713 24.2397 56.908 24.6114 56.908H30.22C30.5352 56.908 30.6869 57.0476 30.6869 57.4219C30.6869 57.7843 30.5352 57.9358 30.22 57.9358H25.1705V61.1145H29.9643C30.2795 61.1145 30.4312 61.2541 30.4312 61.6166C30.4312 61.9998 30.2795 62.1394 29.9643 62.1394H25.1705V65.5646H30.3479C30.6631 65.5646 30.8148 65.7161 30.8148 66.0756C30.8148 66.438 30.6631 66.5895 30.3479 66.5895H24.6114Z" fill="white"/>
<path d="M39.2692 63.6665C39.2692 63.3278 39.4685 63.1644 39.864 63.1882C40.1911 63.2001 40.3785 63.3397 40.3874 63.6427V63.818C40.3398 65.7519 38.6507 66.7293 36.4679 66.7293C33.8331 66.7293 32.3878 65.2499 32.3878 62.8733V60.6364C32.3878 58.236 33.845 56.7922 36.5393 56.7922C38.499 56.7922 40.316 57.7013 40.3279 59.7511V59.9263C40.3279 60.1937 40.2238 60.4403 39.7807 60.4403C39.3495 60.4403 39.1979 60.1848 39.1979 59.9263V59.7273C39.186 58.5034 37.8686 57.829 36.5749 57.829C34.8828 57.829 33.4852 58.643 33.4852 60.8799V62.6267C33.4852 64.8518 34.8263 65.6777 36.5303 65.6777C37.9072 65.6777 39.177 65.0716 39.2603 63.8358L39.2692 63.6665Z" fill="white"/>
<path d="M42.4038 66.2273V57.3032C42.4038 56.9408 42.5555 56.7893 42.951 56.7893C43.3465 56.7893 43.4863 56.9408 43.4863 57.3032V66.2273C43.4863 66.5659 43.3465 66.7293 42.951 66.7293C42.5555 66.7293 42.4038 66.5659 42.4038 66.2273Z" fill="white"/>
<path d="M45.8206 57.5974C45.8206 57.0834 46.0317 56.9111 46.5075 56.9111H50.2843C52.1161 56.9111 52.9191 57.9598 52.9191 59.2402V60.2057C52.9191 61.4979 52.1131 62.5585 50.2843 62.5585H46.9149V66.2154C46.9149 66.5541 46.7514 66.7264 46.3677 66.7264C45.9722 66.7264 45.8206 66.5511 45.8206 66.2956V57.5974ZM46.9268 61.5217H50.2843C51.1704 61.5217 51.8128 61.0909 51.8128 59.9264V59.5194C51.8128 58.3549 51.1704 57.9568 50.2843 57.9568H46.9268V61.5217Z" fill="white"/>
<path d="M55.2624 66.5895C54.8907 66.5895 54.739 66.4262 54.739 66.0637V57.4427C54.739 57.0713 54.8907 56.908 55.2624 56.908H60.871C61.1862 56.908 61.3379 57.0476 61.3379 57.4219C61.3379 57.7843 61.1862 57.9358 60.871 57.9358H55.8215V61.1145H60.6153C60.9305 61.1145 61.0822 61.2541 61.0822 61.6166C61.0822 61.9998 60.9305 62.1394 60.6153 62.1394H55.8215V65.5646H60.9989C61.3141 65.5646 61.4658 65.7161 61.4658 66.0756C61.4658 66.438 61.3141 66.5895 60.9989 66.5895H55.2624Z" fill="white"/>
<path d="M67.2499 57.5974C67.2499 57.0834 67.461 56.9111 67.9368 56.9111H71.7136C73.5454 56.9111 74.3484 57.9598 74.3484 59.2402V60.2057C74.3484 61.4979 73.5425 62.5585 71.7136 62.5585H68.3442V66.2154C68.3442 66.5541 68.1807 66.7264 67.7971 66.7264C67.4015 66.7264 67.2499 66.5511 67.2499 66.2956V57.5974ZM68.3561 61.5217H71.7136C72.5998 61.5217 73.2421 61.0909 73.2421 59.9264V59.5194C73.2421 58.3549 72.5998 57.9568 71.7136 57.9568H68.3561V61.5217Z" fill="white"/>
<path d="M83.817 57.5617L80.296 62.71L80.2841 62.7218V66.2035C80.2841 66.5422 80.1325 66.7264 79.7369 66.7264C79.3414 66.7264 79.1898 66.5392 79.1898 66.2035V62.7337C79.1898 62.7218 79.1779 62.7218 79.1779 62.71L75.645 57.5617C75.4576 57.2943 75.5647 57.0597 75.8085 56.8963C76.0762 56.7329 76.3676 56.7448 76.5193 56.9676L79.7131 61.6494H79.7488L82.9427 56.9676C83.0944 56.7566 83.3858 56.7448 83.6416 56.9081C83.8884 57.0596 84.0044 57.2943 83.817 57.5617Z" fill="white"/>
<path d="M86.1009 66.5895C85.7292 66.5895 85.5775 66.4262 85.5775 66.0637V57.4427C85.5775 57.0713 85.7292 56.908 86.1009 56.908H91.7095C92.0248 56.908 92.1764 57.0476 92.1764 57.4219C92.1764 57.7843 92.0248 57.9358 91.7095 57.9358H86.66V61.1145H91.4538C91.769 61.1145 91.9207 61.2541 91.9207 61.6166C91.9207 61.9998 91.769 62.1394 91.4538 62.1394H86.66V65.5646H91.8374C92.1526 65.5646 92.3043 65.7161 92.3043 66.0756C92.3043 66.438 92.1526 66.5895 91.8374 66.5895H86.1009Z" fill="white"/>
<path d="M93.8774 62.8495V60.6601C93.8774 58.2598 95.5695 56.7922 98.1211 56.7922C100.664 56.7922 102.365 58.2598 102.365 60.6601V62.8495C102.365 65.238 100.673 66.7293 98.1211 66.7293C95.5695 66.7293 93.8774 65.238 93.8774 62.8495ZM101.27 62.6178V60.9067C101.27 58.6697 99.7537 57.832 98.1211 57.832C96.4885 57.832 94.9718 58.6697 94.9718 60.9067V62.6178C94.9718 64.8429 96.4885 65.6806 98.1211 65.6806C99.7537 65.6806 101.27 64.8429 101.27 62.6178Z" fill="white"/>
<path d="M104.36 66.2154V57.3151C104.36 56.9527 104.592 56.7922 104.895 56.7922C105.187 56.7922 105.327 56.8635 105.502 57.119L111.007 64.831H111.03C110.971 63.7942 110.938 62.7218 110.938 61.9435V57.3062C110.938 56.9556 111.137 56.7922 111.473 56.7922C111.836 56.7922 111.997 56.9556 111.997 57.3062V66.2065C111.997 66.5778 111.765 66.7293 111.462 66.7293C111.182 66.7293 111.03 66.6253 110.867 66.3906L105.338 58.6311H105.315C105.407 59.7956 105.431 60.776 105.431 61.5068V66.2124C105.431 66.5629 105.243 66.7234 104.895 66.7234C104.547 66.7293 104.36 66.5659 104.36 66.2154Z" fill="white"/>
<path d="M114.001 60.6364C114.001 58.2598 115.554 56.7922 118.245 56.7922C120.553 56.7922 122.197 57.9092 122.197 59.7392V59.8788C122.197 60.0986 122.081 60.2977 121.671 60.2977C121.263 60.2977 121.088 60.1105 121.088 59.8788V59.7511C121.04 58.4915 119.687 57.829 118.242 57.829C116.574 57.829 115.093 58.6668 115.093 60.9156V62.5941C115.093 64.831 116.55 65.6806 118.242 65.6806C119.99 65.6806 121.296 64.8875 121.263 63.0129V62.4663H118.792C118.536 62.4663 118.373 62.3386 118.373 61.9435C118.373 61.5484 118.536 61.4177 118.792 61.4177H121.858C122.209 61.4177 122.384 61.5454 122.384 61.9435V63.1555C122.384 65.5083 120.728 66.7323 118.245 66.7323C115.655 66.7323 114.001 65.2291 114.001 62.8763V60.6364Z" fill="white"/>
<path d="M130.955 63.6665C130.955 63.3278 131.154 63.1644 131.55 63.1882C131.877 63.2001 132.064 63.3397 132.073 63.6427V63.818C132.025 65.7519 130.336 66.7293 128.154 66.7293C125.519 66.7293 124.073 65.2499 124.073 62.8733V60.6364C124.073 58.236 125.531 56.7922 128.225 56.7922C130.185 56.7922 132.002 57.7013 132.014 59.7511V59.9263C132.014 60.1937 131.909 60.4403 131.466 60.4403C131.035 60.4403 130.884 60.1848 130.884 59.9263V59.7273C130.872 58.5034 129.554 57.829 128.261 57.829C126.569 57.829 125.171 58.643 125.171 60.8799V62.6267C125.171 64.8518 126.512 65.6777 128.216 65.6777C129.593 65.6777 130.863 65.0716 130.946 63.8358L130.955 63.6665Z" fill="white"/>
<path d="M141.566 57.3032V66.2154C141.566 66.5541 141.414 66.7264 141.007 66.7264C140.611 66.7264 140.471 66.5511 140.471 66.2154V62.0445H135.154V66.2154C135.154 66.5541 135.002 66.7264 134.607 66.7264C134.211 66.7264 134.06 66.5511 134.06 66.2154V57.3032C134.06 56.9408 134.211 56.7893 134.607 56.7893C135.002 56.7893 135.154 56.9408 135.154 57.3032V61.0077H140.471V57.3032C140.471 56.9408 140.611 56.7893 141.007 56.7893C141.414 56.7923 141.566 56.9438 141.566 57.3032Z" fill="white"/>
<path d="M151.674 66.0638C151.813 66.3906 151.697 66.6104 151.311 66.7055C150.927 66.7857 150.752 66.6342 150.612 66.3103L149.773 64.2962H145.143L144.221 66.5094C144.117 66.7411 143.87 66.8005 143.546 66.6609C143.255 66.545 143.127 66.3103 143.255 65.9984L146.927 57.1932C147.043 56.9021 147.15 56.7981 147.475 56.7981C147.814 56.7981 147.918 56.9021 148.034 57.1932L151.674 66.0638ZM145.574 63.2683H149.351L148.385 60.9512C148.105 60.2768 147.778 59.4599 147.498 58.7023H147.463C147.183 59.4599 146.82 60.2738 146.541 60.9512L145.574 63.2683Z" fill="white"/>
<path d="M153.375 66.2154V57.3151C153.375 56.9527 153.606 56.7922 153.91 56.7922C154.201 56.7922 154.341 56.8635 154.516 57.119L160.021 64.831H160.045C159.985 63.7942 159.953 62.7218 159.953 61.9435V57.3062C159.953 56.9556 160.152 56.7922 160.488 56.7922C160.851 56.7922 161.011 56.9556 161.011 57.3062V66.2065C161.011 66.5778 160.779 66.7293 160.476 66.7293C160.196 66.7293 160.045 66.6253 159.881 66.3906L154.353 58.6311H154.329C154.421 59.7956 154.445 60.776 154.445 61.5068V66.2124C154.445 66.5629 154.258 66.7234 153.91 66.7234C153.562 66.7293 153.375 66.5659 153.375 66.2154Z" fill="white"/>
<path d="M163.016 60.6364C163.016 58.2598 164.568 56.7922 167.259 56.7922C169.567 56.7922 171.211 57.9092 171.211 59.7392V59.8788C171.211 60.0986 171.095 60.2977 170.688 60.2977C170.281 60.2977 170.105 60.1105 170.105 59.8788V59.7511C170.058 58.4915 168.705 57.829 167.259 57.829C165.591 57.829 164.11 58.6668 164.11 60.9156V62.5941C164.11 64.831 165.567 65.6806 167.259 65.6806C169.008 65.6806 170.313 64.8875 170.281 63.0129V62.4663H167.809C167.554 62.4663 167.39 62.3386 167.39 61.9435C167.39 61.5484 167.554 61.4177 167.809 61.4177H170.875C171.226 61.4177 171.399 61.5454 171.399 61.9435V63.1555C171.399 65.5083 169.742 66.7323 167.259 66.7323C164.669 66.7323 163.016 65.2291 163.016 62.8763V60.6364Z" fill="white"/>
</svg>
