<svg width="496" height="175" viewBox="0 0 496 175" fill="none" xmlns="http://www.w3.org/2000/svg">
<g clip-path="url(#clip0_162_4201)">
<path fill-rule="evenodd" clip-rule="evenodd" d="M282.768 41.9893C282.752 40.6183 282.752 39.2472 282.822 37.8917C280.532 30.3196 280.33 20.6519 280.866 13.1654C280.951 11.9268 282.403 4.86104 283.676 2.74989C284.638 1.16847 285.896 0.490718 286.828 0.22585C288.435 -0.241565 290.057 -0.0468087 291.579 1.34764C293.465 3.06929 294.87 6.84756 295.049 11.771C295.336 19.8105 293.225 31.5426 292.464 35.7805C292.409 36.0843 292.363 36.3959 292.316 36.6998L292.332 36.7387C292.782 38.0163 292.72 39.3251 292.138 40.5481L292.068 40.6806C292.06 41.8024 292.091 42.932 292.114 44.0538C295.887 41.3583 301.795 37.5099 306.492 35.1885C310.319 33.2954 313.688 32.5865 315.42 32.8981C316.716 33.1318 317.694 33.794 318.416 34.76C319.13 35.7182 319.534 37.7904 319.231 39.068C318.61 41.6777 316.072 44.2407 314.317 46.1026C313.153 47.3412 311.872 48.3228 310.544 49.3745C306.127 52.8645 297.758 57.8581 291.424 59.681C291.478 64.0669 291.711 68.4294 291.982 72.7997C298.053 68.3749 306.958 62.6802 314.092 62.3063C315.753 62.2206 316.809 62.8672 317.547 63.5371C318.284 64.2071 318.804 65.0718 319.014 66.1625C319.107 66.6532 319.138 67.2375 319.022 67.8841C318.913 68.4995 318.269 69.8472 317.826 70.4081C317.19 71.2183 316.336 71.8961 315.629 72.6517C313.774 74.6305 312.027 76.6559 309.76 78.2062C304.916 81.5092 298.861 84.8201 292.767 86.0665C292.875 88.6685 292.945 91.2704 292.999 93.8801C298.799 90.3434 308.635 86.4015 315.233 87.5545C317.485 87.9518 318.758 89.3462 319.193 91.3873C319.449 92.587 318.991 94.5112 318.703 95.1032C316.879 98.9282 313.176 102.301 309.908 104.841C304.442 109.079 299.218 109.336 293.271 109.094C293.341 111.79 293.442 114.485 293.597 117.181C293.745 119.775 291.765 122.003 289.172 122.151C286.587 122.299 284.367 120.312 284.219 117.711C284.056 114.875 283.955 112.039 283.885 109.196C276.635 108.869 271.138 106.228 265.471 101.538C262.521 99.0996 258.787 94.2775 257.964 90.4057C257.622 88.7853 258.034 87.5155 258.764 86.4794C259.4 85.5835 260.487 84.6565 262.249 84.3994C263.841 84.1735 268.382 85.4199 269.128 85.7238C270.377 86.2301 271.651 86.7287 272.939 87.1416C275.781 88.0375 279.996 89.502 283.552 91.6054C283.505 89.8682 283.451 88.1387 283.373 86.4015C279.026 85.4433 272.605 82.9972 271.457 82.3973C269.345 81.2911 267.676 79.5227 265.96 77.9257C264.703 76.7572 260.052 72.2544 258.267 69.4188C257.211 67.7439 256.885 66.1936 256.916 65.1809C256.986 63.0697 258.042 61.8233 259.532 61.0754C260.138 60.7716 260.899 60.5457 261.815 60.5613C262.335 60.5769 263.158 60.7638 263.616 60.9274C264.92 61.4026 266.24 61.3091 267.575 61.6441C268.895 61.9791 270.098 62.6023 271.394 62.9918C273.716 63.6852 278.467 65.8509 282.341 68.5385C282.178 65.4068 282.061 62.2673 282.03 59.1201C281.797 59.011 281.611 58.9175 281.525 58.8708C272.637 56.7752 263.755 52.475 258.593 44.4433C257.514 42.7606 255.713 39.8938 255.138 37.2918C254.711 35.3676 254.843 33.5136 255.542 31.9088C256.039 30.7714 256.877 29.8755 258.212 29.3769C258.725 29.19 259.975 28.7303 261.714 29.4626C262.032 29.5951 263.554 30.5922 265.145 31.3868C267.21 32.4229 269.337 33.311 271.379 34.4016C272.699 35.1028 278.358 38.4993 282.768 41.9893Z" fill="#0A6D68"/>
<path d="M33.6303 102.925C36.7045 102.925 38.0708 104.467 38.0708 107.724C38.0708 111.151 36.7045 112.694 33.6303 112.694H4.95294C1.53712 112.694 0 111.151 0 107.724V74.4048C0 70.977 1.53712 69.4346 4.95294 69.4346H22.622V47.1623H4.44056C1.28093 47.1623 0 45.6198 0 42.3635C0 38.9358 1.28093 37.3933 4.44056 37.3933H28.1727C31.7593 37.3933 33.2965 39.0215 33.2965 42.4492V73.9685C33.2965 77.3962 31.7593 78.9387 28.3435 78.9387H10.6667V102.925H33.6303ZM54.459 39.9329V110.77C54.459 114.026 52.6657 115.568 49.1645 115.568C45.6633 115.568 43.87 114.026 43.87 110.77V76.0329H40.5395C37.0383 76.0329 35.3304 74.062 35.3304 70.8057C35.3304 67.635 37.0383 65.7498 40.5395 65.7498H43.87V39.9329C43.87 36.6766 45.7487 35.0874 49.1645 35.0874C52.5803 35.0874 54.459 36.6766 54.459 39.9329ZM70.4202 39.9329V110.77C70.4202 114.026 68.7977 115.568 65.2111 115.568C61.6245 115.568 59.9165 114.026 59.9165 110.77V39.9329C59.9165 36.7623 61.7099 35.0874 65.2111 35.0874C68.7123 35.0874 70.4202 36.7623 70.4202 39.9329Z" fill="#00917C"/>
<path d="M113.18 80.8239L134.18 103.953C136.058 106.01 135.887 108.323 133.069 110.98C130.251 113.636 127.86 113.122 125.896 110.98L107.715 90.6785L89.5333 110.98C87.5692 113.122 85.1781 113.636 82.36 110.98C79.542 108.323 79.3712 106.01 81.2499 103.953L102.249 80.8239V40.821C102.249 37.6504 104.128 36.1079 107.715 36.1079C111.387 36.1079 113.18 37.6504 113.18 40.821V80.8239ZM155.35 39.8784V110.77C155.35 114.026 153.557 115.568 149.885 115.568C146.213 115.568 144.419 114.026 144.419 110.77V39.8784C144.419 36.7078 146.213 35.0796 149.885 35.0796C153.557 35.0874 155.35 36.7155 155.35 39.8784Z" fill="#00917C"/>
<path d="M216.935 102.839C220.095 102.839 221.376 104.553 221.376 107.809C221.376 110.98 220.095 112.779 216.935 112.779H172.289C169.13 112.779 167.849 110.98 167.849 107.809C167.849 104.553 169.13 102.839 172.289 102.839H178.011V55.6458C178.011 52.818 179.975 51.1898 183.305 51.1898C186.636 51.1898 188.6 52.818 188.6 55.6458V102.839H200.633V55.6458C200.633 52.818 202.597 51.1898 205.927 51.1898C209.258 51.1898 211.307 52.818 211.307 55.6458V102.839H216.935ZM172.972 47.3336C169.813 47.3336 168.532 45.7055 168.532 42.4492C168.532 39.1071 169.813 37.479 172.972 37.479H216.252C219.412 37.479 220.693 39.1071 220.693 42.4492C220.693 45.7055 219.412 47.3336 216.252 47.3336H172.972ZM241.009 39.8784V110.77C241.009 114.026 239.216 115.568 235.629 115.568C231.957 115.568 230.164 114.026 230.164 110.77V39.8784C230.164 36.7078 231.957 35.0796 235.629 35.0796C239.216 35.0874 241.009 36.7155 241.009 39.8784Z" fill="#00917C"/>
<path d="M376.928 79.4528H335.697C332.538 79.4528 331.257 77.7389 331.257 74.5683C331.257 71.312 332.538 69.6838 335.697 69.6838H340.138V54.1812C340.138 51.3534 342.102 49.7252 345.432 49.7252C348.763 49.7252 350.727 51.3534 350.727 54.1812V69.6838H361.308V54.1812C361.308 51.3534 363.187 49.7252 366.517 49.7252C369.933 49.7252 371.897 51.3534 371.897 54.1812V69.6838H376.936H377.704C377.106 68.9126 376.765 67.7986 376.765 66.3418C376.765 63.0855 378.473 61.3716 381.803 61.3716H392.043V55.8016H381.795C378.465 55.8016 376.757 54.0877 376.757 50.7457C376.757 49.3746 377.099 48.2606 377.696 47.4037C377.269 47.4894 376.757 47.5751 376.245 47.5751H336.381C333.221 47.5751 331.94 45.9469 331.94 42.6906C331.94 39.3486 333.221 37.7204 336.381 37.7204H376.245C379.404 37.7204 380.685 39.3486 380.685 42.6906C380.685 44.0617 380.429 45.1757 379.917 46.0326C380.514 45.8612 381.112 45.7755 381.795 45.7755H392.035V39.6914C392.035 36.5207 393.914 35.064 397.5 35.064C401.172 35.064 402.966 36.5207 402.966 39.6914V76.6093C402.966 79.8656 401.258 81.2367 397.5 81.2367C393.828 81.2367 392.035 79.8656 392.035 76.6093V71.3821H381.795C381.368 71.3821 381.027 71.3821 380.6 71.2964C381.112 72.0676 381.368 73.1816 381.368 74.5527C381.368 77.7389 380.087 79.4528 376.928 79.4528ZM386.663 84.0802C397.671 84.0802 404.417 89.7359 404.417 99.7541C404.417 109.858 397.5 115.599 386.492 115.599H355.082C343.989 115.599 337.242 109.858 337.242 99.7541C337.242 89.7359 343.989 84.0802 355.082 84.0802H386.663ZM387.09 105.924C391.872 105.924 393.836 103.096 393.836 99.7541C393.836 96.4121 391.872 93.7556 387.09 93.7556H354.655C349.702 93.7556 347.824 96.4978 347.824 99.7541C347.824 103.01 349.702 105.924 354.655 105.924H387.09Z" fill="#00917C"/>
<path d="M424.299 77.9103C422.335 79.1957 420.029 79.1957 418.065 76.1108C416.528 73.7114 416.101 71.1406 418.577 69.5981L435.307 58.5516V52.296H422.249C419.09 52.296 417.98 50.7535 417.98 47.3258C417.98 43.9838 419.09 42.4413 422.249 42.4413H435.307V38.4995C435.307 35.2431 436.844 33.615 440.687 33.615C444.444 33.615 446.067 35.2431 446.067 38.4995V42.4413H459.125C462.284 42.4413 463.394 43.9838 463.394 47.3258C463.394 50.7535 462.284 52.296 459.125 52.296H446.067V58.5516L462.797 69.5981C465.273 71.1406 464.846 73.7114 463.309 76.1108C461.345 79.1957 459.039 79.1957 457.075 77.9103L440.687 67.0351L424.299 77.9103ZM468.86 83.0519C479.868 83.0519 486.529 89.136 486.529 99.3257C486.529 109.515 479.697 115.599 468.689 115.599H439.158C428.064 115.599 421.403 109.515 421.403 99.3257C421.403 89.136 428.064 83.0519 439.158 83.0519H468.86ZM469.031 105.924C474.154 105.924 475.948 102.668 475.948 99.3257C475.948 95.9837 474.154 92.7273 469.031 92.7273H438.987C433.692 92.7273 431.984 96.0694 431.984 99.3257C431.984 102.582 433.692 105.924 438.987 105.924H469.031ZM491.645 52.3038C494.719 52.3038 496 54.0176 496 57.4453C496 60.9587 494.719 62.6726 491.645 62.6726H484.728V76.4613C484.728 79.7176 483.02 81.0887 479.262 81.0887C475.59 81.0887 473.797 79.7176 473.797 76.4613V39.6524C473.797 36.4818 475.676 35.025 479.262 35.025C482.934 35.025 484.728 36.4818 484.728 39.6524V52.3038H491.645Z" fill="#00917C"/>
<path d="M57.7664 172.967C58.1623 173.761 57.976 174.338 57.1298 174.766C56.2758 175.195 55.6393 175.008 55.2123 174.182L50.0342 164.07H41.6655V173.629C41.6655 174.517 41.2385 174.969 40.237 174.969C39.2045 174.969 38.8086 174.509 38.8086 173.839V151.021C38.8086 149.674 39.3598 149.222 40.6019 149.222H50.1584C54.9406 149.222 57.0366 151.878 57.0366 155.236V157.986C57.0366 160.58 55.7868 162.785 53.0153 163.665L57.7664 172.967ZM41.6965 151.98V161.359H50.1584C52.4719 161.359 54.1487 160.323 54.1487 157.269V155.984C54.1487 152.93 52.4719 151.98 50.1584 151.98H41.6965Z" fill="#00917C"/>
<path d="M64.2487 174.618C63.2783 174.618 62.8823 174.19 62.8823 173.239V150.632C62.8823 149.658 63.2783 149.23 64.2487 149.23H78.8901C79.713 149.23 80.1089 149.596 80.1089 150.577C80.1089 151.528 79.713 151.925 78.8901 151.925H65.7081V160.261H78.2225C79.0454 160.261 79.4413 160.627 79.4413 161.577C79.4413 162.582 79.0454 162.948 78.2225 162.948H65.7081V171.931H79.2239C80.0468 171.931 80.4427 172.328 80.4427 173.27C80.4427 174.221 80.0468 174.618 79.2239 174.618H64.2487Z" fill="#00917C"/>
<path d="M102.513 166.953C102.513 166.065 103.034 165.636 104.066 165.698C104.92 165.73 105.409 166.096 105.432 166.89V167.35C105.308 172.421 100.899 174.984 95.2005 174.984C88.3222 174.984 84.5493 171.105 84.5493 164.873V159.007C84.5493 152.712 88.3533 148.926 95.3868 148.926C100.503 148.926 105.246 151.31 105.277 156.685V157.145C105.277 157.846 105.005 158.492 103.849 158.492C102.723 158.492 102.327 157.822 102.327 157.145V156.623C102.296 153.413 98.8569 151.645 95.4799 151.645C91.0627 151.645 87.4139 153.779 87.4139 159.645V164.226C87.4139 170.061 90.9152 172.227 95.3635 172.227C98.9579 172.227 102.273 170.637 102.49 167.397L102.513 166.953Z" fill="#00917C"/>
<path d="M110.696 173.668V150.266C110.696 149.316 111.092 148.918 112.124 148.918C113.157 148.918 113.522 149.316 113.522 150.266V173.668C113.522 174.556 113.157 174.984 112.124 174.984C111.092 174.984 110.696 174.556 110.696 173.668Z" fill="#00917C"/>
<path d="M119.616 151.037C119.616 149.689 120.167 149.238 121.41 149.238H131.269C136.051 149.238 138.147 151.988 138.147 155.345V157.877C138.147 161.266 136.043 164.047 131.269 164.047H122.473V173.637C122.473 174.525 122.046 174.977 121.045 174.977C120.012 174.977 119.616 174.517 119.616 173.847V151.037ZM122.504 161.328H131.269C133.582 161.328 135.259 160.198 135.259 157.145V156.077C135.259 153.024 133.582 151.98 131.269 151.98H122.504V161.328Z" fill="#00917C"/>
<path d="M144.264 174.618C143.294 174.618 142.898 174.19 142.898 173.239V150.632C142.898 149.658 143.294 149.23 144.264 149.23H158.906C159.729 149.23 160.125 149.596 160.125 150.577C160.125 151.528 159.729 151.925 158.906 151.925H145.724V160.261H158.238C159.061 160.261 159.457 160.627 159.457 161.577C159.457 162.582 159.061 162.948 158.238 162.948H145.724V171.931H159.24C160.062 171.931 160.458 172.328 160.458 173.27C160.458 174.221 160.062 174.618 159.24 174.618H144.264Z" fill="#00917C"/>
<path d="M175.558 151.037C175.558 149.689 176.109 149.238 177.351 149.238H187.21C191.992 149.238 194.088 151.988 194.088 155.345V157.877C194.088 161.266 191.985 164.047 187.21 164.047H178.414V173.637C178.414 174.525 177.988 174.977 176.986 174.977C175.954 174.977 175.558 174.517 175.558 173.847V151.037ZM178.446 161.328H187.21C189.524 161.328 191.201 160.198 191.201 157.145V156.077C191.201 153.024 189.524 151.98 187.21 151.98H178.446V161.328Z" fill="#00917C"/>
<path d="M218.807 150.944L209.615 164.444L209.584 164.475V173.606C209.584 174.494 209.188 174.977 208.156 174.977C207.123 174.977 206.727 174.486 206.727 173.606V164.506C206.727 164.475 206.696 164.475 206.696 164.444L197.473 150.944C196.984 150.243 197.264 149.627 197.9 149.199C198.599 148.77 199.36 148.801 199.756 149.386L208.093 161.663H208.187L216.524 149.386C216.92 148.833 217.681 148.801 218.349 149.23C218.993 149.627 219.296 150.243 218.807 150.944Z" fill="#00917C"/>
<path d="M224.769 174.618C223.798 174.618 223.402 174.19 223.402 173.239V150.632C223.402 149.658 223.798 149.23 224.769 149.23H239.41C240.233 149.23 240.629 149.596 240.629 150.577C240.629 151.528 240.233 151.925 239.41 151.925H226.228V160.261H238.742C239.565 160.261 239.961 160.627 239.961 161.577C239.961 162.582 239.565 162.948 238.742 162.948H226.228V171.931H239.744C240.567 171.931 240.963 172.328 240.963 173.27C240.963 174.221 240.567 174.618 239.744 174.618H224.769Z" fill="#00917C"/>
<path d="M245.07 164.81V159.069C245.07 152.774 249.487 148.926 256.148 148.926C262.786 148.926 267.226 152.774 267.226 159.069V164.81C267.226 171.074 262.809 174.984 256.148 174.984C249.487 174.984 245.07 171.074 245.07 164.81ZM264.369 164.203V159.716C264.369 153.849 260.41 151.653 256.148 151.653C251.886 151.653 247.927 153.849 247.927 159.716V164.203C247.927 170.038 251.886 172.234 256.148 172.234C260.41 172.234 264.369 170.038 264.369 164.203Z" fill="#00917C"/>
<path d="M272.435 173.637V150.297C272.435 149.347 273.041 148.926 273.832 148.926C274.593 148.926 274.958 149.113 275.416 149.783L289.786 170.006H289.848C289.693 167.288 289.607 164.475 289.607 162.434V150.274C289.607 149.354 290.127 148.926 291.005 148.926C291.952 148.926 292.371 149.354 292.371 150.274V173.613C292.371 174.587 291.765 174.984 290.974 174.984C290.244 174.984 289.848 174.712 289.421 174.096L274.989 153.748H274.927C275.168 156.802 275.23 159.373 275.23 161.289V173.629C275.23 174.548 274.741 174.969 273.832 174.969C272.924 174.984 272.435 174.556 272.435 173.637Z" fill="#00917C"/>
<path d="M297.604 159.007C297.604 152.774 301.656 148.926 308.682 148.926C314.706 148.926 318.999 151.855 318.999 156.654V157.02C318.999 157.597 318.696 158.119 317.625 158.119C316.561 158.119 316.103 157.628 316.103 157.02V156.685C315.979 153.382 312.447 151.645 308.674 151.645C304.319 151.645 300.453 153.842 300.453 159.739V164.14C300.453 170.006 304.257 172.234 308.674 172.234C313.239 172.234 316.647 170.154 316.561 165.239V163.805H310.11C309.442 163.805 309.015 163.47 309.015 162.434C309.015 161.398 309.442 161.055 310.11 161.055H318.114C319.03 161.055 319.488 161.39 319.488 162.434V165.613C319.488 171.783 315.164 174.992 308.682 174.992C301.92 174.992 297.604 171.05 297.604 164.88V159.007Z" fill="#00917C"/>
<path d="M341.862 166.953C341.862 166.065 342.382 165.636 343.414 165.698C344.268 165.73 344.757 166.096 344.781 166.89V167.35C344.656 172.421 340.247 174.984 334.549 174.984C327.67 174.984 323.897 171.105 323.897 164.873V159.007C323.897 152.712 327.701 148.926 334.735 148.926C339.851 148.926 344.594 151.31 344.625 156.685V157.145C344.625 157.846 344.354 158.492 343.197 158.492C342.071 158.492 341.675 157.822 341.675 157.145V156.623C341.644 153.413 338.205 151.645 334.828 151.645C330.411 151.645 326.762 153.779 326.762 159.645V164.226C326.762 170.061 330.263 172.227 334.712 172.227C338.306 172.227 341.621 170.637 341.838 167.397L341.862 166.953Z" fill="#00917C"/>
<path d="M369.561 150.266V173.637C369.561 174.525 369.165 174.977 368.101 174.977C367.069 174.977 366.704 174.517 366.704 173.637V162.699H352.823V173.637C352.823 174.525 352.427 174.977 351.395 174.977C350.362 174.977 349.966 174.517 349.966 173.637V150.266C349.966 149.316 350.362 148.918 351.395 148.918C352.427 148.918 352.823 149.316 352.823 150.266V159.98H366.704V150.266C366.704 149.316 367.069 148.918 368.101 148.918C369.165 148.926 369.561 149.323 369.561 150.266Z" fill="#00917C"/>
<path d="M395.948 173.239C396.313 174.096 396.01 174.673 395.001 174.922C393.999 175.132 393.541 174.735 393.176 173.886L390.987 168.604H378.9L376.493 174.408C376.221 175.016 375.577 175.171 374.731 174.805C373.97 174.501 373.636 173.886 373.97 173.068L383.558 149.978C383.86 149.214 384.14 148.942 384.986 148.942C385.871 148.942 386.143 149.214 386.446 149.978L395.948 173.239ZM380.025 165.909H389.885L387.362 159.832C386.632 158.064 385.778 155.922 385.048 153.935H384.955C384.225 155.922 383.278 158.056 382.548 159.832L380.025 165.909Z" fill="#00917C"/>
<path d="M400.389 173.637V150.297C400.389 149.347 400.994 148.926 401.786 148.926C402.547 148.926 402.912 149.113 403.37 149.783L417.739 170.006H417.802C417.646 167.288 417.561 164.475 417.561 162.434V150.274C417.561 149.354 418.081 148.926 418.958 148.926C419.905 148.926 420.325 149.354 420.325 150.274V173.613C420.325 174.587 419.719 174.984 418.927 174.984C418.198 174.984 417.802 174.712 417.375 174.096L402.943 153.748H402.881C403.121 156.802 403.183 159.373 403.183 161.289V173.629C403.183 174.548 402.694 174.969 401.786 174.969C400.878 174.984 400.389 174.556 400.389 173.637Z" fill="#00917C"/>
<path d="M425.557 159.007C425.557 152.774 429.609 148.926 436.635 148.926C442.659 148.926 446.952 151.855 446.952 156.654V157.02C446.952 157.597 446.649 158.119 445.586 158.119C444.522 158.119 444.064 157.628 444.064 157.02V156.685C443.94 153.382 440.408 151.645 436.635 151.645C432.28 151.645 428.414 153.842 428.414 159.739V164.14C428.414 170.006 432.218 172.234 436.635 172.234C441.2 172.234 444.608 170.154 444.522 165.239V163.805H438.071C437.403 163.805 436.976 163.47 436.976 162.434C436.976 161.398 437.403 161.055 438.071 161.055H446.075C446.991 161.055 447.441 161.39 447.441 162.434V165.613C447.441 171.783 443.117 174.992 436.635 174.992C429.873 174.992 425.557 171.05 425.557 164.88V159.007Z" fill="#00917C"/>
</g>
<defs>
<clipPath id="clip0_162_4201">
<rect width="496" height="175" fill="white"/>
</clipPath>
</defs>
</svg>
